<?xml version="1.0" encoding="utf-8"?>
<!-- Generator: Adobe Illustrator 16.0.0, SVG Export Plug-In . SVG Version: 6.00 Build 0)  -->
<!DOCTYPE svg PUBLIC "-//W3C//DTD SVG 1.1//EN" "http://www.w3.org/Graphics/SVG/1.1/DTD/svg11.dtd">
<svg version="1.1" id="Layer_1" xmlns="http://www.w3.org/2000/svg" xmlns:xlink="http://www.w3.org/1999/xlink" x="0px" y="0px"
	 width="189.96px" height="269.96px" viewBox="0 0 189.96 269.96" enable-background="new 0 0 189.96 269.96" xml:space="preserve">
<path fill="#D09753" stroke="#F15E26" stroke-width="3" stroke-miterlimit="10" d="M188.46,157.98
	c0,51.63-41.85,110.48-93.48,110.48S1.5,209.61,1.5,157.98S43.35,1.5,94.98,1.5S188.46,106.35,188.46,157.98z"/>
<path display="none" fill="#D09853" stroke="#F15E26" stroke-width="3" stroke-miterlimit="10" d="M188.46,157.98
	c0,51.63-41.85,110.48-93.48,110.48S1.5,209.61,1.5,157.98c0-17.12,24.48,18.67,24.48,18.67l21.33-4.67c0,0,7.11-12.16,11.33-12.67
	c6.43-0.77,21.33,14.67,21.33,14.67s8.08-2.93,16.62-5.47c4.47-1.33,12.41,2.78,16.04,2.14c4.86-0.85,14.92,5.84,24,2.67
	c6.4-2.24,14.36-11.92,20.67-14c10.24-3.38,12.88-13.41,16.67-12.67C184.53,148.72,188.46,151.31,188.46,157.98z"/>
</svg>
