<?xml version="1.0" encoding="utf-8"?>
<!-- Generator: Adobe Illustrator 16.0.0, SVG Export Plug-In . SVG Version: 6.00 Build 0)  -->
<!DOCTYPE svg PUBLIC "-//W3C//DTD SVG 1.1//EN" "http://www.w3.org/Graphics/SVG/1.1/DTD/svg11.dtd">
<svg version="1.1" xmlns="http://www.w3.org/2000/svg" xmlns:xlink="http://www.w3.org/1999/xlink" x="0px" y="0px" width="320px"
	 height="320px" viewBox="0 0 320 320" enable-background="new 0 0 320 320" xml:space="preserve">
<g id="Layer_1" display="none">
	
		<image display="inline" overflow="visible" width="1400" height="980" xlink:href="Sandmann/free-fortune-cookie-vector-illustration.jpg"  transform="matrix(0.8435 0 0 0.8435 -427.4502 -444.6299)">
	</image>
</g>
<g id="Layer_2">
	<path fill="#EBAC55" d="M163.08,206.5c-2.88-1.06-11.37,4.58-11.37,4.58s-20.06,40.86-30.19,51.96
		c-4.45,4.88-21.52,15.29-21.52,15.29s1.73,7.98,0,9.67c-4.93,4.83-21.55-0.44-27.25-4.33c-10.84-7.41-26.54-45.33-26.54-45.33
		s-19.46-40.11-21.27-54.67c-2.26-18.18,6.94-55.83,16.7-71.33c11.05-17.56,64.68-52,64.68-52s39.8-36.58,56.67-36.67
		c17.16-0.09,58,36.67,58,36.67l34.67,11.33c0,0,26.15,17.78,31.33,26.67c8.82,15.1,16.03,37.35,16.67,50.67
		c0.8,16.69-6.66,54.54-10.67,66c-5.08,14.52-30.67,53.33-30.67,53.33s-24.79,24.26-35.33,23.33C213.73,290.5,188.33,255,188.33,255
		S175.91,211.24,163.08,206.5z"/>
</g>
<g id="Layer_3">
	<path fill="#CF762A" d="M44.67,234.67c0,0,52.7,31.63,44,44.67c-4.19,6.28-25.64-9.3-26.67-10.39
		C55.45,261.92,44.67,234.67,44.67,234.67z"/>
	<path fill="#CF762A" d="M291.67,197.67c0,0-27.68,44.76-41.33,55.33c-7.89,6.11-30.41,12.45-33.33,22c-0.77,2.52,3.41,8.2,6,8.69
		c10.09,1.9,31.31-22.27,38.42-29.67C280,234.67,291.67,197.67,291.67,197.67z"/>
</g>
<g id="Layer_4">
	<path fill="#F4D29F" d="M243.67,205c4.75,4.12,27.67-25.67,32-57.33c1.76-12.85-8-49.51-16-49.33c-5.54,0.12,5.67,30,4,50.67
		C261.94,170.36,238.67,200.67,243.67,205z"/>
	<path fill="#F4D29F" d="M45.67,217C36,213,32.97,179.89,33,167c0.03-13.19,10.14-39.27,18.67-49.33
		c7.29-8.6,29.27-16.94,38.97-22.67c7.12-4.21,23.03-24,26.36-20c3.32,3.98-15.5,27.66-22.67,35.33
		C84.68,120.67,59.32,136.34,53,149C45.36,164.3,53.52,220.25,45.67,217z"/>
</g>
<g id="Layer_5">
	<g>
		<g>
			<g>
				<g>
					<path fill="#D58745" d="M167.5,52c0.02-0.07,0-0.03-0.03,0.17c0,0,0,0.15,0.01,0.16L167.5,52z"/>
					<path fill="#D58745" d="M167.13,53.33c-0.01,0.25,0.1,0.57,0.27,0.46c-0.12-0.29-0.07-0.33-0.15-0.62
						c0.04-0.2,0.1-0.34,0.13-0.3c0-0.08,0.06-0.32,0.05-0.43c-0.08,0.25-0.21,0.57-0.2,0.94
						C167.17,53.44,167.15,53.36,167.13,53.33z"/>
					<path fill="#D58745" d="M161.04,72.72l0.2-0.11C161.14,72.64,161.07,72.68,161.04,72.72z"/>
					<path fill="#D58745" d="M158.1,85.14c-0.04-0.1-0.23-0.15-0.42-0.17C157.81,85.07,157.92,85.15,158.1,85.14z"/>
					<path fill="#D58745" d="M155.53,87.17c0.07-0.04,0.11-0.08,0.16-0.12C155.49,87.09,155.38,87.13,155.53,87.17z"/>
					<path fill="#D58745" d="M161.04,72.72L160.5,73C160.98,73.08,160.9,72.87,161.04,72.72z"/>
					<path fill="#D58745" d="M167.27,56.24c-0.01-0.08-0.04-0.14-0.08-0.21l0.02,0.18C167.23,56.22,167.25,56.23,167.27,56.24z"/>
					<path fill="#D58745" d="M161.27,67.13l0.03-0.1c-0.13-0.05-0.28-0.1-0.45-0.16L161.27,67.13z"/>
					<path fill="#D58745" d="M162.45,62.98c-0.07,0.09,0.71,0.27,1.04,0.37c-0.31-0.12-0.44-0.21-0.48-0.31
						C162.87,63.02,162.69,62.99,162.45,62.98z"/>
					<path fill="#D58745" d="M165.72,56.8l-0.01-0.13C165.71,56.7,165.71,56.76,165.72,56.8z"/>
					<path fill="#D58745" d="M160.2,70.08c-0.17-0.02-0.33-0.02-0.42-0.02C159.92,70.08,160.06,70.08,160.2,70.08z"/>
					<path fill="#D58745" d="M161.29,188.13c-0.03,0-0.04,0-0.07,0C161.25,188.15,161.27,188.16,161.29,188.13z"/>
					<path fill="#D58745" d="M159.5,193l0-0.07c0-0.01,0-0.01,0-0.01L159.5,193z"/>
					<path fill="#D58745" d="M152.57,91.02c0.02-0.01,0.02-0.01,0.04-0.02C152.41,90.9,152.44,90.96,152.57,91.02z"/>
					<path fill="#D58745" d="M151.57,126.67c2.01-0.33,2.56,0.76,4.79,0.24C155.48,126.94,152.88,126.22,151.57,126.67z"/>
					<path fill="#D58745" d="M167.22,56.33l0,0.18C167.23,56.43,167.23,56.38,167.22,56.33z"/>
					<path fill="#D58745" d="M156.36,126.91c0.01,0,0.02,0,0.02,0l0.21-0.06C156.49,126.88,156.44,126.89,156.36,126.91z"/>
					<path fill="#D58745" d="M152.67,100.13c0.37-0.01,0.65-0.04,0.91-0.07C153.37,100.06,153.11,100.08,152.67,100.13z"/>
					<path fill="#D58745" d="M156.16,93.47l-0.27,0.16C156.07,93.57,156.14,93.52,156.16,93.47z"/>
					<path fill="#D58745" d="M155.38,103.67c-0.17,0.09-0.47,0.11-0.18,0.24c0.11-0.01,0.19-0.02,0.26-0.03
						C155.16,103.83,155.03,103.77,155.38,103.67z"/>
					<path fill="#D58745" d="M155.2,107.27l0.44-0.06c-0.04-0.04-0.08-0.08-0.12-0.12L155.2,107.27z"/>
					<path fill="#D58745" d="M163.92,177.21c-0.3,0.08-0.62,0.12-0.94,0.16C163.71,177.31,163.84,177.84,163.92,177.21z"/>
					<path fill="#D58745" d="M167.1,56.19c0.08,0.04,0.11,0.08,0.12,0.14l-0.01-0.12C167.17,56.19,167.13,56.17,167.1,56.19z"/>
					<path fill="#D58745" d="M172.15,104.13l-0.29,0.57C172.06,104.54,172.16,104.34,172.15,104.13z"/>
					<path fill="#D58745" d="M167.9,151.5l0.21,0.14C168.17,151.58,168.12,151.54,167.9,151.5z"/>
					<path fill="#D58745" d="M172.25,106.41c-0.76,0.09-1.2,0.19-1.48,0.3c0.17,0.03,0.31,0.06,0.56,0.08L172.25,106.41z"/>
					<path fill="#D58745" d="M162.97,177.36c0.01,0,0.01,0,0.01,0S162.98,177.36,162.97,177.36z"/>
					<path fill="#D58745" d="M164.17,181.14c0.2-0.54-0.97-0.26-1.55-0.38c-0.17-0.65,0.87-0.29,1.5-0.51
						c-0.16-0.41-1.16-0.73-1.05-1.03c0.2-0.02,0.29-0.08,0.52-0.01c-0.87-0.44,0.26-1.27-0.94-1.78c0.12-0.04,0.23-0.05,0.34-0.06
						c-0.67,0.07-1.34,0.08-1.81,0.06c0-0.24-0.81-0.46,0.08-0.54c-0.04,0.15,0.31,0.17,0.58,0.24l-0.36-0.26
						c1.3-0.22,0.4,0.35,1.32,0.36c-0.31-0.5-1.33-1.09-0.92-1.47c1.32-0.07,0.31,0.9,1.53,0.4l-0.58,0.59
						c2.06-0.43-0.21,0.36,1.98-0.04c0.57-0.77-0.44-0.87,0.12-1.64c-0.71-0.18-1.12,0.05-1.84-0.14c-1.25-1.12,3.67-0.83,1.96-1.66
						c-0.91-0.22-2.77-0.32-1.7-0.89l1.65,0.22c0.32-0.75-2.38-0.46-1.1-1.23c0.66,0.15,0.48,0.6,0.7,0.49
						c1.46-0.49-0.92-0.37-0.87-0.77l1.58-0.06c-0.08-0.8-1.12-1.7-1.32-2.59c0.5,0.06,1,0.22,1.55,0.02
						c-0.66-1.13,0.57-2.38,1.9-3.44l-1.54-0.44c0.03-0.1,0.76-0.17,1.06-0.06c0.68-0.41-1.03-0.04-1.63-0.25
						c-0.08-0.24,0.99-0.3,1.45-0.14c-1.24-0.76-2.78-2.17-0.85-2.91l0.49,0.16c0.8-0.59-3.5-0.75-1.81-1.29l0.3,0.11
						c0.94-1.3-0.65-2.8,2.32-3.75c-2.7-0.25,1.41-1.28-2.43-1.45c2-0.71,2.66-0.48,4.13-1.51c0.23-0.28-2.41-0.48-2.78-0.84
						l2.08,0.04l-2.14-0.53l2.54-0.19l-0.5-0.34c-0.14,0.13-0.98,0.25-1.58,0.22c-0.9-0.54,1.61-1.21,2.72-1.2l-1.67-1.26
						c0.87,0.05,1.14,0.26,1.67,0.44c-2.12-0.7,2.29-0.06,0.35-0.7c-0.5,0.07-1.29-0.08-1.73-0.1c1.34-0.26,1.45-0.93,0.94-1.44
						l1.51,0.14c0.5-0.89-0.5-1.91-0.36-2.92c-0.76,0.34-3.44,0.18-3.68-0.12l2.4-0.05c-1.46-0.23-0.93,0.28-2.7-0.16
						c0.3-0.37,2.75-0.17,3.5,0.06l-0.78-0.48c0.72-0.01,1.09,0.11,2,0.17c-1.48-0.23,2.51-0.72-0.06-1.07l0.72,0
						c0.14-1-0.66-1.49-0.7-2.31c-2.12-0.08-1.62-0.39-3.32-0.69c0.72-0.58,2.47-1.2,2.34-1.93c-1.04-0.55-1.81-0.21-3.08-0.48
						c1.97,0.03,1.83-0.71,3.22-0.28c-0.25-0.88-0.3-1.13-1.84-2.29c-0.82,0.09-1.19,0.22-1.86,0.12c-0.32-0.21,0.86-0.43,1.82-0.37
						l0.2,0.06c-2.94-1.35,6.04-2.65,1.91-3.79l0.21,0.06l-2.14-1.11c0.37-0.46,1.51,0.34,2.78,0.04c-3.32-1.23,0.59-1.73-1.63-2.72
						c6.06-0.46-0.31-2.52,3.57-3.31l-1.43,0c-1.38-0.3,0.83-0.26,1.16-0.43c-1.1-0.02-1.29,0.21-2.05,0.03
						c-1.65-2.12,2.24-4.3,3.54-6.47c0.38-0.79-7.32-0.67-3.93-1.58l2.62,0.36c-3.13-1.7,0.11-3.31-2.56-4.93
						c0.6,0.11,1.37,0.13,1.37,0.28c1.88-0.29,0.07-1.22-1.46-1.26c0.17-0.24,1.39-0.03,2.16-0.16c1.09-0.31-2.41-0.88-0.55-1.02
						c0.3-0.02,0.61,0.11,0.75,0.17c-0.91-0.24,0.2-1-1.94-0.84c1-0.56-0.98-1.13,0.27-1.58c-2.38-0.35,1.11-0.98-2.24-1.14
						c3.46,0.11,2.74-0.97,1.12-1.37c1.04,0.14,1.06-0.3,2.5-0.13c-0.07-0.42-0.73-0.81-2.47-0.77c4.02-0.69-3.31-1.61,1.84-1.94
						c-1.88-1.28-3.12-2.45-3.92-3.58c3.26,0.12,0.37,1.24,3.81,1.27c-1.43-1.08-4.21-1.76-3.48-2.79c0.42-0.26,1.39,0.19,1.95,0.3
						c-1.37-1.09,0.16-2.02-1.58-3.01c0.29,0.01,0.61,0.12,0.85,0.23c-0.11-0.19,0.43-0.41-0.97-0.44l0.39,0.19
						c-2.05,0.23-4.29-0.88-5.35-0.95c4.01,0.45,1-0.89,6.04-0.21c-0.27-0.13-0.93-0.31-1.86-0.31c0.26-0.17,0.8-0.21,1.86,0.01
						c-0.79-0.69-2.24-0.51-2.23-1.11c0.66,0.03,0.92,0.16,1.71,0.25c-1.31-0.35-2.6-0.71-2.05-1.19c0.4,0.05,0.9,0.01,0.9,0.16
						c-0.25-0.87-3.38-1.63-2.18-2.53c2.74,0.42,0.89-0.28,3.25-0.21l-0.73-0.55l-1.12,0.15c0.01-0.45-1.67-0.93-0.91-1.28
						l0.95,0.39l-0.45-0.86l-0.86,0.43c-1.18-0.52-2.9-0.12-2.24-0.68c0.23,0.14,0.05-0.45,1.38-0.6c0,0,0,0,0.01,0
						c-0.71-0.27-1.45-0.54-0.89-0.84c0.71-0.04,2.44,0.23,2.92,0.2c-1.85-0.34-0.53-1.08-2.45-1.5c0.45,0.12,1.58,0.21,1.81,0.19
						l-1.46-0.29c0.47-0.18,0.69-0.19,1.59-0.09c0.27-0.6-2.71,0-1.53-0.66c0.11,0.07,0.33,0.06,0.54,0.19
						c0.6-0.7-0.86-1.51-0.16-2.14c2.03-0.03,0.5,0.64,2.23,0.55c-0.43-1.01-2.43-2.25-1.92-3.17l-0.22,0.16
						c-2.67-0.4,1.34-0.58,0.1-1.19c0.19,0.14,1.45,0.31,1.15,0.24c0.42-0.61-0.64-1.4-1.36-2.49l0.62,0.2
						c0.56-0.32,0.35-0.97,0.64-1.36c-0.59-0.2-0.48-0.43-1.35-0.39c1.71-0.42,1.23-1.09,0.79-1.76c-0.47-0.66-0.92-1.32,0.33-1.7
						c0,0.14,0.43,0.39,0.44,0.29l-0.42-1.04c-0.83-0.06-0.51,0.05-1.18,0.15c-0.49-0.2-0.82-0.54-0.78-0.78
						c0.48,0.52,1.32,0.21,1.77,0.1c-0.25-0.01-0.52-0.12-0.77-0.14c1.46-0.27-1.59-0.35-0.54-0.88l0.4,0.11
						c-0.18-0.29-0.67-0.62-0.51-0.88c0.87,0.04,0.36,0.35,1.08,0.49c-0.04-0.4-1.51-1.06-0.63-1.27c0.21,0.21,0.18,0.45,0.4,0.66
						c1.02-0.21,0.75-0.3,0.93-0.56l-0.02,0.02l0.46-0.59l-0.26,0.12c-0.99-0.44-1.03-0.7-1-0.97c0.04-0.27,0.14-0.55-0.39-1
						c1.02,0.87,0.64,0.24,1.41,0.45c0.23-0.12,0.48-0.33,0.69-0.22c-0.59-0.44,0.46-0.43-0.37-1.06c0.23,0.03,0.03-0.33,0.59-0.14
						c-0.17-0.45-0.38,0.01-0.66-0.08c-0.36-0.4-0.1-0.72,0.11-1.08c0.21-0.36,0.35-0.78-0.02-1.33c-0.25-0.86-0.73-1.13-0.78-1.9
						c0.26-0.19,0.45,0.32,0.45,0.32c0.27-0.34,0.25-0.65,0.18-1.06c0.09,0.1,0.18,0.05,0.32-0.03c0.01-0.31-0.35-0.3-0.13-0.65
						c0.09,0.1,0.25,0.23,0.36,0.41c-0.07-0.38-0.19-0.78-0.19-1.16c0.15-0.06,0.17,0.28,0.26,0.44c-0.03-0.43-0.02-1.11-0.14-1.28
						l-0.11,0.24c0.02-0.15,0.16-0.03,0.17,0.09c0.1,0.4-0.14,0.49-0.23,0.48l0.01-0.27c-0.23,0.07-0.31,0.32-0.3,0.63
						c0,0.31,0.1,0.67,0.03,0.92l-0.4-0.33c-0.02,0,0.24,0.62,0.26,0.63c-0.15,0.08-0.46,0.08-0.46-0.19
						c-0.36,0.3,0.1,0.37-0.29,0.61c-0.06,0.02-0.08,0-0.09-0.04l0.06,0.4c-0.1-0.1-0.43-0.05-0.28-0.24
						c-0.59,0.54,0.14,1.14-0.44,1.25l-0.02-0.06c-0.04,0.94,0.48,0.21,0.97,1.03l-1.55,0.11l0.57,0.23
						c-0.05,0.09-0.15,0.26-0.39,0.17c0.32,0.44,0.29,0,0.63,0.29c-0.73,0.31,0.03,1.29-1.13,1.15c0.51,0.28,0.52-0.33,0.79,0.22
						c-1.29-0.13,0.09,0.6-0.59,0.88c-0.66-0.27-0.17-0.57-0.91-0.3c1.1,0.48-0.5,0.73-0.4,1.12c1.01,0.21,0.2,0.83,0.41,1.47
						c-0.36-0.1-0.88,0.98-1.48,1.44l-0.2-0.05c1.2,0.31,0.84,0.83,1.01,1.28c-0.78-0.14-1.07-0.27-1.35-0.54l-0.11,0.38
						c0.39,0.16,0.58,0.31,0.67,0.58L161,67.36c-0.11,0.52,0.91,1.21,0.06,1.76c1.02,0.18,2.86-0.11,3.46,0.68
						c-0.55-0.05-1.5-0.16-1.69-0.38c0.06,0.07,0.42,0.28,0.17,0.36l-0.88-0.41c-0.47,0.24,0.74,0.27,0.62,0.49
						c-0.79-0.12-0.6,0.1-1.23-0.03c-0.06-0.07,0.37-0.16,0.08-0.3c-0.2,0.25-0.75,0.51-1.39,0.53c0.47,0.04,1.09,0.15,1.15,0.36
						c-0.05,0.52-1.03,0.04-1.53,0.28c0.55,0.2-0.15,0.45,1.12,0.62c-0.04,0.15-0.64,0.1-1,0.11c0.5,0.34-0.14,1.26,1.34,1.14
						l-0.11-0.06c0.02,0.02-0.17,0.03-0.17,0.05v0v0c1,0.51,0.55,0.94,0.18,1.36c-0.36,0.42-0.74,0.83-0.51,1.29l-0.43-0.05
						c0.47,0.58,0.15,1.19,1.18,1.66c-0.02,0.15-0.97,0.27-1.56,0.15c0.31,0.43,0.9,0.53-0.04,1.03c-0.85-0.48-0.83,0.07-0.6-0.47
						c-0.53,0.48-1.41,0.52-0.06,1.2c-1.32-0.31-1.79,0.24-1.43,0.53l1.05-0.28c0.15,0.29-0.01,0.53-0.17,0.76l-1.81-0.28
						c-1.23,0.44-0.39,1,0.31,1.51c0.69,0.51,1.25,0.96-0.79,1.23c1.31,0.37,1.04-0.51,2.58-0.15c-0.31,0.47-3.2,0.79-3.24,0.95
						c-1.23,0.6,2.79,0.81,1.94,1.47c0.73-0.05,2.65-0.01,3.29,0.54c-0.3,0.47-3.12,0.42-3.66,0.08c-0.04-0.12,0.19-0.16,0.44-0.15
						c-0.24-0.17-0.52-0.4-1.33-0.25l0.71,0.11c-0.78,0.2-0.81,0.88-1.99,0.66c0.64,0.41,1.18,0.22,1.6-0.03
						c-1.17,0.57-0.17,0.98-0.99,1.59c0.43-0.08,1.32-0.13,1.3-0.03c-1.05,0.9,1.38,0.49,1.65,1.14c-1.21,0.31-2.77-0.26-1.87,0.43
						c-0.85,0.36-2.06-0.01-2.66-0.2c1.4,0.66-1.15,1.07-1.49,1.4l-0.58-0.34c0.34,0.2,0.31,0.36,0.27,0.51l1.6-0.12
						c-0.3,0.17-0.33,0.33-0.98,0.3c1,0.23,2.64-0.04,4.01,0.39c-0.84,0.21,0.79,0.77-1.33,0.78c0.81-0.74-2.14,0-2.39-0.66
						c0.23,0.13,0.2,0.29-0.11,0.46c-0.24,0.02-0.44-0.04-0.55-0.1c-2.01,0.67,2.35,0.43,2.21,1.18c-1.2-0.14-2.32,0.1-2.08,0.23
						c0.07-0.31,2.04-0.08,2.94,0.24c-1,0.45,0.65,0.55,0.52,0.8l0.48-0.28c1.21,0.14,1.04,0.38,1.4,0.72
						c-0.96,0-0.63-0.33-1.07-0.22c2.15,0.44-2.32,0.78-0.91,1.35c-0.87,0.22-2.35-0.04-2.94,0.15c1.56,0.63-1.8,0.59-0.52,1.24
						c1.73-0.13,1.3-0.17,2.93,0.3l-1.1-1.04l2.41,0.72c0.04-0.3-1.02-0.67-0.71-0.85c1.35,0.35,0.94,0.3,2.35,0.2
						c-2.57,0.35,1.43,0.86-0.31,1.3l-4.24-0.12c-1.98,0.68,2.06,1.35,0.92,2.26l0.77-0.29c1.71,0.17,0.2,0.59,0.88,0.91
						c-1.45-0.06-1.99,0.12-2.9,0.23c1.08,0.01-0.16,0.69,2.76,0.83l-1.96,0.38c-0.86,0.74,4.14,0.95,3.61,1.67
						c-1.6-0.25-2.67,0.06-3.8-0.45c-0.03,0.24-0.32,0.46,0.71,0.48c-0.95,0.12,1.96,0.71,0.53,0.91c0.65,0.11,2.22,0.18,2.08,0.45
						c-0.31,0.02-0.74-0.01-0.74-0.01c0.74,0.01,0.99,0.44,2.66,0.24c-4.72,0.66,0.27,2.09-3.81,2.67c0.48,0.54,0.95,1.19,1.04,1.66
						c-0.45-0.04-0.76-0.02-0.6-0.1c-1.46,0.63,4.4,0.49,2.78,1.21c-2.51,0.33-1.34-0.43-2.29-0.21c-5.08,0,0.65,0.92-2.34,1.36
						l-0.29-0.13c-1.75,0.35,1.89,0.98,1.5,1.6c0,0-0.45-0.04-0.77-0.02c2.59,0.49,3.43,1.33,4.14,1.95
						c-2.01-0.24-1.05-0.3-3.11-0.24c0.28,0.28,3.29,0.01,3.85,0.57c-1.11,0.15-2.09,0.51-4.28,0.5l-0.1-0.51
						c-2.84,0.18,0.07,0.66-0.43,0.91l-1.24-0.07c0.37,0.79,3.5,0.9,3.24,1.73l0.95-0.06c3.08,0.56-1.76,0.33,0.53,0.86l-3.15,0.03
						c0.75,0.33,3,1.17,3.58,1.74c-2.33-0.4-3.49-1.08-4.86-1.51c-0.04,0.3,0.18,1.02,1.73,1.23c-0.3-0.13-1.06-0.31-0.58-0.41
						c2.46,0.46,3.66,0.99,3.59,1.59c-6.11-0.37-1.59,1.5-6.36,1.75c2.23,1.17-1.02,2.09-0.68,3.36c4.75-0.26,0.13,0.37,5,0.49
						c0.3,0.3,0.22,0.41-0.1,0.42l-2.92,0.77c-1.42,0.16-1.07-0.32-2.16-0.33c-0.38,0.62-2.06,0.19-3.36,0.56
						c1.74-0.02,2.49,0.32,1.82,0.66l2.24-0.43c2.57,0.99-4.07,0.62-1.52,1.61l-1.52-0.34c0.89,0.5-0.02,1.7,3.84,2.3
						c-0.56,0.06-1.87,0.12-2.22-0.09c-0.57,1.08,4.09,2.6,1.73,3.37l-1.16-0.12c0.34,0.22,2.18,0.43,1.02,0.65
						c-0.48-0.03-1.16-0.12-1.23-0.03c0.4,0.12,2.03,0.62,1.36,0.87l-1.3-0.28c-1.48,1.03,3.18,1.76,3.96,2.68
						c-3.36-0.11-4.43,0.7-4.95,1.11l-0.47-0.03c-0.35,1.24,2.83,2.22,4.12,3.41c-3.5,0.62-1.4,2.4-3.27,3.5
						c0.56-0.16,2.46,0.1,2.78,0.31c-0.62,0.26,2.2,0.81-0.67,0.69l0.05-0.1c-2.81,0.13-2.01,0.71-2.06,1.14l3.71,0.17
						c-2.67,0.5-2.12,1.26-1.53,1.96c0.6,0.7,1.22,1.33-1.07,1.58c0.91,0.3,0.93,0.64,1.82,0.93l-1.89-0.06
						c-0.42,0.75-0.61,1.13-0.09,2.08l-1.33-0.22c-0.05,0.53,5.33,0.79,5.44,1.28l-2.68,0.09c0.09,0.93-2.07,1.82,0.39,2.78
						c-0.38-0.02-1.13-0.06-1.25-0.22c-0.02,0.44-1.47,1.66,1.94,1.56c-2.24-0.03-0.1,0.95,0.89,1.47l-1.62-0.11
						c2.1,0.46,2.65,0.48,3.25,1.08c-0.2,0.14-1.25,0.1-0.86-0.08c-0.78,0.45,1.51,0.39,0.71,0.94l-1-0.23
						c-0.08,0.48,0.45,0.45,1.6,0.73c0.63,0.31-0.34,0.9-1.67,0.95c0.83,0.08,1.94,0.36,1.57,0.63c-0.5,0.03-0.82-0.08-0.98-0.13
						c-0.91,0.79,1.77,1.21,0.41,1.74c-0.47,0-0.7,0.04-0.83,0.08c-0.04-0.64,0-1.15,0.1-1.1c-1.34-0.02-1.49,0.49-3.4,0.05
						c1.09,0.43,3.31,1.17,2.76,1.66c-0.12,0.02-0.24,0.04-0.43,0.06l-0.15-0.05c-0.11,0.11,0.02,0.22,0.25,0.32
						c-0.19,0.16-0.32,0.26-0.32,0.41c-1.02,0.04-0.46,0.58-0.47,0.84c1.33,0,1.16,0.33,2.22,0.03c-0.09,0.04-0.17-0.05-0.24-0.22
						c-0.04-0.04-0.07-0.08-0.15-0.11c0.04,0.01,0.08,0.01,0.12,0.02c-0.06-0.17-0.11-0.39-0.16-0.64c0.72,0.21,1.31,0.43,0.59,0.7
						c0.88,0.14,1.76,0.3,2.18,0.39c-1.85,0.32-2.73,0.99-3.81,1.07c0.83,0.79,0.78,1.85,3.04,2.37c0.3,0.23-0.61,0.25-0.94,0.33
						c-0.23-0.13-0.22-0.28-0.55-0.36c0.62,0.45,0.39,1.32,1.86,1.44c-0.61,0.55-1.38-0.33-1.06,0.44l-0.45-0.11
						c-1.03,0.75,0,1.37,0.82,2.01c0.85,0.64,1.46,1.3,0.34,2.13c0.13-0.12,0.2-0.17,0.39-0.19c-0.43,0.95-0.05,1.94,0.18,2.92
						c0.25,0.98,0.35,1.96-0.05,2.9c-0.13,0.53,0.34,0.59,0.7,0.92l-0.53,0.11c0,0,0.17,0.14,0.34,0.28
						c0.16,0.14,0.32,0.28,0.32,0.28c0.23,0.4-0.05,0.74-0.21,1.11c-0.18,0.37-0.23,0.76,0.13,1.27l0.21-0.13
						c0,0.36,0.22,1.14,0.01,1.08c0.04,0.04,0.18,0.12,0.11,0.26l-0.12,0.01c0,0,0.08,0.22,0.15,0.44c0.07,0.22,0.12,0.44,0.12,0.44
						c0.03,0.69-0.35-0.11-0.11,0.89c0.15,0.37,0.3,1.06,0.26,0.92c-0.02-0.15-0.04-0.38-0.01-0.39l0.02,0.34
						c0.04,0.06-0.12,0.32,0.21-0.51c0.01,0,0.13-0.58,0.11-0.58l0.14-0.19l-0.16,0.49c0.16-0.28,0.18-0.45,0.17-0.65
						c0.07-0.05,0.13-0.13,0.2-0.24c0.02,0-0.07-0.57-0.09-0.57c0.15-0.07,0.15,0.26,0.35-0.13c-0.07-0.27-0.35,0.26-0.34-0.19
						c0.22-0.28,0.36-0.2,0.29-0.52c0.12-0.04,0.17,0.02,0.17,0.15c-0.04-0.29,0.19-0.77-0.04-0.92c0.37-0.29,0.15-0.98,0.71-0.95
						c-0.1-0.09-0.33-0.51-0.3-0.78c0.67,0.49,0.29-1,1.21-0.87c-0.7-0.36,0.04-1.3-0.34-1.94c0.07,0.04,0.22,0.11,0.15,0.16
						c0.17-0.36,0.51-0.46,0.79-0.69c-0.86-0.05-0.94-0.61-1.49-0.92c1.02-0.43,1.07,0.27,1.97,0.14c-0.76,0.02-0.56-0.77-1.28-0.62
						c0.67-0.33,0.35-0.29,1.25-0.46c-1.29-0.07-0.14-0.31-0.89-0.6c0.77-0.48,1.32-0.12,1.03-0.65
						C163.81,180.66,164.17,181.14,164.17,181.14z M163.49,168.41c0.01,0,0.02,0,0.03,0c0.02,0.11,0.04,0.2,0.05,0.26
						C163.56,168.62,163.54,168.54,163.49,168.41z M163.59,167.35c-0.07,0.13-0.1,0.29-0.11,0.46c-0.49,0.03-1-0.02-0.96-0.13
						C162.85,167.75,163.16,167.5,163.59,167.35z M153.95,169.47c-0.22-0.17,0.04-0.23,0.31-0.25c0.04,0.08,0.09,0.17,0.21,0.3
						c0.05,0.01,0.11,0.01,0.17,0.02C154.38,169.53,154.14,169.51,153.95,169.47z"/>
					<path fill="#D58745" d="M155.76,169.8c0.03,0.03,0.09,0.04,0.1,0.07c0.12-0.03,0.21-0.06,0.29-0.1
						c-0.15-0.02-0.29-0.04-0.43-0.07C155.74,169.74,155.75,169.78,155.76,169.8z"/>
					<path fill="#D58745" d="M161.27,72.6l-0.04,0.02c0.06-0.01,0.11-0.02,0.19-0.03C161.35,72.59,161.33,72.59,161.27,72.6z"/>
					<polygon fill="#D58745" points="168.69,152.7 168.21,152.69 168.61,152.8 					"/>
					<path fill="#D58745" d="M165.9,67.3c0.09,0,0.17,0,0.25-0.04C166.09,67.26,166,67.28,165.9,67.3z"/>
					<path fill="#D58745" d="M166.24,64.81l0.32-0.3C166.39,64.63,166.3,64.73,166.24,64.81z"/>
					<path fill="#D58745" d="M166.76,62.95c-0.13-0.05-0.22-0.08-0.31-0.1c0,0,0,0-0.01,0L166.76,62.95z"/>
					<path fill="#D58745" d="M169.15,93.76c0.02,0.03,0.04,0.05,0.09,0.08C169.63,94.02,169.48,93.9,169.15,93.76z"/>
					<path fill="#D58745" d="M164.67,84.41c0.3,0.12,0.6,0.23,0.8,0.34C165.6,84.6,165.63,84.48,164.67,84.41z"/>
					<path fill="#D58745" d="M172.19,104.07c-0.02,0-0.02,0-0.04,0c0.01,0.02,0,0.04,0,0.06L172.19,104.07z"/>
					<path fill="#D58745" d="M165.44,85.18c0.34-0.14,0.26-0.28,0.03-0.42C165.36,84.88,165.18,85.03,165.44,85.18z"/>
					<path fill="#D58745" d="M167.41,54.47l0.01-0.09c-0.01,0-0.02-0.01-0.03-0.02L167.41,54.47z"/>
					<path fill="#D58745" d="M167.39,54.36l-0.01-0.11C167.37,54.3,167.37,54.34,167.39,54.36z"/>
					<path fill="#D58745" d="M167.35,54.01l0.02,0.24C167.38,54.17,167.39,54.08,167.35,54.01z"/>
					<path fill="#D58745" d="M167.1,57.06l0.13,0.06C167.21,57.1,167.16,57.08,167.1,57.06z"/>
					<path fill="#D58745" d="M167.09,57.86c0.05-0.18,0.33-0.4,0.24-0.69l-0.11-0.05C167.44,57.3,166.86,57.62,167.09,57.86z"/>
					<path fill="#D58745" d="M164.09,60.53l0.38-0.6c-0.26,0.06-0.63,0.13-0.57-0.16C162.9,60.41,164.46,59.72,164.09,60.53z"/>
					<path fill="#D58745" d="M163.06,62.43c-0.01-0.37-0.42-0.08-0.58-0.13C162.66,62.57,162.72,62.64,163.06,62.43z"/>
					<path fill="#D58745" d="M159.33,77.11l-1.31-0.16C158.15,77.24,158.54,77,159.33,77.11z"/>
					<polygon fill="#D58745" points="166.18,80.54 167.05,80.35 165.76,80.12 					"/>
					<polygon fill="#D58745" points="155.72,81.44 155.54,81.3 155.98,81.8 					"/>
					<path fill="#D58745" d="M153.31,106.6l2.43-0.04C155.32,106.37,152.6,106.28,153.31,106.6z"/>
					<path fill="#D58745" d="M155.33,117.29c-1.26,0.08-2.08,0.34-0.86,0.57C154.66,117.63,155.64,117.42,155.33,117.29z"/>
					<polygon fill="#D58745" points="151.43,149.43 150.68,149.19 151.32,149.62 					"/>
				</g>
			</g>
		</g>
	</g>
</g>
</svg>
