<?xml version="1.0" encoding="utf-8"?>
<!-- Generator: Adobe Illustrator 16.0.0, SVG Export Plug-In . SVG Version: 6.00 Build 0)  -->
<!DOCTYPE svg PUBLIC "-//W3C//DTD SVG 1.1//EN" "http://www.w3.org/Graphics/SVG/1.1/DTD/svg11.dtd">
<svg version="1.1" xmlns="http://www.w3.org/2000/svg" xmlns:xlink="http://www.w3.org/1999/xlink" x="0px" y="0px"
	 width="457.46px" height="259.49px" viewBox="0 0 457.46 259.49" enable-background="new 0 0 457.46 259.49" xml:space="preserve">
<g id="Layer_5" display="none">
	<polyline display="inline" fill="#F15E27" points="-123.02,-96 -199.51,91.2 -161.26,331.48 64.37,340.48 370,340.48 
		613.94,349.48 641.95,299.99 631.45,75 641.95,-104.99 238.67,-90 -13.25,-104.99 	"/>
</g>
<g id="Layer_4" display="none">
	<g display="inline">
		<path fill="#F15E26" d="M-61.5,34.72c0,0-0.19-0.52-0.54-1.5c-0.17-0.49-0.39-1.1-0.64-1.81c-0.12-0.36-0.26-0.74-0.4-1.15
			c-0.16-0.38-0.33-0.79-0.52-1.22c-0.36-0.85-0.75-1.78-1.19-2.8c-0.47-1.01-0.99-2.1-1.54-3.27c-1.13-2.3-2.56-4.81-4.19-7.43
			c-0.8-1.31-1.76-2.61-2.67-3.97c-0.5-0.65-1-1.32-1.51-2c-0.5-0.67-1.01-1.35-1.59-2c-2.18-2.68-4.7-5.27-7.38-7.78
			c-2.72-2.49-5.69-4.81-8.76-7.01c-3.15-2.12-6.39-4.12-9.76-5.84c-3.39-1.71-7.05-2.86-10.65-3.72c-1.82-0.4-3.58-0.81-5.33-1.16
			c-0.86-0.22-1.71-0.42-2.56-0.61c-0.85-0.2-1.67-0.45-2.48-0.69c-1.65-0.42-3.2-1.04-4.76-1.58c-0.78-0.27-1.53-0.62-2.29-0.92
			c-0.76-0.3-1.52-0.6-2.26-0.92c-1.49-0.65-2.97-1.2-4.41-1.86c-1.45-0.57-2.86-1.22-4.25-1.81c-2.77-1.18-5.41-2.37-7.85-3.48
			c-1.21-0.51-2.38-1.07-3.47-1.59c-1.1-0.51-2.12-0.95-3.07-1.43c-1.89-0.95-3.44-1.62-4.53-2.25c-1.08-0.56-1.69-0.93-1.69-0.93
			l-0.46-2.96c0,0,0.48-0.51,1.42-1.34c0.94-0.84,2.35-2.07,4.26-3.27c0.95-0.63,2.03-1.26,3.23-1.94c1.2-0.6,2.52-1.25,3.96-1.86
			c0.72-0.34,1.47-0.6,2.24-0.86c0.78-0.27,1.58-0.56,2.42-0.82c1.67-0.55,3.44-0.9,5.31-1.32c1.87-0.37,3.84-0.59,5.89-0.81
			c1.02-0.05,2.07-0.12,3.13-0.14c1.06-0.04,2.14-0.05,3.23,0.01c4.38,0.1,8.98,0.82,13.51,2.33c4.52,1.56,8.89,3.99,13,6.86
			c4.1,2.91,8.04,6.05,11.89,9.2c3.81,3.21,7.41,6.63,10.61,10.28c3.19,3.67,5.95,7.56,8.36,11.43c1.12,2.01,2.28,3.91,3.2,5.9
			c0.48,0.98,0.97,1.94,1.4,2.9c0.41,0.98,0.81,1.94,1.21,2.9c0.41,0.94,0.75,1.9,1.08,2.84c0.33,0.94,0.65,1.86,0.97,2.77
			c0.52,1.86,1.07,3.62,1.47,5.34c0.83,3.44,1.31,6.62,1.64,9.42c0.13,1.4,0.25,2.71,0.37,3.92c0.03,1.23,0.06,2.36,0.09,3.38
			c0.01,0.5,0.02,0.98,0.03,1.43c-0.02,0.43-0.03,0.84-0.05,1.21c-0.03,0.75-0.06,1.39-0.08,1.91c-0.05,1.04-0.08,1.6-0.08,1.6
			L-61.5,34.72z"/>
	</g>
	<g display="inline">
		<g>
			<path fill="#F15E26" d="M-59,48.36c-23.95-21.57-61.82-18.26-91.02-11.86c-7.29,1.6-6.07,21.33,0,20
				c14.79-3.24,29.92-5.01,45.07-4.39c14.24,0.58,29.98,3.69,40.9,13.52C-57.15,71.84-54.31,52.58-59,48.36L-59,48.36z"/>
		</g>
	</g>
	<g display="inline">
		<g>
			<path fill="#F15E26" d="M-35.52,61.5c0.04-15.63,1.13-31.55,8.29-45.8C-19.41,0.12-4.28-9.06,11.81-14.36
				c6.13-2.02,4.89-21.77-2.66-19.29C-9.56-27.48-25.07-16.08-34.31,1.55c-9.51,18.17-11.16,39.81-11.21,59.94
				c-0.01,2.83,0.84,10,5,10C-36.35,71.5-35.53,64.33-35.52,61.5L-35.52,61.5z"/>
		</g>
	</g>
	<g display="inline">
		<g>
			<path fill="#F15E26" d="M-36.2-21.55c-1.94-7.32-3.37-15.57-3.46-21.85c-0.08-5.87,0.36-9.39,3.46-14.97
				C-28.81-71.68-9-72.17,4.48-71c6.7,0.58,7.2-19.38,0-20c-18.69-1.62-38.34,1.54-48.18,19.25c-9.94,17.89-6.1,41.56-1.14,60.3
				c0.78,2.96,3.88,7.06,6.84,3.59C-34.97-11.41-35.08-17.33-36.2-21.55L-36.2-21.55z"/>
		</g>
	</g>
	<g display="inline">
		<g>
			<path fill="#F15E26" d="M-35.7-36.34c1.49-19.02-2.65-36.53-11.79-53.23c-1.92-3.51-5.19-3.75-7.07,0
				c-2.01,4.02-2.19,10.14,0,14.14c5.72,10.44,10.17,21.64,9.21,33.77c-0.29,3.7-0.43,10.14,3.49,12.3
				C-38.06-27.27-35.9-33.83-35.7-36.34L-35.7-36.34z"/>
		</g>
	</g>
	<g display="inline">
		<g>
			<path fill="#F15E26" d="M-36.2-69.54c-1.39-3.77-1.28-4.58,1.77-7.96c3.69-4.09,9.67-5.36,14.91-5.49c7.07-0.17,6.93-20.17,0-20
				C-29-102.77-37.6-98.7-42.66-90.5c-5.59,9.07-5.8,21.23-2.18,31.05c1.02,2.76,3.74,7.22,6.84,3.59
				C-35.16-59.18-34.74-65.58-36.2-69.54L-36.2-69.54z"/>
		</g>
	</g>
	<g display="inline">
		<g>
			<path fill="#F15E26" d="M-31.69-42.85c11.35-5.6,25.83-11.44,37.84-4.5c6.3,3.64,8.54-15.89,2.66-19.29
				c-13.72-7.93-30.1-1.94-43.16,4.5C-40.37-59.17-38.44-39.53-31.69-42.85L-31.69-42.85z"/>
		</g>
	</g>
	<g display="inline">
		<g>
			<path fill="#F15E26" d="M-18.02-38c12.3-1.69,23.57-6.29,34.33-12.36c5.91-3.33,3.71-22.88-2.66-19.29
				C3.69-64.02-6.62-59.57-18.02-58C-25.28-57-24.5-37.11-18.02-38L-18.02-38z"/>
		</g>
	</g>
	<g display="inline">
		<g>
			<path fill="#F15E26" d="M-28.69-45.85c12.53-10.41,30.24-8.56,45.17-5.64c6.2,1.21,7.29-18.58,0-20
				c-15.7-3.06-34.67-4.57-47.83,6.36c-3.51,2.92-4.09,7.99-3.49,12.3C-34.6-51.06-32.18-42.96-28.69-45.85L-28.69-45.85z"/>
		</g>
	</g>
	<g display="inline">
		<g>
			<path fill="#F15E26" d="M113.5-73.13c-4.23-5.85-6.82-12.78-9.49-19.44c-1.57-3.92-5.38-3.39-7.07,0
				c-2.19,4.39-1.77,9.72,0,14.14c3.17,7.92,6.48,15.62,11.51,22.56c2.78,3.84,6.08-0.98,6.84-3.59
				C116.59-63.88,116.26-69.31,113.5-73.13L113.5-73.13z"/>
		</g>
	</g>
	<g display="inline">
		<g>
			<path fill="#F15E26" d="M119.5-85.13c-1.37-2.09,0.23,1.58-0.22,3.25c-0.01,0.04,1.46-1.64,1.92-2.01
				c3.09-2.51,6.88-3.48,10.78-3.6c7.08-0.21,6.91-20.21,0-20c-20.72,0.62-27.97,23.7-17.52,39.63c2.64,4.02,6.13-1.15,6.84-3.59
				C122.64-76.04,122.12-81.13,119.5-85.13L119.5-85.13z"/>
		</g>
	</g>
	<g display="inline">
		<g>
			<path fill="#F15E26" d="M143.8-71.35c13.01-6.88,25.76-4.78,37.84,3c5.94,3.83,8.4-15.59,2.66-19.29
				c-13.6-8.77-28.6-10.7-43.16-3C135.17-87.48,137.24-67.88,143.8-71.35L143.8-71.35z"/>
		</g>
	</g>
	<g display="inline">
		<g>
			<path fill="#F15E26" d="M187.47-33.5c20.31-4.27,40.97-6.1,61.5-9c7.27-1.02,6.46-20.91,0-20c-20.52,2.9-41.19,4.73-61.5,9
				C180.18-51.96,181.35-32.21,187.47-33.5L187.47-33.5z"/>
		</g>
	</g>
	<g display="inline">
		<g>
			<path fill="#F15E26" d="M276.5-28.07c-5.73-13.97-8.66-27.65,6.79-35.78c5.97-3.14,3.92-22.75-2.66-19.29
				c-25.69,13.53-20.36,46.9-11.21,69.21c1.6,3.89,5.36,3.42,7.07,0C278.68-18.29,278.3-23.68,276.5-28.07L276.5-28.07z"/>
		</g>
	</g>
	<g display="inline">
		<g>
			<path fill="#F15E26" d="M276.29-40.84c1.07-6.05,3.14-11.71,7.26-16.33c4.91-5.51,12.41-6.73,19.41-6.32
				c6.81,0.4,7.15-19.58,0-20c-9.44-0.55-17.83,2.23-24.46,9.05c-7.2,7.41-10.12,18.44-11.86,28.29c-0.63,3.57-0.21,10.26,3.49,12.3
				C274.07-31.69,275.86-38.42,276.29-40.84L276.29-40.84z"/>
		</g>
	</g>
	<g display="inline">
		<g>
			<path fill="#F15E26" d="M291.29-52.84c1.1-7.28,3.19-13.34,10.01-17.01c5.95-3.21,3.85-22.79-2.66-19.29
				c-11.47,6.18-15.17,18.92-16.99,30.98c-0.54,3.61-0.27,10.23,3.49,12.3C289.03-43.71,290.92-50.39,291.29-52.84L291.29-52.84z"/>
		</g>
	</g>
	<g display="inline">
		<g>
			<path fill="#F15E26" d="M323.78-69.54c-2.35-6.83,1.6-11.7,7.51-15.31c5.82-3.54,3.47-23.02-2.66-19.29
				c-15.13,9.22-19.02,28.61-13.49,44.69c0.97,2.81,3.77,7.18,6.84,3.59C324.87-59.24,325.17-65.52,323.78-69.54L323.78-69.54z"/>
		</g>
	</g>
	<g display="inline">
		<g>
			<path fill="#F15E26" d="M318.5-61.92c5.65-9.33,16.69-14.28,26.29-18.43c6.09-2.63,4.41-22.34-2.66-19.29
				c-12.29,5.31-23.6,11.84-30.71,23.57c-2.32,3.83-1.94,10.26,0,14.14C313.37-58.04,316.46-58.56,318.5-61.92L318.5-61.92z"/>
		</g>
	</g>
	<g display="inline">
		<g>
			<path fill="#F15E26" d="M335.49-69.36c8.78-8.36,21.91-10.65,33.47-12.13c7.25-0.93,6.52-20.84,0-20
				c-13.89,1.79-28.08,4.92-38.52,14.86C325.87-82.28,328.81-63.01,335.49-69.36L335.49-69.36z"/>
		</g>
	</g>
	<g display="inline">
		<g>
			<path fill="#F15E26" d="M362.79-74.35c8.41-6.74,17.92-9.99,28.67-10.14c7.04-0.1,6.96-20.1,0-20
				c-11.48,0.17-22.33,3.64-31.33,10.86c-3.54,2.84-4.08,8.05-3.49,12.3C356.89-79.5,359.26-71.52,362.79-74.35L362.79-74.35z"/>
		</g>
	</g>
	<g display="inline">
		<g>
			<path fill="#F15E26" d="M389.79-75.85c3.44-2.18,8.16-4.21,12.34-3c4.12,1.19,5.7-3.72,6.15-6.98c0.35-2.55,0.22-5.23-0.5-7.71
				c-0.38-1.31-1.4-4.14-2.99-4.6c-6.16-1.78-12.28-0.42-17.66,3c-3.72,2.36-4.02,8.45-3.49,12.3
				C383.94-80.6,386.02-73.46,389.79-75.85L389.79-75.85z"/>
		</g>
	</g>
	<g display="inline">
		<g>
			<path fill="#F15E26" d="M341,19.07c2.5-6.04,6.24-9.72,12.79-12.43c6.11-2.53,4.5-22.25-2.66-19.29
				c-8.1,3.35-13.87,9.5-17.21,17.57c-1.81,4.38-2.18,9.79,0,14.14C335.64,22.5,339.39,22.95,341,19.07L341,19.07z"/>
		</g>
	</g>
	<g display="inline">
		<g>
			<path fill="#F15E26" d="M350.79,12.64c1.55-0.96,2.63-1.36,4.47-1.23c0.67,0.05,0.4,0.03,1.29,0.52c0.58,0.4,0.58,0.39,0.02-0.03
				c0.5,0.62,0.45,0.51-0.14-0.32c0.74,1.32,1.79,2.93,3.54,2.93c1.69,0,2.87-1.59,3.54-2.93c1.99-3.98,2.23-10.19,0-14.14
				c-1.67-2.97-3.77-4.98-7.11-5.79c-2.83-0.69-5.83,0.22-8.25,1.72c-3.73,2.3-4.02,8.5-3.49,12.3
				C344.95,7.94,347,14.98,350.79,12.64L350.79,12.64z"/>
		</g>
	</g>
	<g display="inline">
		<g>
			<path fill="#F15E26" d="M356.79,6.64c10.65-4.53,21.43-8.32,33.17-7.14c6.64,0.67,7.22-19.27,0-20
				c-12.52-1.26-24.48,3.03-35.83,7.86C348.03-10.05,349.69,9.66,356.79,6.64L356.79,6.64z"/>
		</g>
	</g>
	<g display="inline">
		<g>
			<path fill="#F15E26" d="M380.96-6.5c3.8,0.08,7.26,0.99,10.67,2.64c6.8,3.29,8.69-16.37,2.66-19.29c-4.13-2-8.73-3.26-13.33-3.36
				c-4.16-0.09-5,7.24-5,10C375.96-13.59,376.78-6.59,380.96-6.5L380.96-6.5z"/>
		</g>
	</g>
	<g display="inline">
		<g>
			<path fill="#F15E26" d="M393.98-10.86c2.86-4.35,4.94-9.39,9.31-12.49c3.64-2.58,4.05-8.27,3.49-12.3
				c-0.28-2.05-2.49-9.58-6.15-6.98c-2.68,1.9-4.85,4.19-6.76,6.85c-1.02,1.42-1.94,2.92-2.89,4.39c-0.45,0.71-0.89,1.42-1.33,2.13
				c0.09-0.15-1.35,2.11-0.71,1.14c-2.63,4-3.14,9.09-1.79,13.68C387.85-12.02,391.34-6.84,393.98-10.86L393.98-10.86z"/>
		</g>
	</g>
	<g display="inline">
		<g>
			<path fill="#F15E26" d="M398.79-26.36c6.24-3.12,12.36-6.36,18-10.5c3.62-2.66,4.06-8.2,3.49-12.3
				c-0.27-1.99-2.52-9.65-6.15-6.98c-5.64,4.14-11.76,7.38-18,10.5C390.12-42.63,392.08-23,398.79-26.36L398.79-26.36z"/>
		</g>
	</g>
	<g display="inline">
		<g>
			<path fill="#F15E26" d="M407.78-59.04c0.81,2.82,0.64,6.45-1.04,8.93c0.18-0.25,0.38-0.48,0.59-0.7c1.02-1.15-1.01,0.7,0.27-0.25
				c1.4-1.04,3.06-1.72,4.69-2.28c1.61-0.56,2.58-3.2,2.99-4.6c0.72-2.47,0.85-5.16,0.5-7.71c-0.42-3.08-2.07-8.4-6.15-6.98
				c-3.02,1.05-5.94,2.7-7.95,5.25c-3.96,5.06-4.26,12.48-2.54,18.43c0.84,2.92,3.85,7.09,6.84,3.59
				C408.97-48.86,408.98-54.88,407.78-59.04L407.78-59.04z"/>
		</g>
	</g>
	<g display="inline">
		<g>
			<path fill="#F15E26" d="M404.79-63.85c2.42-1.12,4.93-1.14,7.67-1.14c4.17,0,5-7.16,5-10c0-2.83-0.83-10-5-10
				c-3.58,0-7.04,0.33-10.33,1.86C396.07-80.32,397.89-60.65,404.79-63.85L404.79-63.85z"/>
		</g>
	</g>
	<g display="inline">
		<g>
			<path fill="#F15E26" d="M403.46-81.5c2,0,4,0,6,0c1.69,0,2.87-1.59,3.54-2.93c1.08-2.16,1.46-4.68,1.46-7.07
				s-0.38-4.91-1.46-7.07c-0.67-1.33-1.85-2.93-3.54-2.93c-2,0-4,0-6,0c-1.69,0-2.87,1.59-3.54,2.93c-1.08,2.16-1.46,4.68-1.46,7.07
				s0.38,4.91,1.46,7.07C400.59-83.09,401.77-81.5,403.46-81.5L403.46-81.5z"/>
		</g>
	</g>
	<g display="inline">
		<g>
			<path fill="#F15E26" d="M310.96-67.5c0.07-3.12-0.27,1.92,0.12-1.2c0.16-1.29,0.4-2.57,0.61-3.86c0.46-2.79,0.7-5.61,0.77-8.44
				c0.06-2.83-0.87-10-5-10c-4.21,0-4.94,7.17-5,10c-0.07,3.12,0.27-1.92-0.12,1.2c-0.16,1.29-0.4,2.57-0.61,3.86
				c-0.46,2.79-0.7,5.61-0.77,8.44c-0.06,2.83,0.87,10,5,10C310.18-57.5,310.9-64.66,310.96-67.5L310.96-67.5z"/>
		</g>
	</g>
	<g display="inline">
		<g>
			<path fill="#F15E26" d="M285.99-45.36c2.98-3.06,5.11-6.77,7.01-10.56c2.07-4.13,2.07-10.01,0-14.14
				c-0.67-1.33-1.85-2.93-3.54-2.93c-1.69,0-2.87,1.59-3.54,2.93c-0.68,1.35-1.37,2.7-2.13,4c-0.42,0.69-0.41,0.67,0.05-0.06
				c-0.23,0.34-0.47,0.67-0.72,1c-0.66,0.89-1.41,1.71-2.18,2.5c-3.12,3.21-2.94,9.76-1.79,13.68
				C280.07-45.8,282.84-42.12,285.99-45.36L285.99-45.36z"/>
		</g>
	</g>
	<g display="inline">
		<g>
			<path fill="#F15E26" d="M263.79,39.86c-2.39-1.23-4.46-2.57-6.24-4.51c-0.95-1.04-1.24-1.59-1.62-2.29
				c-0.04-0.08-0.98-2.46-0.48-1.03c-0.29-0.84-0.48-1.71-0.67-2.57c-0.67-3.05-3.94-6.98-6.84-3.59
				c-3.12,3.65-2.74,9.35-1.79,13.68c1.89,8.63,7.15,15.56,14.99,19.59C267.77,62.56,269.78,42.94,263.79,39.86L263.79,39.86z"/>
		</g>
	</g>
	<g display="inline">
		<g>
			<path fill="#F15E26" d="M254.97,27.5c-2.31-0.06-3.69-0.6-5.65-2.05c0.85,0.63-0.58-0.69-0.6-0.71
				c-0.14-0.16-1.28-1.83-0.47-0.51c-0.34-0.56-0.62-1.16-0.89-1.75c0.83,1.84,0.02-0.16-0.08-0.53c-0.8-2.95-3.87-7.07-6.84-3.59
				c-3.02,3.53-2.93,9.48-1.79,13.68c2.12,7.81,7.6,15.21,16.32,15.45c4.16,0.12,5-7.26,5-10C259.97,34.57,259.14,27.61,254.97,27.5
				L254.97,27.5z"/>
		</g>
	</g>
	<g display="inline">
		<g>
			<path fill="#F15E26" d="M252.99,18.36c-2.66-3.73-4.33-8.11-3.7-12.71c0.49-3.63,0.3-10.21-3.49-12.3
				c-3.87-2.13-5.82,4.52-6.15,6.98c-1.7,12.52,0.95,24.97,8.3,35.29c2.76,3.87,6.09-1.01,6.84-3.59
				C256.09,27.58,255.73,22.21,252.99,18.36L252.99,18.36z"/>
		</g>
	</g>
	<g display="inline">
		<g>
			<path fill="#F15E26" d="M249.5,1.93c-0.4-0.89-0.4-0.86,0.01,0.1c-0.72-2.15,0.28,2.01-0.04-0.18c-0.33-2.28,0.08,2.38,0.01,0.09
				c-0.02-0.64-0.01-1.29-0.01-1.93c0-2.83-0.83-10-5-10c-4.17,0-5,7.17-5,10c0,5.58,0.59,10.96,2.96,16.07
				c0.62,1.34,1.88,2.93,3.54,2.93c1.69,0,2.87-1.59,3.54-2.93C251.61,11.85,251.47,6.16,249.5,1.93L249.5,1.93z"/>
		</g>
	</g>
	<g display="inline">
		<g>
			<path fill="#F15E26" d="M254.79-2.14c-4.81-1.71-9.18-5.41-11.29-9.43c-1.88-3.57-5.22-3.7-7.07,0c-2.03,4.07-2.13,10.08,0,14.14
				c3.32,6.31,8.86,12.13,15.71,14.57c4.07,1.45,5.73-3.94,6.15-6.98c0.35-2.55,0.22-5.23-0.5-7.71
				C257.37,1.05,256.4-1.57,254.79-2.14L254.79-2.14z"/>
		</g>
	</g>
	<g display="inline">
		<g>
			<path fill="#F15E26" d="M257.79-14.14c-8.67-3.06-15.52-8.42-21.3-15.49c-2.95-3.6-6.01,0.76-6.84,3.59
				c-1.24,4.23-1.13,10.11,1.79,13.68c6.34,7.74,14.19,14.15,23.69,17.51C262.58,7.77,263.93-11.98,257.79-14.14L257.79-14.14z"/>
		</g>
	</g>
	<g display="inline">
		<g>
			<path fill="#F15E26" d="M259.64-27.64c0.37-0.11,0.25-0.11-0.36,0.01c-0.52,0.07-1.04,0.01-1.55-0.06
				c0.51,0.17,0.48,0.14-0.11-0.08c-0.48-0.19-0.92-0.49-1.35-0.77c0.48,0.45,0.45,0.43-0.08-0.07c-0.44-0.41-0.83-0.88-1.22-1.33
				c-0.72-0.85-1.35-1.77-1.97-2.69c-2.69-3.97-6.11,1.1-6.84,3.59c-1.33,4.54-0.88,9.74,1.79,13.68c1.69,2.49,3.57,4.71,6.1,6.4
				c2.59,1.73,5.45,1.43,8.25,0.61c1.59-0.47,2.6-3.28,2.99-4.6c0.72-2.47,0.85-5.16,0.5-7.71
				C265.34-23.91,263.76-28.85,259.64-27.64L259.64-27.64z"/>
		</g>
	</g>
	<g display="inline">
		<g>
			<path fill="#F15E26" d="M268.29-33.64c-4.29-2.93-7.88-6.71-10.8-10.99c-2.7-3.95-6.11,1.08-6.84,3.59
				c-1.33,4.53-0.89,9.76,1.79,13.68c3.5,5.12,8.08,9.51,13.19,13.01c3.7,2.53,5.86-4.87,6.15-6.98
				C272.33-25.31,271.96-31.13,268.29-33.64L268.29-33.64z"/>
		</g>
	</g>
	<g display="inline">
		<g>
			<path fill="#F15E26" d="M277.46-55c-0.27,0-0.54-0.02-0.81-0.07c-1.36-0.16,0.95,0.37-0.43-0.14c-0.8-0.29-1.54-0.73-2.27-1.17
				c-0.3-0.19-0.59-0.39-0.87-0.6c-1.39-1,0.81,0.8-0.39-0.36c-0.24-0.24-0.46-0.49-0.68-0.75c-1.09-1.26,0.73,1.39-0.02,0.01
				c-0.72-1.33-1.81-2.93-3.54-2.93c-1.69,0-2.87,1.59-3.54,2.93c-2.01,4.03-2.18,10.13,0,14.14c2.44,4.49,7.18,8.7,12.54,8.93
				c1.67,0.07,2.9-1.65,3.54-2.93c1.08-2.16,1.46-4.68,1.46-7.07C282.46-47.98,281.65-54.82,277.46-55L277.46-55z"/>
		</g>
	</g>
	<g display="inline">
		<g>
			<path fill="#F15E26" d="M305-67.07c-0.85-1.64-1.85-3.17-2.87-4.72c-0.23-0.35-1.45-2.23-0.31-0.45
				c-0.48-0.75-0.91-1.54-1.32-2.33c-0.69-1.33-1.83-2.93-3.54-2.93c-1.69,0-2.87,1.59-3.54,2.93c-2.05,4.1-2.11,10.05,0,14.14
				c0.85,1.64,1.85,3.17,2.87,4.72c0.23,0.35,1.45,2.23,0.31,0.45c0.48,0.75,0.91,1.54,1.32,2.33c0.69,1.33,1.83,2.93,3.54,2.93
				c1.69,0,2.87-1.59,3.54-2.93C307.05-57.02,307.1-62.98,305-67.07L305-67.07z"/>
		</g>
	</g>
	<g display="inline">
		<g>
			<path fill="#F15E26" d="M479.42,328.06c3.42,8.2,9.49,13.29,18.53,13.43c4.16,0.06,5-7.22,5-10c0-2.88-0.83-9.94-5-10
				c-2.82-0.04-5.17-0.41-7.58-1.9c-0.64-0.39-1.41-1.23-2.23-2.29c0.77,0.99-0.6-1.06-0.59-1.05c-0.4-0.75-0.73-1.55-1.06-2.34
				c-1.61-3.87-5.35-3.43-7.07,0C477.25,318.26,477.6,323.68,479.42,328.06L479.42,328.06z"/>
		</g>
	</g>
	<g display="inline">
		<g>
			<path fill="#F15E26" d="M495.92,325.06c3.55,6.89,8.78,12.5,15.71,16.07c6.63,3.42,8.65-16.2,2.66-19.29
				c-5.05-2.61-8.99-6.46-11.29-10.93c-1.86-3.6-5.23-3.68-7.07,0C493.87,315.01,493.81,320.97,495.92,325.06L495.92,325.06z"/>
		</g>
	</g>
	<g display="inline">
		<g>
			<path fill="#F15E26" d="M507.43,323.62c4.49,5.85,10.34,10.13,16.19,14.51c3.61,2.7,5.88-5.02,6.15-6.98
				c0.57-4.13,0.11-9.61-3.49-12.3c-5.08-3.8-9.91-7.41-13.8-12.49c-2.86-3.73-6.05,0.88-6.84,3.59
				C504.37,314.27,504.59,319.92,507.43,323.62L507.43,323.62z"/>
		</g>
	</g>
	<g display="inline">
		<g>
			<path fill="#F15E26" d="M517.62,324.63c7.73,5.93,17.05,9.2,26.83,7.86c7.26-1,6.48-20.89,0-20c-9.11,1.25-16.98-1.62-24.17-7.14
				c-3.58-2.75-5.89,5.07-6.15,6.98C513.56,316.5,514.04,321.88,517.62,324.63L517.62,324.63z"/>
		</g>
	</g>
	<g display="inline">
		<g>
			<path fill="#F15E26" d="M526.45,315.98c10.5,1.5,21,3,31.5,4.5c6.45,0.92,7.27-18.96,0-20c-10.5-1.5-21-3-31.5-4.5
				C520,295.06,519.19,314.95,526.45,315.98L526.45,315.98z"/>
		</g>
	</g>
	<g display="inline">
		<g>
			<path fill="#F15E26" d="M550.63,305.03c1.9,5.79,3.48,11.83,6.78,17.02c2.09,3.29,5.1,3.95,7.07,0c1.91-3.81,2.38-10.39,0-14.14
				c-2.68-4.22-3.62-8.11-5.22-12.98c-0.93-2.84-3.79-7.16-6.84-3.59C549.52,294.76,549.3,300.96,550.63,305.03L550.63,305.03z"/>
		</g>
	</g>
	<g display="inline">
		<g>
			<path fill="#F15E26" d="M558.12,300.63c4.07,3.14,7.83,7.61,9.01,11.9c0.81,2.94,3.87,7.07,6.84,3.59
				c3.01-3.53,2.95-9.48,1.79-13.68c-2.4-8.73-7.92-15.64-14.99-21.09c-3.57-2.76-5.89,5.08-6.15,6.98
				C554.05,292.51,554.55,297.87,558.12,300.63L558.12,300.63z"/>
		</g>
	</g>
	<g display="inline">
		<g>
			<path fill="#F15E26" d="M563.95,299.49c5.5,0,11,0,16.5,0c7,0,7-20,0-20c-5.5,0-11,0-16.5,0
				C556.95,279.49,556.95,299.49,563.95,299.49L563.95,299.49z"/>
		</g>
	</g>
	<g display="inline">
		<g>
			<path fill="#F15E26" d="M582.12,288.63c2.3,1.12,4.76,1.86,7.33,1.86c1.69,0,2.87-1.6,3.54-2.93c1.08-2.16,1.46-4.68,1.46-7.07
				s-0.38-4.91-1.46-7.07c-0.67-1.34-1.85-2.93-3.54-2.93c-1.07,0-2.1-0.08-3.14-0.36c0.44,0.12,0.89,0.24,1.33,0.36
				c-0.99-0.29-1.93-0.69-2.86-1.14C578,266.04,576.09,285.69,582.12,288.63L582.12,288.63z"/>
		</g>
	</g>
	<g display="inline">
		<g>
			<path fill="#F15E26" d="M605.47,218.62c2.81-4.14,6.19-7.86,9-12c2.67-3.94,3.12-9.14,1.79-13.68c-0.73-2.49-4.15-7.55-6.84-3.59
				c-2.81,4.14-6.19,7.86-9,12c-2.67,3.94-3.12,9.14-1.79,13.68C599.36,217.53,602.78,222.59,605.47,218.62L605.47,218.62z"/>
		</g>
	</g>
	<g display="inline">
		<g>
			<path fill="#F15E26" d="M608.78,225.63c4.97-2.52,9.72-5.64,15-7.5c3.9-1.37,3.91-9.25,3.49-12.3c-0.42-3.06-2.07-8.42-6.15-6.98
				c-5.28,1.86-10.03,4.98-15,7.5C600.12,209.39,602.1,229.02,608.78,225.63L608.78,225.63z"/>
		</g>
	</g>
	<g display="inline">
		<g>
			<path fill="#F15E26" d="M611.95,230.49c0.79,0.01,1.56,0.06,2.34,0.16c0.25,0.03,1.58,0.42,0.33,0.03
				c0.38,0.12,0.75,0.29,1.11,0.47c0.36,0.17,0.68,0.4,1,0.63c-1.28-0.9-0.34-0.25-0.03,0.1c1,1.13-0.83-1.5-0.05-0.12
				c0.28,0.5,0.78,2.03-0.02-0.22c0.6,1.69,1.29,3.66,2.99,4.6c1.42,0.78,2.88,0.13,3.85-1.01c2.86-3.35,3.21-9.68,1.79-13.68
				c-1.28-3.62-2.85-6.53-5.88-8.95c-1.98-1.58-4.98-1.97-7.44-2c-4.16-0.05-5,7.21-5,10C606.95,223.37,607.77,230.44,611.95,230.49
				L611.95,230.49z"/>
		</g>
	</g>
	<g display="inline">
		<g>
			<path fill="#F15E26" d="M614.95,246.99c2.75,0.1,5.13,1.38,7.67,2.64c6.72,3.35,8.67-16.28,2.66-19.29
				c-3.24-1.62-6.65-3.23-10.33-3.36c-4.15-0.15-5,7.29-5,10C609.95,239.94,610.77,246.84,614.95,246.99L614.95,246.99z"/>
		</g>
	</g>
	<g display="inline">
		<g>
			<path fill="#F15E26" d="M611.41,253.06c1.96,3.91,4.21,7.94,8.21,10.07c3.89,2.08,5.81-4.48,6.15-6.98
				c0.35-2.55,0.22-5.23-0.5-7.71c-0.48-1.65-1.36-3.73-2.99-4.6c-0.66-0.35-1.26-0.76-1.83-1.24c0.4,0.34,0.8,0.67,1.19,1.01
				c-0.43-0.4-0.82-0.81-1.2-1.25c-0.32-0.38-1.41-2.11-0.25-0.24c-0.64-1.03-1.17-2.12-1.71-3.2c-0.67-1.33-1.85-2.93-3.54-2.93
				c-1.69,0-2.87,1.59-3.54,2.93C609.35,243.05,609.34,248.93,611.41,253.06L611.41,253.06z"/>
		</g>
	</g>
	<g display="inline">
		<g>
			<path fill="#F15E26" d="M605.45,256.49c0,5,0,10,0,15c0,2.83,0.83,10,5,10s5-7.17,5-10c0-5,0-10,0-15c0-2.83-0.83-10-5-10
				S605.45,253.65,605.45,256.49L605.45,256.49z"/>
		</g>
	</g>
	<g display="inline">
		<g>
			<path fill="#F15E26" d="M592.63,270.53c1.05,3.83,2.88,7.65,5.88,10.33c3.09,2.77,6.47,4.08,10.44,5.12
				c1.52,0.4,3.04-1.94,3.54-2.93c1.08-2.16,1.46-4.68,1.46-7.07c0-3.73-0.85-8.92-5-10c-1.94-0.51-3.95-1.5-5.65-2.66
				c-1.49-1.02,0.68,0.73-0.6-0.53c-0.42-0.42-0.78-0.89-1.14-1.36c0.99,1.3-0.07-0.26-0.21-0.54c0.9,1.84,0.05,0.01-0.08-0.45
				c-0.81-2.94-3.87-7.07-6.84-3.59C591.41,260.38,591.48,266.33,592.63,270.53L592.63,270.53z"/>
		</g>
	</g>
	<g display="inline">
		<g>
			<path fill="#F15E26" d="M604.62,273.63c2.89,1.49,5.44,3.26,8.83,3.36c1.67,0.05,2.89-1.64,3.54-2.93
				c1.08-2.16,1.46-4.68,1.46-7.07c0-2.94-0.82-9.88-5-10c-0.65-0.02-1.27-0.09-1.91-0.23c0.44,0.12,0.89,0.24,1.33,0.36
				c-2.02-0.57-3.74-1.82-5.59-2.77C600.64,250.93,598.63,270.55,604.62,273.63L604.62,273.63z"/>
		</g>
	</g>
	<g display="inline">
		<g>
			<path fill="#F15E26" d="M582.43,290.62c1.42,2.04,3.32,3.93,5.66,4.87c2.35,0.94,4.87,0.99,7.36,1c4.17,0,5-7.17,5-10
				c0-2.83-0.83-10-5-10c-0.91,0-1.82-0.01-2.74-0.05c-0.34-0.01-2.57-0.37-1.52-0.09c-0.77-0.21-1.46-0.59-2.13-1.02
				c1.1,0.71-0.2-0.22-0.41-0.44c-0.44-0.47-0.81-1.01-1.18-1.54c-2.73-3.91-6.1,1.05-6.84,3.59
				C579.31,281.44,579.72,286.73,582.43,290.62L582.43,290.62z"/>
		</g>
	</g>
	<g display="inline">
		<g>
			<path fill="#F15E26" d="M587.77,80.45c0.55,2.39-0.01-2.37,0.12,1.02c-0.15,1.42-0.16,1.58-0.03,0.48
				c-0.05,0.64-0.22,1.24-0.51,1.8c0.73-1.79-0.79,0.83,0.42-0.72c0.55-0.71,0.9-0.96,1.51-1.39c3.65-2.57,4.05-8.28,3.49-12.3
				c-0.28-2.06-2.48-9.57-6.15-6.98c-9.15,6.45-9.8,18.09-7.49,28.19c0.69,3.03,3.93,7,6.84,3.59
				C589.07,90.5,588.75,84.75,587.77,80.45L587.77,80.45z"/>
		</g>
	</g>
	<g display="inline">
		<g>
			<path fill="#F15E26" d="M590.47,94.13c2.91-2.91,5.05-4.98,9.3-6.49c1.61-0.57,2.58-3.19,2.99-4.6c0.72-2.47,0.85-5.16,0.5-7.71
				c-0.42-3.05-2.08-8.43-6.15-6.98c-4.66,1.66-8.25,5.07-11.69,8.51c-3.15,3.15-2.93,9.81-1.79,13.68
				C584.57,93.75,587.29,97.31,590.47,94.13L590.47,94.13z"/>
		</g>
	</g>
	<g display="inline">
		<g>
			<path fill="#F15E26" d="M605.47,91.13c4.96-6.02,10.81-9.27,18.48-10.63c7.29-1.29,6.28-21.12,0-20
				c-9.69,1.72-17.22,5.71-23.52,13.36c-2.93,3.56-3.03,9.47-1.79,13.68C599.46,90.39,602.52,94.72,605.47,91.13L605.47,91.13z"/>
		</g>
	</g>
	<g display="inline">
		<g>
			<path fill="#F15E26" d="M615.97,97.13c3.77-3.66,8.75-7.4,14.15-4.99c7,3.11,8.74-16.58,2.66-19.29
				c-8.54-3.8-15.79,1.11-21.85,7.01c-3.18,3.09-2.92,9.85-1.79,13.68C610.08,96.8,612.76,100.25,615.97,97.13L615.97,97.13z"/>
		</g>
	</g>
	<g display="inline">
		<g>
			<path fill="#F15E26" d="M616.62,114.64c6.96,2.45,11.29,6.95,13.51,13.4c0.97,2.81,3.77,7.18,6.84,3.59
				c2.88-3.38,3.18-9.65,1.79-13.68c-3.47-10.1-8.98-18.9-19.49-22.59C611.83,92.73,610.48,112.48,616.62,114.64L616.62,114.64z"/>
		</g>
	</g>
	<g display="inline">
		<g>
			<path fill="#F15E26" d="M619.92,142.13c5.05,6.47,12.22,10.3,20.52,8.86c4.18-0.72,5-6.57,5-10c0-2.25-0.95-10.7-5-10
				c-6.51,1.13-11.45-0.98-15.48-6.13c-2.88-3.7-6.04,0.84-6.84,3.59C616.87,132.75,617.06,138.46,619.92,142.13L619.92,142.13z"/>
		</g>
	</g>
	<g display="inline">
		<g>
			<path fill="#F15E26" d="M616.92,131.63c5.05,6.3,12.66,8.77,20.52,8.86c6.96,0.08,7.03-19.91,0-20
				c-5.87-0.07-11.65-1.36-15.48-6.13c-2.92-3.64-6.02,0.8-6.84,3.59C613.88,122.21,614.03,128.01,616.92,131.63L616.92,131.63z"/>
		</g>
	</g>
	<g display="inline">
		<g>
			<path fill="#F15E26" d="M622.28,111.64c3.47-1.1,7.06-1.14,10.67-1.14c4.17,0,5-7.17,5-10c0-2.83-0.83-10-5-10
				c-4.65,0-8.88,0.44-13.33,1.86c-1.6,0.51-2.59,3.24-2.99,4.6c-0.72,2.47-0.85,5.16-0.5,7.71
				C616.56,107.82,618.17,112.94,622.28,111.64L622.28,111.64z"/>
		</g>
	</g>
	<g display="inline">
		<g>
			<path fill="#F15E26" d="M628.92,119.63c1,1,2,2,3,3c1.07,1.07,2.35,1.84,3.85,1.01c1.63-0.9,2.5-2.92,2.99-4.6
				c0.72-2.47,0.85-5.16,0.5-7.71c-0.17-0.8-0.34-1.59-0.5-2.39c-0.35-1.32-0.95-2.52-1.79-3.59c-1-1-2-2-3-3
				c-1.07-1.07-2.35-1.84-3.85-1.01c-1.63,0.9-2.5,2.92-2.99,4.6c-0.72,2.47-0.85,5.16-0.5,7.71c0.17,0.8,0.34,1.59,0.5,2.39
				C627.48,117.36,628.08,118.56,628.92,119.63L628.92,119.63z"/>
		</g>
	</g>
	<g display="inline">
		<g>
			<path fill="#F15E26" d="M608.77,71.45c-2.02-5.3-4.22-10.53-5.85-15.97c-0.43-1.43-0.94-4.28-0.95-4.93
				c0.02,1.17,1.44-1.31,2.32-1.91c3.67-2.52,4.04-8.32,3.49-12.3c-0.29-2.1-2.46-9.52-6.15-6.98
				c-17.48,12.01-7.39,36.67-1.49,52.19c1.04,2.74,3.73,7.24,6.84,3.59C609.79,81.83,610.26,75.39,608.77,71.45L608.77,71.45z"/>
		</g>
	</g>
	<g display="inline">
		<g>
			<path fill="#F15E26" d="M588.97,74.63c4.43-6.37,11.58-13.42,20.15-10.99c7.74,2.2,8.77-17.55,2.66-19.29
				c-11.7-3.32-21.34,3.64-27.85,13.01c-2.71,3.89-3.11,9.18-1.79,13.68C582.87,73.58,586.25,78.55,588.97,74.63L588.97,74.63z"/>
		</g>
	</g>
	<g display="inline">
		<g>
			<path fill="#F15E26" d="M580.28-71.35c7.12-4.32,13.88-9.18,21-13.5c5.82-3.53,3.48-23.01-2.66-19.29
				c-7.12,4.32-13.88,9.18-21,13.5C571.8-87.1,574.14-67.62,580.28-71.35L580.28-71.35z"/>
		</g>
	</g>
	<g display="inline">
		<g>
			<path fill="#F15E26" d="M590.95-71c1.16,0.01,2.28,0.11,3.41,0.39c-0.44-0.12-0.89-0.24-1.33-0.36c0.83,0.24,1.58,0.58,2.27,1.11
				c-0.4-0.34-0.8-0.67-1.19-1.01c0.6,0.52,1.31,1.86,0.13-0.18c0.69,1.19-0.71-2.18-0.32-0.8c-0.12-0.56-0.25-1.12-0.37-1.68
				c-0.09-2.02-0.13-2.51-0.1-1.47c0.05,2.42,0.37,4.88,1.46,7.07c0.67,1.33,1.85,2.93,3.54,2.93c4.13,0,5.06-7.17,5-10
				c-0.09-4.31-0.78-10.09-4.3-13.14c-2.37-2.06-5.06-2.83-8.2-2.86c-1.68-0.02-2.88,1.61-3.54,2.93c-1.08,2.16-1.46,4.68-1.46,7.07
				C585.95-78.13,586.78-71.04,590.95-71L590.95-71z"/>
		</g>
	</g>
	<g display="inline">
		<g>
			<path fill="#F15E26" d="M588.12-56.35c1.42,0.74,2.71,1.67,3.95,2.69c-0.4-0.34-0.8-0.67-1.19-1.01c1.24,1.05,2.4,2.16,3.55,3.31
				c3.18,3.18,5.9-0.38,6.84-3.59c0.72-2.47,0.85-5.16,0.5-7.71c-0.26-1.92-0.85-4.53-2.3-5.98c-2.61-2.61-5.4-5.29-8.69-7.01
				C584.18-79.08,582.14-59.48,588.12-56.35L588.12-56.35z"/>
		</g>
	</g>
	<g display="inline">
		<g>
			<path fill="#F15E26" d="M589.62-33.85c3.7,1.19,7.51,1.59,10.5,3c6.86,3.24,8.71-16.43,2.66-19.29c-3.32-1.56-7.03-1.89-10.5-3
				c-4.1-1.32-5.72,3.82-6.15,6.98c-0.35,2.55-0.22,5.23,0.5,7.71C587.03-37.1,588.02-34.37,589.62-33.85L589.62-33.85z"/>
		</g>
	</g>
	<g display="inline">
		<g>
			<path fill="#F15E26" d="M590.41-24.43c1.96,3.91,4.21,7.94,8.21,10.07c3.89,2.08,5.81-4.48,6.15-6.98
				c0.35-2.55,0.22-5.23-0.5-7.71c-0.48-1.65-1.36-3.73-2.99-4.6c-0.66-0.35-1.26-0.76-1.83-1.24c0.4,0.34,0.8,0.67,1.19,1.01
				c-0.43-0.4-0.82-0.81-1.2-1.25c-0.32-0.38-1.41-2.11-0.25-0.24c-0.64-1.03-1.17-2.12-1.71-3.2c-0.67-1.33-1.85-2.93-3.54-2.93
				s-2.87,1.59-3.54,2.93C588.35-34.44,588.34-28.56,590.41-24.43L590.41-24.43z"/>
		</g>
	</g>
	<g display="inline">
		<g>
			<path fill="#F15E26" d="M590.45-21c0,6.03,0.74,13.9,6.67,17.14c3.88,2.12,5.81-4.51,6.15-6.98c0.35-2.55,0.22-5.23-0.5-7.71
				c-0.49-1.67-1.36-3.71-2.99-4.6c-0.38-0.21-0.72-0.43-1.07-0.69c0.4,0.34,0.8,0.67,1.19,1.01c-0.29-0.26-0.54-0.53-0.78-0.84
				c0.56,0.67,0.93,1.43,1.13,2.28c-0.27-0.89-0.19-0.46,0.22,1.3c-0.04-0.25-0.08-0.51-0.11-0.76c0.11,2,0.15,2.5,0.1,1.47
				c-0.02-0.54-0.02-1.08-0.02-1.63c0-2.39-0.38-4.91-1.46-7.07c-0.67-1.33-1.85-2.93-3.54-2.93s-2.87,1.59-3.54,2.93
				C590.83-25.91,590.45-23.39,590.45-21L590.45-21z"/>
		</g>
	</g>
	<g display="inline">
		<g>
			<path fill="#F15E26" d="M586.63-2.45c2.12,6.06,5.7,11.39,11.99,13.59c4.08,1.43,5.73-3.92,6.15-6.98
				c0.35-2.55,0.22-5.23-0.5-7.71c-0.41-1.4-1.38-4.03-2.99-4.6c-0.96-0.34-1.88-0.74-2.78-1.22c-0.42-0.23-0.82-0.5-1.22-0.78
				c-1.3-0.9,0.89,0.87-0.26-0.2c-0.35-0.32-0.66-0.68-0.96-1.04c-0.27-0.32-1.17-1.68-0.1,0.01c-0.26-0.42-0.48-0.86-0.7-1.3
				c-0.81-1.62,0.63,1.88,0.02,0.12c-0.98-2.8-3.76-7.19-6.84-3.59C585.56-12.77,585.23-6.46,586.63-2.45L586.63-2.45z"/>
		</g>
	</g>
	<g display="inline">
		<g>
			<path fill="#F15E26" d="M588.12,17.14c5.09,3.29,10.26,4.72,16.16,3c1.59-0.46,2.6-3.28,2.99-4.6c0.72-2.47,0.85-5.16,0.5-7.71
				c-0.45-3.26-2.03-8.19-6.15-6.98c-3.86,1.13-7.73-0.99-10.84-3c-3.75-2.42-5.85,4.78-6.15,6.98
				C584.09,8.72,584.41,14.75,588.12,17.14L588.12,17.14z"/>
		</g>
	</g>
	<g display="inline">
		<g>
			<path fill="#F15E26" d="M586.45,32.5c6.07,1.38,11.52-0.1,16.02-4.36c3.2-3.03,2.9-9.9,1.79-13.68c-0.97-3.31-3.6-6.66-6.84-3.59
				c-2.53,2.4-7.1,2.51-10.98,1.63c-1.55-0.35-3.02,1.9-3.54,2.93c-1.08,2.16-1.46,4.68-1.46,7.07
				C581.45,26.11,582.29,31.55,586.45,32.5L586.45,32.5z"/>
		</g>
	</g>
	<g display="inline">
		<g>
			<path fill="#F15E26" d="M590.47,53.63c12.26-10.54,27.26-17.46,42.3-22.99c6.13-2.25,4.72-22-2.66-19.29
				c-16.26,5.98-31.5,13.66-44.69,25.01C580.66,40.46,583.4,59.72,590.47,53.63L590.47,53.63z"/>
		</g>
	</g>
	<g display="inline">
		<g>
			<path fill="#F15E26" d="M596.78,56.14c13.47-7.42,28.01-14.37,43.67-14.64c7.05-0.12,6.95-20.12,0-20
				c-16.5,0.29-32.13,7.54-46.33,15.36C588.19,40.12,590.33,59.69,596.78,56.14L596.78,56.14z"/>
		</g>
	</g>
	<g display="inline">
		<g>
			<path fill="#F15E26" d="M596.78,30.64c7.14-2.97,13.34-7.38,19.5-12c3.6-2.7,4.06-8.17,3.49-12.3c-0.27-1.96-2.54-9.69-6.15-6.98
				c-6.16,4.62-12.36,9.02-19.5,12C588.01,13.9,589.63,33.62,596.78,30.64L596.78,30.64z"/>
		</g>
	</g>
	<g display="inline">
		<g>
			<path fill="#F15E26" d="M609.97,17.63c4.51-6.14,8.11-12.76,11.51-19.56c2.07-4.13,2.07-10.01,0-14.14
				c-1.82-3.64-5.25-3.64-7.07,0c-2.84,5.68-5.72,11.31-9.49,16.44c-2.78,3.79-3.08,9.27-1.79,13.68
				C603.9,16.68,607.17,21.45,609.97,17.63L609.97,17.63z"/>
		</g>
	</g>
	<g display="inline">
		<g>
			<path fill="#F15E26" d="M-91.52-49c-6.71-1.5-12.19-5.92-16.98-10.63c-3.2-3.15-5.89,0.36-6.84,3.59
				c-1.13,3.85-1.37,10.56,1.79,13.68c6.41,6.32,13.11,11.38,22.02,13.36C-85.47-27.65-84.23-47.37-91.52-49L-91.52-49z"/>
		</g>
	</g>
	<g display="inline">
		<g>
			<path fill="#F15E26" d="M-85.7-54.54c-0.96-2.72-2.08-5.34-3.36-7.93c-0.56-1.12-1.12-2.25-1.67-3.38
				c-0.16-0.34-1.27-3.04-0.97-2.19c-0.99-2.79-3.76-7.2-6.84-3.59c-2.86,3.35-3.21,9.68-1.79,13.68c0.96,2.72,2.08,5.34,3.36,7.93
				c0.56,1.12,1.12,2.25,1.67,3.38c0.16,0.34,1.27,3.04,0.97,2.19c0.99,2.79,3.76,7.2,6.84,3.59
				C-84.63-44.22-84.29-50.54-85.7-54.54L-85.7-54.54z"/>
		</g>
	</g>
	<g display="inline">
		<g>
			<path fill="#F15E26" d="M-70.99-76.13c-0.35-0.35-0.68-0.73-0.99-1.12c-1.29-1.54,0.34,0.81-0.54-0.99
				c0.43,0.88,0.37,1.72,0.43,2.67c0.02,0.27-0.73,3.26-0.1,1.12c1.22-4.15,1.18-10.2-1.79-13.68c-3-3.52-5.98,0.68-6.84,3.59
				c-2.5,8.5-1.5,19,4.79,25.68c3.12,3.31,5.93-0.49,6.84-3.59C-68.03-66.43-67.91-72.86-70.99-76.13L-70.99-76.13z"/>
		</g>
	</g>
	<g display="inline">
		<g>
			<path fill="#F15E26" d="M-61.69-78.64c-1.15-0.83-0.15,0.01-0.99-0.96c0.9,1.04-0.28-1.38,0.36,0.73
				c0.39,1.28,0.46,2.55,0.32,3.88c0.16-1.01,0.13-0.89-0.11,0.39c0.12-0.45,0.25-0.9,0.4-1.35c1.29-4.1,1.14-10.25-1.79-13.68
				c-3.03-3.55-5.94,0.72-6.84,3.59c-2.88,9.11-2.36,20.69,5.99,26.69c3.65,2.62,5.87-4.96,6.15-6.98
				C-57.64-70.4-58.06-76.03-61.69-78.64L-61.69-78.64z"/>
		</g>
	</g>
	<g display="inline">
		<g>
			<path fill="#F15E26" d="M-54.5-85.13c0.21,0.36,0.11,0.16-0.29-0.59c0.54,1.1,0.75,2.29,0.65,3.56c0.07,1.35-0.16,2.61-0.71,3.79
				c0.39-0.74,0.43-0.82,0.14-0.23c1.22-1.62,3.2-2.48,5.02-3.26c6.1-2.6,4.44-22.31-2.66-19.29c-13.1,5.58-14.81,22.4-7.19,33.28
				c2.74,3.9,6.09-1.04,6.84-3.59C-51.39-75.94-51.78-81.25-54.5-85.13L-54.5-85.13z"/>
		</g>
	</g>
	<g display="inline">
		<g>
			<path fill="#F15E26" d="M-91.99-71.63c-0.61-0.64-1.16-1.3-1.69-2c-0.48-0.7-0.54-0.77-0.18-0.21c-0.25-0.41-0.5-0.83-0.73-1.26
				c-0.47-0.83-0.86-1.69-1.24-2.56c0.37,0.99,0.4,1.05,0.11,0.19c-0.64-1.96,0.22,2.69,0.21,2.48c-0.13-2.83-0.75-10-5-10
				c-4.08,0-5.13,7.17-5,10c0.34,7.48,3.24,15.15,8.48,20.63c3.13,3.28,5.93-0.47,6.84-3.59C-89.04-61.91-88.89-68.38-91.99-71.63
				L-91.99-71.63z"/>
		</g>
	</g>
	<g display="inline">
		<g>
			<path fill="#F15E26" d="M-73.69-80.14c-0.38-0.25-0.75-0.51-1.11-0.78c-0.6-0.46-0.67-0.52-0.22-0.18
				c-0.4-0.37-2.08-2.62-1.02-0.93c-0.17-0.29-0.33-0.58-0.46-0.89c0.45,1.26,0.54,1.47,0.27,0.62c0.29,1.57,0.35,1.86,0.19,0.87
				c-0.33-2.01,0.07,2.57,0.03,0.44c-0.04-2.83-0.8-10-5-10c-4.14,0-5.04,7.17-5,10c0.07,4.38,0.72,8.69,2.66,12.66
				c1.55,3.17,4.15,5.52,7.01,7.48c3.69,2.54,5.86-4.88,6.15-6.98C-69.65-71.82-70.02-77.62-73.69-80.14L-73.69-80.14z"/>
		</g>
	</g>
	<g display="inline">
		<g>
			<path fill="#F15E26" d="M-84.19-81.64c-0.81-0.28-1.58-0.61-2.34-1c-0.43-0.22-0.83-0.5-1.23-0.77
				c-1.28-0.88,0.85,0.86-0.22-0.25c-0.21-0.23-0.41-0.48-0.6-0.73c1.14,1.47,0.27,0.36,0.04-0.13c1.24,2.61-0.08-1.38,0.53,1.83
				c-0.4-2.11,0.03,2.49-0.01,0.18c-0.05-2.83-0.79-10-5-10c-4.13,0-5.05,7.17-5,10c0.15,8.19,2.71,17.18,11.17,20.14
				c4.08,1.43,5.73-3.92,6.15-6.98c0.35-2.55,0.22-5.23-0.5-7.71C-81.61-78.44-82.58-81.08-84.19-81.64L-84.19-81.64z"/>
		</g>
	</g>
	<g display="inline">
		<g>
			<path fill="#F15E26" d="M-97.52-65.5c-1.71-0.05-2.33-0.18-4.1-1.37c-0.55-0.42-0.52-0.39,0.07,0.08
				c-0.35-0.32-0.66-0.69-0.97-1.05c-0.2-0.24-0.38-0.49-0.56-0.75c1.16,1.61,0.32,0.45,0.09,0.01c-0.69-1.33-1.83-2.93-3.54-2.93
				c-1.69,0-2.87,1.59-3.54,2.93c-2.04,4.08-2.12,10.07,0,14.14c2.56,4.91,6.76,8.76,12.54,8.93c4.16,0.12,5-7.27,5-10
				C-92.52-58.43-93.34-65.38-97.52-65.5L-97.52-65.5z"/>
		</g>
	</g>
	<g display="inline">
		<g>
			<path fill="#F15E26" d="M88.65,17.36c-4.83,2.19-9.48,1.25-13.84-1.5c-3.77-2.38-5.84,4.74-6.15,6.98
				c-0.53,3.84-0.23,9.95,3.49,12.3c5.98,3.78,12.68,4.44,19.16,1.5C97.37,33.89,95.6,14.2,88.65,17.36L88.65,17.36z"/>
		</g>
	</g>
	<g display="inline">
		<g>
			<path fill="#F15E26" d="M87.45,4.86c-0.31,0.3-0.62,0.6-0.95,0.89c0.4-0.34,0.8-0.67,1.19-1.01c-0.63,0.53-1.28,1.03-2.07,1.28
				c0.44-0.12,0.89-0.24,1.33-0.36c-0.37,0.08-0.68,0.09-1.04,0c0.44,0.12,0.89,0.24,1.33,0.36c-0.28-0.11-0.51-0.25-0.74-0.44
				c0.4,0.34,0.8,0.67,1.19,1.01C87.43,6.33,87.21,6.06,87,5.75c0.34,0.52,0.67,1.04,1.01,1.56c-0.18-0.29-0.34-0.58-0.5-0.89
				C86.82,5.1,85.68,3.5,83.97,3.5c-1.69,0-2.87,1.59-3.54,2.93c-2.04,4.09-2.12,10.06,0,14.14c1.28,2.46,2.93,4.82,5.87,5.18
				c2.35,0.29,4.75-2.2,6.19-3.61c1.45-1.42,2.04-4.08,2.3-5.98c0.35-2.55,0.22-5.23-0.5-7.71c-0.49-1.67-1.36-3.7-2.99-4.6
				C89.79,3.02,88.53,3.8,87.45,4.86L87.45,4.86z"/>
		</g>
	</g>
	<g display="inline">
		<g>
			<path fill="#F15E26" d="M89.97-5.5c-7.07-0.19-11.81-4.24-14.46-10.57c-1.62-3.86-5.35-3.44-7.07,0c-2.17,4.34-1.83,9.78,0,14.14
				c3.83,9.12,11.28,16.15,21.54,16.43C96.89,14.69,97.05-5.31,89.97-5.5L89.97-5.5z"/>
		</g>
	</g>
	<g display="inline">
		<g>
			<path fill="#F15E26" d="M84.15-21.64c-2.9,0.93-5.64,1.04-7.84,0c-6.87-3.23-8.71,16.44-2.66,19.29c4.48,2.11,8.59,1.46,13.16,0
				c1.6-0.51,2.59-3.24,2.99-4.6c0.72-2.47,0.85-5.16,0.5-7.71C89.86-17.82,88.25-22.95,84.15-21.64L84.15-21.64z"/>
		</g>
	</g>
	<g display="inline">
		<g>
			<path fill="#F15E26" d="M70.47-5.5c-4.73,0.09-7.53,3.5-9.54,7.43c-2.09,4.11-2.05,10.03,0,14.14c0.67,1.33,1.85,2.93,3.54,2.93
				c1.7,0,2.86-1.6,3.54-2.93c0.26-0.52,0.54-1.02,0.84-1.51c-0.34,0.52-0.67,1.04-1.01,1.56c0.43-0.66,0.9-1.26,1.49-1.78
				c-0.4,0.34-0.8,0.67-1.19,1.01c0.57-0.46,1.17-0.77,1.87-0.99c-0.44,0.12-0.89,0.24-1.33,0.36c0.59-0.15,1.18-0.21,1.79-0.22
				c1.7-0.03,2.85-1.57,3.54-2.93c1.08-2.16,1.46-4.68,1.46-7.07s-0.38-4.91-1.46-7.07C73.36-3.88,72.15-5.53,70.47-5.5L70.47-5.5z"
				/>
		</g>
	</g>
	<g display="inline">
		<g>
			<path fill="#F15E26" d="M76.95,1.87C76.38,2.43,75.81,3,75.2,3.53c0.4-0.34,0.8-0.67,1.19-1.01c-0.61,0.51-1.24,0.95-2,1.22
				c0.44-0.12,0.89-0.24,1.33-0.36c-0.25,0.07-0.49,0.1-0.75,0.12c-1.72,0.09-2.83,1.52-3.54,2.93c-1.08,2.16-1.46,4.68-1.46,7.07
				s0.38,4.91,1.46,7.07c0.63,1.26,1.88,3.02,3.54,2.93c2.96-0.16,5.06-2.4,7.02-4.36c1.44-1.44,2.03-4.06,2.3-5.98
				c0.35-2.55,0.22-5.23-0.5-7.71c-0.49-1.67-1.36-3.7-2.99-4.6C79.3,0.03,78.02,0.8,76.95,1.87L76.95,1.87z"/>
		</g>
	</g>
	<g display="inline">
		<g>
			<path fill="#F15E26" d="M95.8-21.64C86.02-27.3,76.59-33.7,68.5-41.63c-6.55-6.42-9.55,12.85-5.05,17.27
				c8.84,8.66,19,15.82,29.69,22.01C99.44,1.29,101.68-18.24,95.8-21.64L95.8-21.64z"/>
		</g>
	</g>
	<g display="inline">
		<g>
			<path fill="#F15E26" d="M91.47-35.5c-1.85-0.06-2.79-0.44-4.48-1.52c-0.34-0.23-0.67-0.47-0.99-0.72
				c0.39,0.36,0.32,0.29-0.23-0.2c-0.79-0.7-1.53-1.46-2.27-2.2c-3.18-3.18-5.9,0.38-6.84,3.59c-1.14,3.88-1.36,10.54,1.79,13.68
				c3.69,3.69,7.52,7.18,13.02,7.36c4.15,0.14,5-7.28,5-10C96.47-28.45,95.65-35.36,91.47-35.5L91.47-35.5z"/>
		</g>
	</g>
	<g display="inline">
		<g>
			<path fill="#F15E26" d="M95.5-46.13c-1.8-1.84-3.47-3.76-4.98-5.84c-0.49-0.67-0.85-1.45-1.23-2.18C88.49-55.7,88.93-55,88.97-54
				c-0.12-2.83-0.75-10-5-10c-4.09,0-5.12,7.17-5,10c0.41,9.97,4.56,18.09,11.48,25.13c3.16,3.22,5.91-0.42,6.84-3.59
				C98.44-36.36,98.63-42.94,95.5-46.13L95.5-46.13z"/>
		</g>
	</g>
	<g display="inline">
		<g>
			<path fill="#F15E26" d="M98.5-55.13c-2.33-3.6-3.05-6.87-4.21-11.41c-0.76-2.98-3.89-7.04-6.84-3.59
				c-3.05,3.57-2.87,9.43-1.79,13.68c1.69,6.67,4.05,12.8,7.79,18.59c2.62,4.05,6.13-1.18,6.84-3.59
				C101.64-46.06,101.1-51.11,98.5-55.13L98.5-55.13z"/>
		</g>
	</g>
	<g display="inline">
		<g>
			<path fill="#F15E26" d="M104.5-70.13c-3.96-4.03-6.94-8.41-9.49-13.44c-1.84-3.62-5.24-3.66-7.07,0
				c-2.06,4.12-2.08,10.03,0,14.14c3.07,6.05,6.75,11.71,11.51,16.56c3.16,3.22,5.91-0.41,6.84-3.59
				C107.44-60.36,107.63-66.94,104.5-70.13L104.5-70.13z"/>
		</g>
	</g>
	<g display="inline">
		<g>
			<path fill="#F15E26" d="M137.5-78.36c0.61-0.89,1.26-1.73,1.97-2.54c0.08-0.09,1.45-1.38,0.44-0.54c0.41-0.34,0.85-0.64,1.3-0.94
				c1.7-1.13,3.67-1.83,5.59-2.48c1.6-0.54,2.58-3.22,2.99-4.6c0.72-2.47,0.85-5.16,0.5-7.71c-0.43-3.1-2.06-8.37-6.15-6.98
				c-4.83,1.64-8.77,4.25-11.69,8.51c-2.69,3.92-3.12,9.16-1.79,13.68C131.39-79.44,134.79-74.42,137.5-78.36L137.5-78.36z"/>
		</g>
	</g>
	<g display="inline">
		<g>
			<path fill="#F15E26" d="M126.14-98.14c-0.4,0.13-0.8,0.26-1.2,0.37c0.44-0.12,0.89-0.24,1.33-0.36
				c-0.44,0.12-0.97,0.29-1.43,0.19c0.44,0.12,0.89,0.24,1.33,0.36c-0.04-0.01-0.08-0.03-0.12-0.05c0.4,0.34,0.8,0.67,1.19,1.01
				c-0.02-0.01-0.04-0.03-0.05-0.05c0.34,0.52,0.67,1.04,1.01,1.56c-0.01-0.01-0.01-0.02-0.02-0.03c0.26,0.67,0.52,1.35,0.78,2.02
				c0-0.01-0.01-0.02-0.01-0.03c0.17,0.8,0.34,1.59,0.5,2.39c0-0.01,0-0.02-0.01-0.04c0.06,0.89,0.12,1.77,0.18,2.66
				c0-0.01,0-0.03,0-0.04c-0.06,0.89-0.12,1.77-0.18,2.66c0-0.03,0.01-0.06,0.01-0.09c-0.17,0.8-0.34,1.59-0.5,2.39
				c0.01-0.03,0.02-0.07,0.03-0.1c-0.26,0.67-0.52,1.35-0.78,2.02c0.05-0.1,0.1-0.2,0.16-0.3c-0.34,0.52-0.67,1.04-1.01,1.56
				c0.72-1.06,1.73-1.94,2.63-2.84c0.34-0.52,0.67-1.04,1.01-1.56c0.67-1.4,1.09-2.87,1.29-4.41c0.35-2.55,0.22-5.23-0.5-7.71
				c-0.49-1.67-1.36-3.7-2.99-4.6c-1.5-0.83-2.78-0.06-3.85,1.01c-0.7,0.7-1.41,1.39-2.07,2.13c-0.62,0.7-1.06,1.47-1.58,2.27
				c-0.91,1.41-1.17,3.27-1.49,4.86c-0.27,1.32-0.22,4.11,0,5.43c0.37,2.14,0.9,4.32,2.33,6.04c0.78,0.94,1.65,1.41,2.86,1.49
				c0.33,0.02,0.67-0.07,0.98-0.15c0.95-0.22,1.89-0.49,2.81-0.8c0.4-0.34,0.8-0.67,1.19-1.01c0.84-1.07,1.44-2.27,1.79-3.59
				c0.72-2.47,0.85-5.16,0.5-7.71c-0.28-2.07-0.91-4.35-2.3-5.98c-0.4-0.34-0.8-0.67-1.19-1.01
				C127.92-98.61,127.03-98.61,126.14-98.14L126.14-98.14z"/>
		</g>
	</g>
	<g display="inline">
		<g>
			<path fill="#F15E26" d="M106.3-93.64c-0.57-0.36-0.51-0.27,0.17,0.28c-0.2-0.19-0.38-0.4-0.53-0.63c0.52,0.6,0.86,1.29,1.03,2.08
				c-0.26-0.68-0.46-2.29,0.07,0.65c-0.15-0.83-0.22-3.21-0.04,0.39c-0.04-0.71-0.03-1.42-0.03-2.12c0-2.83-0.83-10-5-10
				c-4.17,0-5,7.17-5,10c0,6.24,0.52,15.16,6.67,18.64c3.85,2.18,5.82-4.57,6.15-6.98C110.3-85.01,110.08-91.5,106.3-93.64
				L106.3-93.64z"/>
		</g>
	</g>
	<g display="inline">
		<g>
			<path fill="#F15E26" d="M112-98.63c-1.74-1.82-2.76-4.18-4.5-6c-1.04-1.09-2.37-1.82-3.85-1.01c-1.63,0.9-2.5,2.92-2.99,4.6
				c-0.72,2.47-0.85,5.16-0.5,7.71c0.27,1.96,0.87,4.48,2.3,5.98c1.74,1.82,2.76,4.18,4.5,6c1.04,1.09,2.37,1.82,3.85,1.01
				c1.63-0.9,2.5-2.92,2.99-4.6c0.72-2.47,0.85-5.16,0.5-7.71C114.02-94.62,113.43-97.13,112-98.63L112-98.63z"/>
		</g>
	</g>
	<g display="inline">
		<g>
			<path fill="#F15E26" d="M179.49-64.86c4.61-4.46,10.37-7.52,15-12c3.18-3.08,2.91-9.86,1.79-13.68c-0.96-3.27-3.62-6.7-6.84-3.59
				c-4.61,4.46-10.37,7.52-15,12c-3.18,3.08-2.91,9.86-1.79,13.68C173.61-65.18,176.28-61.75,179.49-64.86L179.49-64.86z"/>
		</g>
	</g>
	<g display="inline">
		<g>
			<path fill="#F15E26" d="M190.3-62.35c3.21-2.08,6.76-4.03,10.67-4.14c4.18-0.12,5-7.07,5-10c0-2.73-0.84-10.12-5-10
				c-4.75,0.14-9.41,2.32-13.33,4.86c-3.71,2.4-4.03,8.42-3.49,12.3C184.45-67.14,186.55-59.93,190.3-62.35L190.3-62.35z"/>
		</g>
	</g>
	<g display="inline">
		<g>
			<path fill="#F15E26" d="M196.3-51.85c2.26-1.03,5.59-1.03,7.84,0c6.93,3.17,8.73-16.51,2.66-19.29c-4.2-1.92-8.96-1.92-13.16,0
				C187.57-68.36,189.36-48.68,196.3-51.85L196.3-51.85z"/>
		</g>
	</g>
	<g display="inline">
		<g>
			<path fill="#F15E26" d="M199.64-21.86c10.17,4.2,20.95,6.06,31.5,9c7.76,2.16,8.77-17.59,2.66-19.29
				c-10.54-2.93-21.35-4.81-31.5-9C195.14-44.1,193.53-24.38,199.64-21.86L199.64-21.86z"/>
		</g>
	</g>
	<g display="inline">
		<g>
			<path fill="#F15E26" d="M234.47,64.5c0.05-3.23-0.28,1.87,0.06-1.32c0.2-1.13,0.21-1.31,0.03-0.54c0.15-0.64,0.34-1.27,0.54-1.9
				c0.31-1.01,1.77-2.92,2.89-4.1c3.09-3.27,2.96-9.71,1.79-13.68c-0.91-3.1-3.72-6.89-6.84-3.59c-6.38,6.74-8.35,16.12-8.48,25.13
				c-0.04,2.83,0.86,10,5,10C233.66,74.5,234.43,67.33,234.47,64.5L234.47,64.5z"/>
		</g>
	</g>
	<g display="inline">
		<g>
			<path fill="#F15E26" d="M246.99,40.86c-1.37-1.32-2.95-2.36-4.4-3.58c0.4,0.34,0.8,0.67,1.19,1.01
				c-0.39-0.34-0.75-0.69-1.04-1.12c0.34,0.52,0.67,1.04,1.01,1.56c-0.06-0.1-0.12-0.21-0.16-0.32c0.26,0.67,0.52,1.35,0.78,2.02
				c-0.02-0.05-0.04-0.11-0.05-0.16c0.17,0.8,0.34,1.59,0.5,2.39c-0.03-0.11-0.04-0.21-0.04-0.32c-0.18-2.52-2.38-9.06-6.15-6.98
				c-1.63,0.9-2.5,2.92-2.99,4.6c-0.75,2.57-0.69,5.07-0.5,7.71c0.19,2.71,1.38,5.85,3.41,7.74c1.28,1.19,2.71,2.15,4.05,3.26
				c-0.4-0.34-0.8-0.67-1.19-1.01c0.18,0.16,0.36,0.32,0.53,0.48c1.09,1.05,2.33,1.85,3.85,1.01c1.63-0.9,2.5-2.92,2.99-4.6
				c0.72-2.47,0.85-5.16,0.5-7.71C249.03,44.95,248.44,42.27,246.99,40.86L246.99,40.86z"/>
		</g>
	</g>
	<g display="inline">
		<g>
			<path fill="#F15E26" d="M232.3,36.86c-1.08-0.37-2.16-0.78-3.06-1.51c0.4,0.34,0.8,0.67,1.19,1.01c-0.2-0.19-0.37-0.38-0.53-0.61
				c0.34,0.52,0.67,1.04,1.01,1.56c-0.03-0.05-0.06-0.11-0.09-0.16c0.56,1.19,0.92,2.43,1.08,3.73c0.36,2.2,0.12,4.4-0.39,6.55
				c0.02-0.07,0.04-0.14,0.06-0.21c0.25-0.75,0.07-0.3-0.53,1.35c0.14-0.34,0.3-0.67,0.46-1c2.05-4.16,2.08-9.99,0-14.14
				c-0.67-1.33-1.85-2.93-3.54-2.93c-1.68,0-2.88,1.59-3.54,2.93c-2.4,4.89-2.93,10.23-1.59,15.51c0.92,3.62,3.38,6.03,6.8,7.2
				c1.57,0.54,2.72,0.31,3.85-1.01c1.39-1.63,2.01-3.91,2.3-5.98c0.35-2.55,0.22-5.23-0.5-7.71
				C234.88,40.06,233.9,37.41,232.3,36.86L232.3,36.86z"/>
		</g>
	</g>
	<g display="inline">
		<g>
			<path fill="#F15E26" d="M224,29.57c0.69-1.37,1.38-2.74,2.12-4.08c0.17-0.31,0.35-0.61,0.53-0.91c-0.57,0.85-0.65,0.97-0.22,0.34
				c0.32-0.46,0.68-0.88,1.06-1.29c1.43-1.51,2.03-4,2.3-5.98c0.35-2.55,0.22-5.23-0.5-7.71c-0.91-3.1-3.72-6.89-6.84-3.59
				c-2.41,2.54-3.96,5.96-5.51,9.06c-2.07,4.13-2.07,10.01,0,14.14c0.67,1.33,1.85,2.93,3.54,2.93
				C222.16,32.5,223.33,30.9,224,29.57L224,29.57z"/>
		</g>
	</g>
	<g display="inline">
		<g>
			<path fill="#F15E26" d="M227.78,27.95c-0.3-1.26-0.29-1.71-0.3-2.7c0.01,1.8,0.47-1.47,0.09-0.07c-0.19,0.69,1.01-1.73,0.93-1.61
				c2.34-3.81,1.93-10.28,0-14.14c-1.95-3.9-5.02-3.34-7.07,0c-5.21,8.5-4.46,19.33-2.28,28.62c0.71,3.02,3.92,7.01,6.84,3.59
				C229.08,38.02,228.79,32.25,227.78,27.95L227.78,27.95z"/>
		</g>
	</g>
	<g display="inline">
		<g>
			<path fill="#F15E26" d="M231.47,28.5c0.03-1.13,0-0.89-0.08,0.73c0.15-1.02,0.08-0.81-0.2,0.63c0.09-0.37,0.19-0.73,0.31-1.09
				c-0.47,1.15-0.51,1.31-0.14,0.49c0.17-0.33,0.35-0.66,0.54-0.97c-0.5,0.77-0.51,0.83-0.03,0.16c0.49-0.65,1.06-1.23,1.62-1.81
				c3.12-3.2,2.94-9.76,1.79-13.68c-0.92-3.16-3.69-6.82-6.84-3.59c-5.06,5.19-6.86,12.03-6.98,19.13c-0.05,2.83,0.86,10,5,10
				C230.67,38.5,231.42,31.33,231.47,28.5L231.47,28.5z"/>
		</g>
	</g>
	<g display="inline">
		<g>
			<path fill="#F15E26" d="M231.5,25.93c-3.3-5.2-5.02-9.13-1.01-14.29c2.86-3.68,3.06-9.37,1.79-13.68
				c-0.8-2.73-3.96-7.29-6.84-3.59c-10.11,13.01-9.69,32.02-1.01,45.7c2.09,3.29,5.1,3.94,7.07,0
				C233.41,36.25,233.88,29.68,231.5,25.93L231.5,25.93z"/>
		</g>
	</g>
	<g display="inline">
		<g>
			<path fill="#F15E26" d="M222.99-2.63c-0.25-0.36-0.73-1.49-0.36-0.47c0.53,1.48,0.3,3.31-0.1,4.82
				c-0.15,0.56-0.92,1.58,0.08,0.39c0.58-0.68,1.4-1.04,2.18-1.47c5.95-3.22,3.84-22.8-2.66-19.29
				c-11.99,6.49-11.15,23.41-4.19,33.28c2.74,3.89,6.09-1.03,6.84-3.59C226.1,6.57,225.72,1.23,222.99-2.63L222.99-2.63z"/>
		</g>
	</g>
	<g display="inline">
		<g>
			<path fill="#F15E26" d="M217.29-0.55c0.12,0.54,0.13,2.18,0.13,0.08c0,0.54-0.45,2.29,0.15,0.27c0.15-0.51,1.59-2.28,2.43-3.17
				c3.09-3.27,2.96-9.71,1.79-13.68c-0.91-3.1-3.72-6.89-6.84-3.59c-7.69,8.13-8.62,19.73-6.29,30.18c0.68,3.04,3.94,6.99,6.84,3.59
				C218.6,9.49,218.25,3.77,217.29-0.55L217.29-0.55z"/>
		</g>
	</g>
	<g display="inline">
		<g>
			<path fill="#F15E26" d="M207.99-6.36c4-5.18,8.91-9.23,15.3-10.99c3.91-1.07,3.88-9.49,3.49-12.3c-0.46-3.32-2.02-8.12-6.15-6.98
				c-7.21,1.98-13.2,7.19-17.69,13.01c-2.85,3.69-3.06,9.36-1.79,13.68C201.95-7.23,205.12-2.65,207.99-6.36L207.99-6.36z"/>
		</g>
	</g>
	<g display="inline">
		<g>
			<path fill="#F15E26" d="M211.3,23.14c4.92-1.64,9.36-3.39,13.19-7.01c3.2-3.02,2.9-9.9,1.79-13.68c-0.97-3.31-3.6-6.65-6.84-3.59
				c-2.68,2.53-7.21,3.79-10.81,4.99c-1.6,0.54-2.59,3.22-2.99,4.6c-0.72,2.47-0.85,5.16-0.5,7.71
				C205.58,19.28,207.21,24.51,211.3,23.14L211.3,23.14z"/>
		</g>
	</g>
	<g display="inline">
		<g>
			<path fill="#F15E26" d="M161.49,15.36c-3-4.5-6-9-9-13.5c-2.66-4-6.12,1.13-6.84,3.59c-1.34,4.57-0.85,9.71,1.79,13.68
				c3,4.5,6,9,9,13.5c2.66,4,6.12-1.13,6.84-3.59C164.63,24.48,164.14,19.34,161.49,15.36L161.49,15.36z"/>
		</g>
	</g>
</g>
<g id="Layer_1" display="none">
	<g display="inline">
		<path fill="#FFFFFF" d="M-69.67,117.98c-2.55-0.07-4.63-2.05-4.84-4.59L-88.22-55.19c-0.21-2.58,1.59-4.9,4.14-5.33l53.62-9.14
			c0.28-0.05,0.56-0.07,0.84-0.07c1.11,0,2.2,0.37,3.09,1.07c1.11,0.87,1.8,2.17,1.9,3.58l9.09,127.79l79.73-2.83
			c0.06,0,0.12,0,0.18,0c1.53,0,2.98,0.7,3.93,1.91c0.99,1.25,1.32,2.9,0.89,4.44l-14.37,51.56c-0.6,2.17-2.58,3.66-4.81,3.66
			C49.95,121.43-69.67,117.98-69.67,117.98z"/>
		<path fill="#F15E26" d="M-29.61-64.74l9.44,132.61l84.55-3L50,116.43l-119.53-3.45L-83.23-55.6L-29.61-64.74 M64.37,64.87
			L64.37,64.87 M-29.61-74.74c-0.56,0-1.12,0.05-1.68,0.14l-53.62,9.14c-5.11,0.87-8.71,5.5-8.29,10.67l13.71,168.58
			c0.41,5.08,4.58,9.04,9.68,9.19l119.53,3.45c0.1,0,0.19,0,0.29,0c4.48,0,8.42-2.98,9.63-7.31l14.29-51.26
			c0.29-0.94,0.45-1.95,0.45-2.98c0-5.52-4.47-9.99-9.98-10c-0.01,0-0.01,0-0.02,0c-0.01,0-0.01,0-0.02,0c0,0,0,0,0,0
			c0,0-0.01,0-0.01,0c0,0-0.01,0-0.01,0c0,0,0,0-0.01,0c-0.12,0-0.25,0-0.37,0.01l-74.85,2.66l-8.75-122.98
			c-0.2-2.81-1.58-5.41-3.8-7.16C-25.21-74-27.39-74.74-29.61-74.74L-29.61-74.74z"/>
	</g>
	<g display="inline">
		<path fill="#FFFFFF" d="M115,127.53c-0.11,0-0.23,0-0.34-0.01l-39-2.67c-1.43-0.1-2.75-0.81-3.62-1.94
			c-0.87-1.14-1.22-2.59-0.94-4l38-195c0.46-2.35,2.52-4.04,4.91-4.04h63.17c2.17,0,4.1,1.4,4.76,3.47l61.5,191.56
			c0.47,1.45,0.24,3.04-0.61,4.31c-0.85,1.27-2.23,2.08-3.75,2.2l-42.67,3.44c-0.14,0.01-0.27,0.02-0.4,0.02
			c-2.21,0-4.17-1.45-4.8-3.6l-21.87-75.13l-35.56,2.46l-13.85,74.86C119.48,125.83,117.4,127.53,115,127.53z"/>
		<path fill="#F15E26" d="M177.17-75.13l61.5,191.56L196,119.87l-23-79l-43.45,3L115,122.53l-39-2.67l38-195H177.17 M177.17-85.13
			H114c-4.79,0-8.9,3.39-9.82,8.09l-38,195c-0.55,2.81,0.14,5.73,1.89,8s4.39,3.69,7.25,3.88l39,2.67c0.23,0.02,0.46,0.02,0.69,0.02
			c4.78,0,8.94-3.41,9.83-8.18l13.14-71.04l27.68-1.91l20.75,71.26c1.25,4.3,5.19,7.21,9.6,7.21c0.27,0,0.54-0.01,0.81-0.03
			l42.67-3.44c3.04-0.25,5.81-1.87,7.51-4.41s2.14-5.71,1.21-8.62l-61.5-191.56C185.36-82.33,181.51-85.13,177.17-85.13
			L177.17-85.13z"/>
	</g>
	<g display="inline">
		<path fill="#FFFFFF" d="M426.56,139.06c-20.83,0-61.23-2.19-97.84-16.88c-21.31-8.55-38.16-20.17-50.1-34.55
			c-14.45-17.41-21.77-38.92-21.75-63.93c0.03-43.32,24.18-76.05,69.82-94.66c33.78-13.77,66.99-14.92,68.39-14.96
			c0.05,0,0.1,0,0.15,0c1.48,0,2.88,0.65,3.83,1.79c0.98,1.17,1.38,2.74,1.06,4.24l-10.23,48.79c-0.39,1.87-1.81,3.35-3.67,3.82
			c-0.15,0.04-15.42,3.98-29.92,12.78c-18.43,11.18-27.08,24.6-25.72,39.91c4.63,51.97,81.65,53.47,90.41,53.47
			c0.55,0,0.86-0.01,0.89-0.01c0.04,0,0.07,0,0.1,0c2.24,0,4.21,1.49,4.82,3.65l14,50c0.41,1.46,0.13,3.02-0.75,4.26
			c-0.88,1.23-2.27,2-3.79,2.08C436.13,138.87,432.59,139.06,426.56,139.06z"/>
		<path fill="#F15E26" d="M395.23-80.92L385-32.13c0,0-63.13,15.98-59.39,57.98c5.01,56.29,85.48,58.03,95.4,58.03
			c0.65,0,1-0.01,1-0.01l14,50c0,0-3.48,0.2-9.44,0.2c-36.28,0-164.77-7.27-164.69-110.36C261.94-76.88,395.23-80.92,395.23-80.92
			 M395.23-90.92c-0.1,0-0.2,0-0.3,0c-1.43,0.04-35.52,1.23-70.12,15.33c-47.68,19.43-72.9,53.76-72.94,99.28
			c-0.02,26.21,7.69,48.8,22.9,67.13c12.47,15.02,30,27.14,52.08,36c37.39,15,78.52,17.24,99.7,17.24c6.18,0,9.85-0.2,10.01-0.21
			c3.02-0.17,5.81-1.7,7.57-4.17s2.31-5.59,1.5-8.51l-14-50c-1.21-4.33-5.15-7.3-9.63-7.3c-0.07,0-0.15,0-0.22,0
			c-0.04,0-0.31,0-0.78,0c-4.11,0-25.67-0.36-46.32-7.37c-11.15-3.79-20.08-8.85-26.52-15.05c-7.53-7.24-11.65-15.91-12.6-26.49
			c-2.94-32.97,51.35-47.26,51.9-47.4c3.69-0.94,6.54-3.91,7.32-7.64l10.23-48.79c0.63-3-0.15-6.12-2.12-8.47
			C400.99-89.62,398.18-90.92,395.23-90.92L395.23-90.92z"/>
	</g>
	<g display="inline">
		<path fill="#FFFFFF" d="M513,142.87c-1.36,0-2.65-0.55-3.59-1.52c-0.94-0.97-1.45-2.29-1.4-3.64l2.49-74.17H494.5l-2.5,74.51
			c-0.09,2.69-2.3,4.83-5,4.83h-54c-1.35,0-2.64-0.55-3.58-1.51s-1.45-2.28-1.41-3.63l6-213c0.04-1.39,0.65-2.7,1.7-3.61
			c0.92-0.81,2.09-1.25,3.3-1.25c0.17,0,0.33,0.01,0.5,0.02l56.76,5.7c2.64,0.26,4.61,2.54,4.5,5.19l-3.14,74.79l17.38-0.62
			l2.35-73.9c0.08-2.5,1.99-4.55,4.48-4.81l60.67-6.33c0.17-0.02,0.35-0.03,0.52-0.03c1.28,0,2.51,0.49,3.44,1.38
			c1.06,1.01,1.63,2.43,1.55,3.89l-11.33,213c-0.14,2.65-2.33,4.73-4.99,4.73H513z"/>
		<path fill="#F15E26" d="M583-75.13L583-75.13 M583-75.13l-11.33,213H513l2.67-79.34h-26L487,137.87h-54l6-213l56.76,5.7
			l-3.37,80.19l27.45-0.99l2.49-78.57L583-75.13 M583-85.13c-0.08,0-0.15,0-0.22,0c-0.32,0.01-0.64,0.03-0.95,0.07l-60.53,6.32
			c-4.97,0.52-8.8,4.63-8.96,9.63l-2.2,69.23l-7.31,0.26l2.92-69.39c0.22-5.29-3.72-9.84-8.99-10.37L440-85.08
			c-0.33-0.03-0.67-0.05-1-0.05c-2.42,0-4.77,0.88-6.6,2.49c-2.08,1.83-3.31,4.45-3.39,7.23l-6,213c-0.08,2.7,0.94,5.32,2.83,7.25
			s4.47,3.03,7.17,3.03h54c5.39,0,9.81-4.27,9.99-9.66l2.34-69.68h5.99l-2.32,69c-0.09,2.71,0.92,5.34,2.81,7.29
			c1.88,1.95,4.48,3.05,7.19,3.05h58.67c5.32,0,9.7-4.16,9.99-9.47l11.32-212.76c0.02-0.26,0.03-0.51,0.03-0.78
			c0-5.49-4.42-9.94-9.89-10C583.08-85.13,583.04-85.13,583-85.13L583-85.13z"/>
	</g>
	
		<polygon display="inline" fill="#FFFFFF" stroke="#F15E26" stroke-width="10" stroke-linecap="round" stroke-linejoin="round" stroke-miterlimit="10" points="
		-168,105.76 -107,93.87 -78.87,242.44 -57,143.44 0,143.44 -40,308.37 -121,308.37 	"/>
	
		<polygon display="inline" fill="#FFFFFF" stroke="#F15E26" stroke-width="10" stroke-linecap="round" stroke-linejoin="round" stroke-miterlimit="10" points="
		24.65,145.4 142,150.12 132,193.84 58,193.84 54.37,212.08 98.77,212.08 89,245.62 49,245.62 44.99,263.09 131,266.87 120,313.12 
		-13.25,313.56 	"/>
	
		<path display="inline" fill="#FFFFFF" stroke="#F15E26" stroke-width="10" stroke-linecap="round" stroke-linejoin="round" stroke-miterlimit="10" d="
		M259,144.01c0,0-99.32-10.39-111,79.86c-11,85,49.48,111.71,101.96,89.69c57-23.91,36.61-101.48,36.61-101.48L226,216.01l-1,33.79
		l31-0.17c0,0-12.76,29.39-36.61,29.24c-21.5-0.14-26.39-37.64-26.39-54c0-32.66,54.89-40,54.89-40L259,144.01z"/>
	<g display="inline">
		<path fill="#FFFFFF" d="M141.33,25.02c-1.44,0-2.81-0.62-3.76-1.71s-1.39-2.52-1.2-3.95l8-60.32c0.32-2.45,2.38-4.29,4.85-4.34
			c0.04,0,0.07,0,0.11,0c2.42,0,4.5,1.74,4.92,4.13l10.67,60.32c0.26,1.46-0.14,2.95-1.09,4.08s-2.35,1.79-3.83,1.79H141.33z"/>
		<path fill="#F15E26" d="M149.33-40.3L160,20.02h-18.67L149.33-40.3 M149.34-50.3c-0.07,0-0.15,0-0.22,0
			c-4.93,0.11-9.05,3.79-9.7,8.68l-8,60.32c-0.38,2.86,0.49,5.74,2.39,7.9s4.64,3.41,7.52,3.41H160c2.96,0,5.76-1.31,7.66-3.57
			s2.7-5.26,2.19-8.17l-10.67-60.32C158.33-46.83,154.17-50.3,149.34-50.3L149.34-50.3z"/>
	</g>
	<g display="inline">
		<path fill="#FFFFFF" d="M489.98,318.95c-1.78,0-3.49-0.96-4.39-2.6l-18.64-34.08c-1.14-2.09-0.65-4.69,1.17-6.23l38.18-32.12
			c-4.57-5.52-13.26-16.32-21.72-28.42c-10.88-15.56-24.9-37.71-21.14-50.39c4.92-16.59,29.95-34.93,74.39-54.49
			c32.31-14.22,63.71-24.09,64.02-24.19c0.49-0.15,0.99-0.23,1.49-0.23c0.85,0,1.7,0.22,2.45,0.64c1.2,0.68,2.07,1.82,2.4,3.16
			l10.61,42.97c0.49,2-0.29,4.09-1.97,5.28l-58.45,41.35c5.68,3.64,14.34,9.46,23.05,16.34c20.78,16.43,30.67,29.88,30.23,41.15
			c-0.61,15.77-20.73,33.78-61.51,55.08c-28.93,15.12-58.1,26.33-58.39,26.44C491.18,318.84,490.57,318.95,489.98,318.95z"/>
		<path fill="#F15E26" d="M603.33,91.2l10.61,42.97l-64.61,45.7c0,0,58.22,34.31,57.33,57.02c-1.28,32.85-116.69,77.05-116.69,77.05
			l-18.64-34.08l42-35.33c0,0-50.73-59.05-45.11-78C479.04,130.07,603.33,91.2,603.33,91.2 M603.33,81.2c-1,0-2.01,0.15-2.99,0.46
			c-1.29,0.4-31.98,10.05-64.54,24.39c-19.35,8.52-35.32,16.94-47.45,25.02c-16.8,11.19-26.52,21.86-29.72,32.63
			c-3.38,11.39,3.36,28.25,21.84,54.68c6.88,9.84,13.92,18.84,18.82,24.9l-34.41,28.94c-3.64,3.07-4.62,8.27-2.34,12.45l18.64,34.08
			c1.8,3.29,5.21,5.2,8.78,5.2c1.19,0,2.4-0.21,3.57-0.66c1.2-0.46,29.73-11.43,58.92-26.68c17.41-9.09,31.42-17.84,41.65-25.99
			c14.75-11.75,22.12-22.65,22.53-33.33c0.51-12.97-10-27.78-32.12-45.26c-6.11-4.83-12.2-9.14-17.28-12.57l52.47-37.11
			c3.36-2.38,4.92-6.57,3.93-10.56L613.04,88.8c-0.66-2.68-2.4-4.96-4.8-6.32C606.73,81.64,605.04,81.2,603.33,81.2L603.33,81.2z"/>
	</g>
	
		<polygon display="inline" fill="#FFFFFF" stroke="#F15E26" stroke-width="10" stroke-linecap="round" stroke-linejoin="round" stroke-miterlimit="10" points="
		295,320.91 347.3,152.87 412,163.66 445,308.37 397,320.91 392,268.63 361,268.63 347.3,320.91 	"/>
</g>
<g id="Layer_3" display="none">
	<g display="inline">
		<path fill="#3282C4" d="M204.87,258.88c0,0-0.14-0.49-0.41-1.4c-0.12-0.46-0.28-1.02-0.46-1.68c-0.17-0.67-0.32-1.44-0.52-2.32
			c-0.36-1.75-0.75-3.88-1.04-6.34c-0.32-2.46-0.54-5.25-0.67-8.28c-0.06-1.52-0.1-3.09-0.14-4.71c0-1.61,0-3.27,0-4.98
			c0-3.39,0.08-6.91,0.04-10.39c-0.05-3.48-0.23-6.92-0.7-10.13c-0.51-3.21-1.32-6.15-2.5-8.84c-1.2-2.69-2.8-5.16-4.71-7.52
			c-0.45-0.6-0.97-1.17-1.5-1.74c-0.5-0.57-1.04-1.14-1.6-1.69l-0.81-0.83l-0.88-0.8l-0.86-0.8l-0.21-0.2l-0.05-0.05
			c-0.24-0.21,0.3,0.26,0.23,0.21l-0.03-0.03l-0.14-0.11l-0.54-0.43c-0.63-0.5-1.25-0.99-1.86-1.48c-0.56-0.44-1.16-0.94-1.7-1.34
			c-1.1-0.87-2.12-1.62-3.01-2.28c-0.91-0.64-1.69-1.19-2.59-1.71c-0.89-0.53-2.05-1.05-3.49-1.67c-1.45-0.62-3.11-1.35-4.58-2.22
			c-1.49-0.86-2.8-1.82-3.91-2.8c-2.21-1.97-3.66-3.96-4.72-5.65c-1.03-1.73-1.68-3.16-2.07-4.19c-0.39-1.03-0.54-1.62-0.54-1.62
			s0.62,0,1.7,0.08c1.02,0.09,2.52,0.22,4.42,0.39c1.8,0.18,3.91,0.37,6.03,0.4c1.06,0,2.12-0.04,3.18-0.12
			c1.08-0.09,2.17-0.21,3.6-0.27c1.44-0.05,3.28-0.03,5.43,0.33c2.13,0.36,4.41,1.04,6.47,1.96c2.09,0.9,3.98,2.02,5.74,3.21
			c0.9,0.61,1.69,1.23,2.55,1.9c0.42,0.35,0.84,0.7,1.27,1.06c0.43,0.36,0.71,0.62,1.06,0.95l0.5,0.47l0.13,0.12l0.33,0.29
			l0.07,0.07l0.28,0.28l1.14,1.14l1.13,1.15l1.1,1.24c0.74,0.82,1.48,1.66,2.17,2.58c0.71,0.89,1.41,1.8,2.06,2.78
			c2.66,3.83,4.91,8.26,6.31,12.95c1.37,4.7,1.91,9.54,1.78,14.02c-0.13,4.48-0.79,8.63-1.61,12.44c-0.83,3.81-1.81,7.31-2.79,10.56
			c-0.49,1.62-0.96,3.19-1.42,4.71c-0.47,1.51-0.94,2.96-1.35,4.36c-0.88,2.79-1.61,5.35-2.28,7.64c-0.64,2.29-1.21,4.32-1.63,5.99
			C205.37,256.94,204.87,258.88,204.87,258.88z"/>
	</g>
	<g display="inline">
		<path fill="#3282C4" d="M239.88,381.05c0,0-0.95-0.66-2.72-1.81c-1.78-1.16-4.41-2.8-7.76-4.89c-3.36-2.08-7.44-4.61-12.08-7.68
			c-4.63-3.09-9.8-6.72-15.19-11.36c-2.7-2.32-5.39-4.95-8.05-8.01c-2.65-3.05-5.17-6.64-7.19-11.1c-0.46-1.15-0.95-2.3-1.3-3.56
			l-0.28-0.94l-0.21-0.84l-0.18-0.72l-0.09-0.36c-0.03-0.12-0.06-0.22-0.09-0.42c-0.56-2.98-0.71-5.35-0.71-7.92
			c0.06-5.03,1.03-9.87,2.38-14.45c1.32-4.61,3.14-8.97,5.15-13.19c1.99-4.24,4.24-8.31,6.64-12.28c2.41-3.95,4.86-7.86,7.46-11.61
			c2.54-3.67,5.09-7.35,7.64-11.03l0.23-0.33l0.36-0.51l0.5-0.68l0.99-1.36l1.99-2.72c1.32-1.81,2.65-3.62,3.96-5.42
			c2.61-3.56,5.22-7.11,7.8-10.63c1.26-1.76,2.51-3.51,3.75-5.25c1.25-1.73,2.48-3.46,3.67-5.18c2.39-3.45,4.66-6.89,6.83-10.28
			c1.11-1.69,2.1-3.4,3.14-5.08c0.49-0.85,0.97-1.7,1.46-2.54c0.5-0.83,0.98-1.67,1.43-2.51c1.91-3.33,3.5-6.69,5.05-9.97
			c1.5-3.29,2.81-6.55,3.92-9.75c0.6-1.59,1.04-3.19,1.55-4.76c0.4-1.58,0.86-3.13,1.21-4.67c1.45-6.14,2.13-11.97,2.3-17.21
			c0.17-5.25-0.11-9.92-0.58-13.76c-0.18-1.94-0.47-3.65-0.71-5.16c-0.12-0.76-0.23-1.46-0.33-2.1c-0.13-0.64-0.24-1.22-0.34-1.73
			c-0.4-2.1-0.61-3.22-0.61-3.22s0.59,0.98,1.7,2.81c0.27,0.46,0.58,0.98,0.91,1.55c0.31,0.58,0.63,1.23,0.98,1.92
			c0.35,0.7,0.73,1.45,1.13,2.26c0.4,0.81,0.74,1.7,1.14,2.63c1.63,3.72,3.22,8.45,4.39,14.1c1.17,5.64,1.82,12.24,1.5,19.45
			c-0.29,7.22-1.72,14.98-4.05,22.88c-2.4,7.87-5.72,15.87-9.79,23.66c-1.98,3.94-4.22,7.77-6.51,11.61
			c-1.15,1.92-2.32,3.83-3.52,5.73c-1.21,1.89-2.45,3.77-3.7,5.64c-2.5,3.75-5.02,7.48-7.64,11.14c-2.55,3.59-5.12,7.2-7.68,10.81
			c-5.34,7.56-10.48,14.54-15.15,21.59c-1.15,1.76-2.27,3.52-3.34,5.27c-1.09,1.74-2.13,3.48-3.1,5.22
			c-1.94,3.48-3.64,6.95-4.99,10.33c-1.38,3.38-2.24,6.69-2.71,9.75c-0.2,1.48-0.22,3.13-0.23,4.07c-0.01,0.05,0.01,0.18,0.03,0.31
			l0.05,0.37l0.1,0.73l0.05,0.37l0.02,0.18l0.01,0.09c0.01,0.06-0.03-0.15-0.01-0.04l0.08,0.49c0.07,0.64,0.25,1.33,0.39,2.01
			c0.39,1.37,0.91,2.79,1.57,4.2c0.68,1.41,1.44,2.81,2.29,4.2c1.67,2.78,3.63,5.41,5.62,7.93c4,5.03,8.16,9.51,11.86,13.51
			c3.72,4,7.02,7.51,9.67,10.48c2.67,2.96,4.67,5.4,5.98,7.1c0.66,0.85,1.14,1.52,1.45,1.97
			C239.72,380.82,239.88,381.05,239.88,381.05z"/>
	</g>
	<g display="inline">
		<path fill="#3282C4" d="M275.88,304.05c0,0-0.46-0.44-1.32-1.26c-0.85-0.83-2.07-2.07-3.54-3.7c-1.48-1.63-3.22-3.64-5.1-6.07
			c-1.88-2.43-3.9-5.28-5.88-8.65c-1.01-1.68-1.92-3.53-2.85-5.5c-0.89-2.01-1.71-4.15-2.39-6.51c-1.35-4.67-2.02-10.26-1.22-16.02
			c0.4-2.87,1.15-5.72,2.15-8.47c1.02-2.73,2.31-5.32,3.75-7.78c2.93-4.85,6.43-9.14,10.15-12.92c1.71-1.69,3.41-3.38,5.11-5.07
			c0.45-0.43,0.82-0.83,1.2-1.22l1.15-1.17c0.77-0.77,1.53-1.55,2.28-2.37c3.07-3.19,5.86-6.39,8.41-9.56
			c2.58-3.16,4.78-6.34,6.68-9.5c0.47-0.8,0.94-1.58,1.4-2.35c0.4-0.8,0.77-1.59,1.2-2.37c0.21-0.39,0.41-0.78,0.61-1.16
			c0.17-0.4,0.34-0.79,0.51-1.18c0.34-0.78,0.66-1.55,1.02-2.31c0.58-1.54,1.16-3.05,1.65-4.52c0.44-1.48,0.92-2.9,1.27-4.27
			c0.34-1.37,0.63-2.68,0.97-3.9c0.23-1.23,0.43-2.37,0.65-3.42c0.1-0.53,0.2-1.03,0.3-1.49c0.07-0.47,0.14-0.92,0.2-1.33
			c0.12-0.83,0.24-1.54,0.34-2.13c0.21-1.18,0.33-1.81,0.33-1.81s0.3,0.56,0.82,1.63c0.26,0.54,0.58,1.2,0.93,2
			c0.18,0.4,0.37,0.83,0.57,1.29c0.16,0.47,0.34,0.97,0.52,1.49c0.38,1.06,0.74,2.25,1.16,3.56c0.33,1.32,0.61,2.77,0.95,4.34
			c0.2,0.79,0.24,1.6,0.35,2.45c0.09,0.85,0.18,1.73,0.28,2.63c0.13,0.91,0.06,1.83,0.09,2.8c0,0.96,0.02,1.95,0,2.96
			c-0.29,4-0.82,8.46-2.23,12.92c-1.36,4.46-3.22,9.09-5.72,13.43c-2.46,4.37-5.35,8.64-8.59,12.56c-0.78,1.01-1.64,1.98-2.49,2.96
			l-1.29,1.47c-0.44,0.49-0.88,0.98-1.28,1.4l-2.49,2.62l-2.58,2.6c-3.06,3.09-5.8,6.24-8.06,9.36c-1.08,1.57-2.09,3.12-2.9,4.67
			c-0.81,1.55-1.46,3.1-1.99,4.66c-1,3.13-1.46,6.44-1.36,9.93c0.06,3.48,0.58,7.05,1.23,10.43c0.63,3.39,1.38,6.59,2.04,9.46
			c0.66,2.88,1.27,5.43,1.72,7.56C275.51,301.5,275.88,304.05,275.88,304.05z"/>
	</g>
	<g display="inline">
		<path fill="#3282C4" d="M327.88,285.05c0,0-1.67-1.36-4.22-3.94c-1.29-1.28-2.78-2.89-4.43-4.79c-1.64-1.9-3.41-4.12-5.21-6.66
			c-0.9-1.28-1.83-2.6-2.7-4.06c-0.9-1.43-1.8-2.95-2.64-4.57c-1.74-3.21-3.31-6.81-4.61-10.79c-1.31-3.97-2.18-8.44-2.41-13.25
			c-0.02-1.22-0.01-2.45,0.01-3.68c0.1-1.26,0.26-2.54,0.42-3.81l0.13-0.96l0.23-0.97c0.15-0.65,0.31-1.29,0.48-1.93l0.46-1.72
			l0.43-1.41c0.02-0.09,0.09-0.28,0.16-0.46l0.2-0.53l0.41-1.06c0.29-0.76,0.55-1.27,0.83-1.88c0.53-1.2,1.17-2.28,1.8-3.36
			c1.26-2.15,2.7-4.04,4.16-5.82c2.94-3.53,6.13-6.41,9.29-8.9c3.17-2.49,6.34-4.57,9.39-6.38c3.06-1.8,6-3.33,8.76-4.63
			c5.51-2.6,10.23-4.38,13.62-5.6c3.37-1.22,5.43-1.85,5.43-1.85s-0.23,0.48-0.71,1.36c-0.48,0.87-1.22,2.12-2.24,3.65
			c-1.01,1.53-2.31,3.31-3.84,5.29c-1.53,1.97-3.31,4.12-5.26,6.39s-4.08,4.65-6.27,7.1c-2.19,2.46-4.48,4.99-6.67,7.57
			c-2.19,2.58-4.3,5.23-6.08,7.84c-0.88,1.3-1.7,2.61-2.37,3.87c-0.32,0.63-0.65,1.26-0.91,1.87c-0.12,0.29-0.31,0.66-0.35,0.83
			l-0.28,0.7l-0.45,1.4l-0.03,0.09l-0.06,0.2l-0.01,0.03l-0.03,0.12l-0.06,0.23l-0.12,0.46c-0.08,0.31-0.17,0.61-0.27,0.92
			l-0.15,0.46l-0.08,0.5c-0.1,0.67-0.24,1.33-0.37,2c-0.05,0.72-0.1,1.43-0.19,2.15c-0.14,2.93-0.09,6.08,0.28,9.29
			c0.36,3.21,0.84,6.45,1.45,9.59c0.55,3.14,1.22,6.19,1.77,9.05c1.17,5.73,2.14,10.72,2.66,14.31
			C327.78,282.9,327.88,285.05,327.88,285.05z"/>
	</g>
	<g display="inline">
		<path fill="#3282C4" d="M372.88,259.05c0,0-1.36-0.13-3.44-0.64c-1.05-0.27-2.27-0.52-3.64-1.17c-1.35-0.61-2.95-1.36-4.5-2.36
			c-0.77-0.5-1.54-1.05-2.34-1.65c-0.8-0.59-1.61-1.23-2.35-1.99c-0.76-0.74-1.54-1.53-2.3-2.37c-0.76-0.84-1.41-1.83-2.11-2.8
			c-0.34-0.5-0.69-0.99-1.02-1.51c-0.31-0.53-0.59-1.1-0.89-1.66c-0.54-1.15-1.16-2.27-1.59-3.53c-0.42-1.26-0.82-2.54-1.17-3.85
			c-0.31-1.32-0.45-2.71-0.64-4.08l-0.11-1.03c-0.02-0.34-0.01-0.7-0.01-1.04c-0.01-0.7,0.02-1.39,0.04-2.09
			c0.03-0.69,0.04-1.39,0.12-2.07c0.12-0.68,0.22-1.36,0.36-2.03c0.41-2.71,1.44-5.21,2.47-7.51c0.61-1.11,1.23-2.17,1.88-3.18
			l0.48-0.75c0.17-0.24,0.37-0.46,0.55-0.68c0.37-0.44,0.73-0.88,1.1-1.3c0.37-0.42,0.72-0.83,1.1-1.22
			c0.36-0.4,0.72-0.77,1.13-1.09c0.79-0.67,1.56-1.29,2.32-1.84c1.46-1.17,3.07-1.88,4.41-2.56c1.34-0.67,2.63-1.06,3.71-1.34
			c2.14-0.58,3.46-0.67,3.46-0.67s-0.13,1.4-0.55,3.45c-0.2,1.03-0.5,2.19-0.7,3.55c-0.11,0.67-0.27,1.33-0.41,2.04
			c-0.06,0.36-0.17,0.69-0.24,1.05c-0.05,0.36-0.1,0.73-0.16,1.11c-0.11,0.75-0.24,1.49-0.39,2.23c-0.18,0.73-0.17,1.52-0.3,2.27
			c-0.07,0.76-0.29,1.48-0.28,2.24c-0.03,0.75-0.1,1.49-0.2,2.21c0.02,1.47-0.15,2.87-0.05,4.27c0.01,0.35-0.01,0.69-0.03,1.04
			l0.09,1.04c0.1,0.69-0.03,1.38,0.14,2.09c0.1,0.7,0.13,1.4,0.2,2.12c0.15,0.71,0.25,1.44,0.32,2.18c0,0.37,0.14,0.74,0.21,1.11
			c0.07,0.38,0.14,0.75,0.21,1.13c0.07,0.38,0.09,0.77,0.18,1.15c0.11,0.38,0.19,0.77,0.28,1.15c0.19,0.77,0.29,1.56,0.48,2.35
			c0.22,0.77,0.41,1.56,0.58,2.35c0.09,0.39,0.16,0.79,0.26,1.18c0.11,0.38,0.23,0.76,0.32,1.15c0.2,0.77,0.39,1.53,0.55,2.3
			c0.13,0.8,0.38,1.43,0.53,2.15c0.15,0.71,0.34,1.36,0.47,2.04c0.23,1.33,0.67,2.58,0.88,3.62
			C372.77,257.69,372.88,259.05,372.88,259.05z"/>
	</g>
	<g display="inline">
		<g>
			<path fill="#EF9E29" d="M-177.66,224.52c12.88,16.26,31.86,19.31,51.27,21.55c8.75,1.01,17.52,2.16,25.57,5.94
				c9.03,4.24,14.55,11.85,18.15,20.94c1.56,3.93,5.38,3.38,7.07,0c2.2-4.4,1.75-9.71,0-14.14c-3.9-9.85-10.02-18.44-19.04-24.16
				c-7.82-4.96-17.47-6.7-26.5-7.93c-18.93-2.58-38.61-3.24-51.47-19.47c-2.9-3.67-6.03,0.82-6.84,3.59
				C-180.7,215.12-180.54,220.88-177.66,224.52L-177.66,224.52z"/>
		</g>
	</g>
	<g display="inline">
		<g>
			<path fill="#EF9E29" d="M-134.61,224.25c-3.17-3.67-5.96-7.55-8.22-11.84c-0.7-1.34-1.68-3.66-1.85-4.59
				c0.14,0.78-0.22,2.08-0.48,2.68c0.39-0.93,1.55-1.49,2.35-1.97c5.84-3.49,3.53-22.99-2.66-19.29c-9.9,5.92-10.27,18.38-7.9,28.49
				c2.06,8.79,7.9,17.05,13.7,23.79c3.01,3.49,5.98-0.66,6.84-3.59C-131.6,233.8-131.62,227.71-134.61,224.25L-134.61,224.25z"/>
		</g>
	</g>
	<g display="inline">
		<g>
			<path fill="#EF9E29" d="M-145.82,228.84c-2.1-6.09-4.9-11.91-7-18c-1,4.9-1.99,9.79-2.99,14.69c1.76-1.36,3.92-1.26,6-2
				c6.13-2.19,4.77-21.93-2.66-19.29c-2.15,0.77-4.07,0.51-6,2c-4.02,3.11-4.55,10.17-2.99,14.69c2.1,6.09,4.9,11.91,7,18
				c0.97,2.81,3.77,7.18,6.84,3.59C-144.73,239.15-144.43,232.86-145.82,228.84L-145.82,228.84z"/>
		</g>
	</g>
	<g display="inline">
		<g>
			<path fill="#EF9E29" d="M-166.95,236.54c5.28,32.81,40.6,48.86,70.82,50.34c6.84,0.33,7.12-19.65,0-20
				c-13.07-0.64-25.86-4.21-37.51-10.13c-10.04-5.11-21.8-13.91-23.67-25.53c-0.39-2.44-2.24-9.13-6.15-6.98
				C-167.2,226.3-167.53,232.95-166.95,236.54L-166.95,236.54z"/>
		</g>
	</g>
	<g display="inline">
		<g>
			<path fill="#EF9E29" d="M-147.95,234.23c-1.63,17.47,6.02,31.05,20.4,40.53c11.97,7.89,26.48,12.29,40.42,15.13
				c6.15,1.25,7.29-18.52,0-20c-11.36-2.31-22.5-6.01-32.75-11.45c-5.17-2.75-9.99-6.08-13.95-10.42c-1.69-1.86-2.94-3.84-3.99-6.11
				c0.34,0.74-0.68-2.98-0.4-1.36c-0.12-0.69-0.06-1.47-0.1-1c0.34-3.68,0.4-10.16-3.49-12.3
				C-145.61,225.15-147.72,231.73-147.95,234.23L-147.95,234.23z"/>
		</g>
	</g>
	<g display="inline">
		<g>
			<path fill="#EF9E29" d="M-151.67,253.96c3.46,7.01,0.33,15.17-0.76,22.49c-1.35,9.1-0.57,18.31,2.91,26.85
				c5.51,13.5,17.82,21.45,31.05,26.23c7.41,2.68,8.79-17.07,2.66-19.29c-10.61-3.84-23-9.85-26.67-21.46
				c-2.03-6.41,1.03-14.14,1.9-20.59c1.31-9.72,0.34-19.53-4.02-28.38c-1.8-3.66-5.26-3.62-7.07,0
				C-153.74,243.97-153.72,249.8-151.67,253.96L-151.67,253.96z"/>
		</g>
	</g>
	<g display="inline">
		<g>
			<path fill="#EF9E29" d="M-133.67,266.81c-5.01,12.87-8.08,26.89-3.53,40.39c3.96,11.74,13.33,19.84,22.73,27.32
				c3.54,2.81,5.9-5.13,6.15-6.98c0.58-4.23,0.06-9.48-3.49-12.3c-6.12-4.87-12.67-10.19-16.31-17.27c-1.39-2.71-1.38-3.78-1.32-6.5
				c0.06-2.51,1.62-7.39,2.84-10.52c1.73-4.45,2.21-9.72,0-14.14C-128.28,263.45-132.13,262.87-133.67,266.81L-133.67,266.81z"/>
		</g>
	</g>
	<g display="inline">
		<g>
			<path fill="#EF9E29" d="M-144.95,260.23c-3.25,23.36,1.89,47.07,17.3,65.29c2.99,3.53,5.99-0.7,6.84-3.59
				c1.22-4.17,1.17-10.18-1.79-13.68c-10.33-12.21-14.91-26.83-12.7-42.71c0.5-3.62,0.29-10.22-3.49-12.3
				C-142.68,251.11-144.61,257.77-144.95,260.23L-144.95,260.23z"/>
		</g>
	</g>
	<g display="inline">
		<g>
			<path fill="#EF9E29" d="M-144.95,301.23c-1.96,18.71-0.32,38.19,9.07,54.85c8.84,15.7,23.84,26.16,40.42,32.45
				c7.32,2.78,8.78-16.96,2.66-19.29c-13.5-5.12-26.79-12.91-34.81-25.31c-7.3-11.3-9.07-24.33-7.7-37.39
				c0.38-3.67,0.37-10.18-3.49-12.3C-142.63,292.14-144.69,298.74-144.95,301.23L-144.95,301.23z"/>
		</g>
	</g>
	<g display="inline">
		<g>
			<path fill="#EF9E29" d="M-123.95,311.23c-4.34,27.51,7.9,55.94,28.3,74.29c6.9,6.21,9.73-13.06,5.05-17.27
				c-14.02-12.62-26.81-32-23.7-51.71c0.57-3.6,0.25-10.24-3.49-12.3C-121.71,302.09-123.57,308.79-123.95,311.23L-123.95,311.23z"
				/>
		</g>
	</g>
	<g display="inline">
		<g>
			<path fill="#EF9E29" d="M-133.95,316.23c-4.31,30.35,8.01,58.2,31.49,77.3c3.51,2.86,5.9-5.17,6.15-6.98
				c0.59-4.27,0.04-9.43-3.49-12.3c-15.83-12.88-27.48-31.73-24.51-52.7c0.51-3.62,0.29-10.22-3.49-12.3
				C-131.68,307.11-133.61,313.77-133.95,316.23L-133.95,316.23z"/>
		</g>
	</g>
	<g display="inline">
		<g>
			<path fill="#EF9E29" d="M-128.45,316.84c-7.55,23.89,2.9,50.04,14.76,70.63c11.6,20.14,26.7,39.81,45.23,54.06
				c3.58,2.75,5.89-5.07,6.15-6.98c0.57-4.18,0.09-9.55-3.49-12.3c-15.61-12-28.51-28.79-38.75-45.45
				c-5.48-8.92-10.34-18.38-13.57-28.36c-1.5-4.63-2.31-8.44-2.77-13.26c0.15,1.57,0.16-4.9,0-2.98c0.23-2.79,0.24-2.62,1.07-5.26
				c1.3-4.1,1.14-10.25-1.79-13.68C-124.64,309.7-127.54,313.97-128.45,316.84L-128.45,316.84z"/>
		</g>
	</g>
	<g display="inline">
		<g>
			<path fill="#EF9E29" d="M-95.13,422.88c-0.22,6.46-10.75,12.29-15.33,15.36c-3.68,2.46-4.03,8.36-3.49,12.3
				c0.29,2.15,2.43,9.47,6.15,6.98c5.37-3.59,10.69-7.36,14.95-12.27c5.42-6.25,7.44-14.28,7.72-22.37c0.1-2.83-0.9-10-5-10
				C-94.37,412.88-95.03,420.05-95.13,422.88L-95.13,422.88z"/>
		</g>
	</g>
	<g display="inline">
		<g>
			<path fill="#EF9E29" d="M-88.66,427.25c-11.54,10.71-12.72,27.74-7.01,41.71c1.59,3.89,5.36,3.41,7.07,0
				c2.18-4.37,1.8-9.75,0-14.14c-1.68-4.1,2.18-7.69,4.99-10.29C-78.99,440.23-81.88,420.96-88.66,427.25L-88.66,427.25z"/>
		</g>
	</g>
	<g display="inline">
		<g>
			<path fill="#EF9E29" d="M-82.66,426.25c-11.12,15.83-14.8,42.66,4.19,54.28c6.12,3.74,8.47-15.73,2.66-19.29
				c-8.19-5.01-7.06-10.25-1.81-17.72c2.72-3.87,3.11-9.2,1.79-13.68C-76.56,427.29-79.92,422.35-82.66,426.25L-82.66,426.25z"/>
		</g>
	</g>
	<g display="inline">
		<g>
			<path fill="#EF9E29" d="M-86.95,440.23c-1.01,9.38,0.63,18.15,6.32,25.8c4.65,6.26,12.26,10.31,19.18,13.5
				c6.91,3.19,8.72-16.49,2.66-19.29c-4.37-2.02-8.57-4.28-12.45-7.15c-1.73-1.28-6.32-5.07-6.06-7.55
				c0.4-3.67,0.36-10.18-3.49-12.3C-84.63,431.14-86.69,437.74-86.95,440.23L-86.95,440.23z"/>
		</g>
	</g>
	<g display="inline">
		<g>
			<path fill="#EF9E29" d="M-78.67,443.96c3.56,5.53,7.74,9.92,12.61,14.3c4.76,4.29,8.26,8.28,9.61,14.68
				c0.65,3.06,3.95,6.97,6.84,3.59c3.13-3.67,2.71-9.34,1.79-13.68c-1.49-7.05-4.75-13.31-9.71-18.53
				c-4.64-4.88-10.38-8.74-14.08-14.49c-2.1-3.27-5.09-3.96-7.07,0C-80.57,433.61-81.07,440.22-78.67,443.96L-78.67,443.96z"/>
		</g>
	</g>
	<g display="inline">
		<g>
			<path fill="#EF9E29" d="M-59.67,449.96c5.56,13.13,13.61,27.48,27.21,33.57c6.98,3.13,8.74-16.56,2.66-19.29
				c-11.71-5.25-18.01-17.14-22.79-28.43c-1.63-3.85-5.35-3.45-7.07,0C-61.83,440.14-61.51,445.6-59.67,449.96L-59.67,449.96z"/>
		</g>
	</g>
	<g display="inline">
		<g>
			<path fill="#EF9E29" d="M-47.45,451.93c4.34,16.27,20.33,23.66,34.99,28.6c7.52,2.53,8.79-17.22,2.66-19.29
				c-9.55-3.22-26.05-8.29-29.01-19.4c-0.79-2.96-3.88-7.06-6.84-3.59C-48.68,441.79-48.57,447.71-47.45,451.93L-47.45,451.93z"/>
		</g>
	</g>
	<g display="inline">
		<g>
			<path fill="#EF9E29" d="M-11.45,460.93c2.02,7.1-1.17,12.47-5.21,18.32c-2.7,3.91-3.12,9.17-1.79,13.68
				c0.74,2.52,4.13,7.52,6.84,3.59c9.68-14.04,13.57-28.91,8.79-45.68c-0.83-2.92-3.85-7.09-6.84-3.59
				C-12.65,450.75-12.64,456.76-11.45,460.93L-11.45,460.93z"/>
		</g>
	</g>
	<g display="inline">
		<g>
			<path fill="#EF9E29" d="M-8.45,446.84c-4.74,18.81-8.43,37.31,1.78,55.12c1.98,3.45,5.16,3.81,7.07,0
				c1.98-3.96,2.25-10.22,0-14.14c-2.27-3.95-4.32-8.19-3.98-12.87c0.43-6.12,2.28-12.09,3.77-18.01
				c1.07-4.25,1.26-10.11-1.79-13.68C-4.55,439.8-7.7,443.85-8.45,446.84L-8.45,446.84z"/>
		</g>
	</g>
	<g display="inline">
		<g>
			<path fill="#EF9E29" d="M-20.67,466.81c-2.75,4.62-5.25,9.38-8,14c-2.3,3.86-1.95,10.24,0,14.14c1.93,3.86,5.05,3.39,7.07,0
				c2.75-4.62,5.25-9.38,8-14c2.3-3.86,1.95-10.24,0-14.14C-15.53,462.95-18.65,463.42-20.67,466.81L-20.67,466.81z"/>
		</g>
	</g>
	<g display="inline">
		<g>
			<path fill="#EF9E29" d="M-95.13,417.88c-3.03-0.8-6.56-2.79-8.48-4.63c-3.22-3.1-5.88,0.31-6.84,3.59
				c-1.12,3.81-1.39,10.61,1.79,13.68c3.95,3.81,8.26,5.98,13.52,7.37c1.52,0.4,3.04-1.94,3.54-2.93c1.08-2.16,1.46-4.68,1.46-7.07
				C-90.13,424.15-90.99,418.98-95.13,417.88L-95.13,417.88z"/>
		</g>
	</g>
	<g display="inline">
		<g>
			<path fill="#EF9E29" d="M-103.13,421.88c-1.66-0.04-3.16-0.31-4.71-0.88c-1.74-0.65-3.81-1.84-4.77-2.75
				c-3.24-3.07-5.87,0.28-6.84,3.59c-1.11,3.79-1.4,10.64,1.79,13.68c3.95,3.75,9,6.22,14.52,6.37c4.16,0.11,5-7.26,5-10
				C-98.13,428.96-98.95,421.99-103.13,421.88L-103.13,421.88z"/>
		</g>
	</g>
	<g display="inline">
		<g>
			<path fill="#EF9E29" d="M-99.6,408.81c-4.06-6.54-9.25-11.74-15.21-16.57c-3.52-2.85-5.9,5.16-6.15,6.98
				c-0.59,4.27-0.04,9.44,3.49,12.3c3.97,3.22,8.08,7.05,10.79,11.43c2.06,3.32,5.11,3.92,7.07,0
				C-97.67,419.11-97.24,412.61-99.6,408.81L-99.6,408.81z"/>
		</g>
	</g>
	<g display="inline">
		<g>
			<path fill="#EF9E29" d="M-116.46,397.24c-4.62,1.91-9.28,4.84-12.19,9.01c-2.72,3.88-3.11,9.19-1.79,13.68
				c0.75,2.55,4.11,7.49,6.84,3.59c2.42-3.46,5.65-5.27,9.81-6.99c1.62-0.67,2.55-3.11,2.99-4.6c0.72-2.47,0.85-5.16,0.5-7.71
				C-110.71,401.36-112.44,395.58-116.46,397.24L-116.46,397.24z"/>
		</g>
	</g>
	<g display="inline">
		<g>
			<path fill="#EF9E29" d="M-107.61,412.25c-2.87-2.87-5.83-5.71-9.19-8.01c-3.7-2.53-5.86,4.87-6.15,6.98
				c-0.55,3.97-0.18,9.79,3.49,12.3c0.61,0.42,1.21,0.85,1.79,1.3c0.3,0.23,0.59,0.47,0.88,0.71c-0.96-0.79,0.44,0.41,0.51,0.48
				c1.25,1.12,2.44,2.31,3.62,3.5c3.18,3.18,5.9-0.38,6.84-3.59c0.72-2.47,0.85-5.16,0.5-7.71
				C-105.58,416.31-106.17,413.69-107.61,412.25L-107.61,412.25z"/>
		</g>
	</g>
	<g display="inline">
		<g>
			<path fill="#EF9E29" d="M-103.8,388.24c-6.43-2.22-12.6-5.08-19.33-6.36c-4.03-0.76-5,7.8-5,10c0,3.49,0.82,9.21,5,10
				c5.78,1.1,11.13,3.74,16.67,5.64C-98.98,410.11-97.67,390.35-103.8,388.24L-103.8,388.24z"/>
		</g>
	</g>
	<g display="inline">
		<g>
			<path fill="#EF9E29" d="M-112.61,379.25c-4.23-4.17-8.89-8.25-14.19-11.01c-6.61-3.43-8.64,16.18-2.66,19.29
				c4.43,2.3,8.27,5.5,11.81,8.99c3.2,3.15,5.89-0.36,6.84-3.59C-109.69,389.08-109.45,382.37-112.61,379.25L-112.61,379.25z"/>
		</g>
	</g>
	<g display="inline">
		<g>
			<path fill="#EF9E29" d="M-127.8,352.24c-6.96-2.13-12.99-6-19-10c-3.72-2.48-5.85,4.83-6.15,6.98c-0.54,3.93-0.19,9.85,3.49,12.3
				c6.01,4,12.04,7.87,19,10c4.11,1.26,5.71-3.77,6.15-6.98C-123.91,361.63-123.9,353.44-127.8,352.24L-127.8,352.24z"/>
		</g>
	</g>
	<g display="inline">
		<g>
			<path fill="#EF9E29" d="M-127.61,342.25c-4.08-4.18-7.49-8.77-9.21-14.41c-0.88-2.89-3.83-7.12-6.84-3.59
				c-2.95,3.46-3.05,9.56-1.79,13.68c2.49,8.19,6.81,15.47,12.79,21.59c3.16,3.23,5.91-0.42,6.84-3.59
				C-124.67,352.02-124.48,345.45-127.61,342.25L-127.61,342.25z"/>
		</g>
	</g>
	<g display="inline">
		<g>
			<path fill="#EF9E29" d="M-95.31,232.23c-1.59-10.73-6.13-20.15-12.3-28.98c-2.73-3.91-6.1,1.04-6.84,3.59
				c-1.32,4.49-0.92,9.8,1.79,13.68c3.56,5.1,6.78,10.8,7.7,17.02c0.36,2.45,2.26,9.12,6.15,6.98
				C-95.04,242.46-94.78,235.84-95.31,232.23L-95.31,232.23z"/>
		</g>
	</g>
	<g display="inline">
		<g>
			<path fill="#EF9E29" d="M-111.61,238.52c3.65-4.56,7.15-8.94,12.81-10.99c3.9-1.41,3.92-9.22,3.49-12.3
				c-0.42-3.03-2.08-8.46-6.15-6.98c-6.47,2.35-11.02,7.79-15.19,13.01c-2.9,3.62-3.04,9.42-1.79,13.68
				C-117.63,237.72-114.53,242.17-111.61,238.52L-111.61,238.52z"/>
		</g>
	</g>
	<g display="inline">
		<g>
			<path fill="#EF9E29" d="M-97.61,239.52c4.97-5.07,9.03-10.93,14-16c3.13-3.19,2.94-9.77,1.79-13.68
				c-0.93-3.17-3.68-6.81-6.84-3.59c-4.97,5.07-9.03,10.93-14,16c-3.13,3.19-2.94,9.77-1.79,13.68
				C-103.52,239.1-100.77,242.75-97.61,239.52L-97.61,239.52z"/>
		</g>
	</g>
	<g display="inline">
		<g>
			<path fill="#EF9E29" d="M-107.61,226.25c-1.58-1.6-3.11-3.24-4.52-5c-0.59-0.73-0.74-0.97-1.19-1.77
				c-1.16-2.05,0.2,1.75,0.01,3.06c0.53-3.61,0.28-10.23-3.49-12.3c-3.88-2.14-5.79,4.53-6.15,6.98
				c-1.54,10.59,3.1,19.01,10.3,26.29c3.17,3.21,5.91-0.4,6.84-3.59C-104.67,236.03-104.47,229.42-107.61,226.25L-107.61,226.25z"/>
		</g>
	</g>
	<g display="inline">
		<g>
			<path fill="#EF9E29" d="M13.87,76.88c-0.31-6.84-0.32-14.47,3.09-20.64c2.93-5.3,8.83-8.57,13.48-9.55
				c2.27-0.48,11.36-3.03,5.38-6.04c-5.75-2.89-14.38-2.89-20.52-1.58c-9.6,2.04-20.07,4.97-26.23,13.22
				c-5.19,6.94-5.57,16.31-5.2,24.59C-15.83,83.64,14.15,82.99,13.87,76.88L13.87,76.88z"/>
		</g>
	</g>
	<g display="inline">
		<g>
			<path fill="#EF9E29" d="M12.33,68.48c7.5-18.64-3.09-35.07-16.51-47.64c-4.55-4.26-15.1-3.43-20.52-2.16
				c-4.34,1.02-10.05,3.86-5.38,8.23c10.19,9.54,19.21,24.14,13.49,38.36c-2.2,5.46,6.9,7.01,10.48,7.4
				C-2.11,73.13,10.26,73.63,12.33,68.48L12.33,68.48z"/>
		</g>
	</g>
	<g display="inline">
		<g>
			<path fill="#EF9E29" d="M1.82,66.45c-25.26-20.57-60.31-18.15-90.95-19.36c-5.02-0.2-15,2.14-15,8.79c0,6.92,9.98,8.6,15,8.79
				c5.83,0.23,11.66,0.31,17.49,0.46c3.39,0.08,6.77,0.21,10.15,0.37c1.47,0.07,2.94,0.16,4.41,0.26c1.82,0.13,1.96,0.14,0.43,0.03
				c0.98,0.09,1.96,0.18,2.94,0.29c2.91,0.29,5.81,0.71,8.7,1.18c1.42,0.23,2.83,0.52,4.24,0.81c1.67,0.39,1.86,0.41,0.56,0.09
				c0.9,0.23,1.8,0.48,2.7,0.75c5.42,1.56,9.54,3.25,13.43,6.42c5.65,4.6,13.68,5.51,20.52,3.15C0.9,76.94,7.45,71.03,1.82,66.45
				L1.82,66.45z"/>
		</g>
	</g>
	<g display="inline">
		<g>
			<path fill="#EF9E29" d="M-66.7,72.13c-16.46,1.11-33.98,2.33-44.43,16.75c-0.52,0.72,4.78,1.49,4.39,1.44
				c3.51,0.47,7.07,0.59,10.61,0.59c3.05,0,12.83,0.97,15-2.03c7.55-10.43,18.05-12.47,29.57-13.25c1.09-0.07,11.24-1.42,5.38-2.78
				C-52.76,71.34-60.02,71.68-66.7,72.13L-66.7,72.13z"/>
		</g>
	</g>
	<g display="inline">
		<g>
			<path fill="#EF9E29" d="M-61.18,73.13c-4.62-1.79-9.52-2.86-14-5c-2.6-1.24-6.16-1.42-8.96-1.59c-3.84-0.24-7.74-0.17-11.56,0.35
				c-2.11,0.29-11.04,2.05-5.38,4.75c4.48,2.14,9.38,3.21,14,5c6.19,2.4,14.07,2.12,20.52,1.25
				C-64.85,77.65-55.15,75.47-61.18,73.13L-61.18,73.13z"/>
		</g>
	</g>
	<g display="inline">
		<g>
			<path fill="#EF9E29" d="M-34.13,69.88c0-7.67,0-15.33,0-23c0-6.49-30-6.49-30,0c0,7.67,0,15.33,0,23
				C-64.13,76.38-34.13,76.38-34.13,69.88L-34.13,69.88z"/>
		</g>
	</g>
	<g display="inline">
		<g>
			<path fill="#EF9E29" d="M-8.13,62.88c-1.13-9.52-3.38-18.49-7.54-27.16c-0.82-1.71-5.47-2.36-6.89-2.6
				c-3.8-0.65-7.72-0.74-11.56-0.44c-2.42,0.19-12.61,0.91-10.48,5.35c3.73,7.79,5.45,16.32,6.46,24.84
				C-37.29,69.99-7.49,68.31-8.13,62.88L-8.13,62.88z"/>
		</g>
	</g>
	<g display="inline">
		<g>
			<path fill="#EF9E29" d="M-13.74,104.52c13.86,7.79,30.39,12.57,40.65,25.39c6.23,7.78,35.03,3.35,25.9-8.04
				C41.38,107.58,22.9,101.92,7.47,93.25c-6.03-3.39-15.17-3.21-21.21,0C-19.33,96.22-19.11,101.5-13.74,104.52L-13.74,104.52z"/>
		</g>
	</g>
	<g display="inline">
		<g>
			<path fill="#EF9E29" d="M-12.6,122.11c7.82,16.15,27.91,19.71,44.05,20.36c15.22,0.61,30.6-2.22,45.4-5.5
				c4.25-0.94,13.61-3.95,10.48-10.31c-2.87-5.83-12.91-7.09-18.45-5.86c-4.92,1.09-9.86,2.11-14.83,2.97
				c-2.98,0.52-5.97,0.94-8.97,1.32c-1.55,0.19-3.11,0.35-4.67,0.49c-1.72,0.14-1.57,0.13,0.45-0.03c-1.18,0.08-2.36,0.12-3.54,0.16
				c-1.56,0.06-3.13,0.05-4.69,0.03c-0.82-0.01-5.99-0.39-1.74-0.02c-1.48-0.13-2.94-0.34-4.4-0.58c-0.71-0.12-1.42-0.26-2.12-0.41
				c3.58,0.73,0.22-0.03-0.46-0.24c-0.64-0.21-1.28-0.44-1.91-0.68c1.5,0.68,1.61,0.71,0.33,0.1c-0.48-0.23-3.76-2.43-1.68-0.86
				c-1-0.75-1.87-1.65-2.72-2.57c-0.74-0.87-0.8-0.96-0.19-0.26c-0.55-0.8-0.97-1.68-1.4-2.56
				C11.52,107.73-18.04,110.87-12.6,122.11L-12.6,122.11z"/>
		</g>
	</g>
	<g display="inline">
		<g>
			<path fill="#EF9E29" d="M71.87,123.88c-0.38,1.58,0.42-1.09,0.44-1.13c0.28-0.8,0.65-1.57,1.01-2.34
				c0.37-0.77,2.76-4.33,1.72-3.02c1.08-1.37,2.35-2.58,3.64-3.75c0.67-0.6,1.38-1.15,2.09-1.69c-2.16,1.66,1.05-0.62,1.49-0.89
				c1.64-0.99,3.37-1.83,5.12-2.62c-2.94,1.34,0.12,0,0.64-0.2c1.27-0.48,2.56-0.88,3.85-1.28c0.99-0.3,1.99-0.56,2.99-0.82
				c-3.63,0.94-0.18,0.05,0.5-0.09c2.43-0.49,4.9-0.83,7.36-1.11c0.81-0.09,4.52-0.34,0.29-0.06c1.07-0.07,2.14-0.1,3.22-0.13
				c2.13-0.06,4.27-0.02,6.4,0.07c3.7,0.15-3.44-0.32,0.22,0c1.04,0.09,2.07,0.22,3.1,0.35c1.02,0.13,2.03,0.29,3.04,0.46
				c0.8,0.13,5.31,1.12,1.32,0.18c1.87,0.44,3.71,1,5.53,1.61c0.88,0.29,1.73,0.63,2.59,0.97c-3.33-1.31,0.33,0.23,0.99,0.56
				c0.79,0.4,5.01,3.22,2.57,1.42c1.44,1.06,2.73,2.32,3.92,3.65c4.5,5.07,14.74,4.81,20.52,2.95c5.27-1.69,9.9-6.16,5.38-11.26
				c-6.63-7.48-16.87-11.74-26.37-14.12c-13.38-3.36-27-3.91-40.7-2.53c-21.35,2.15-47.41,11.72-52.89,34.81
				c-1.5,6.3,11.54,8.23,15,8.23C62.83,132.12,70.32,130.4,71.87,123.88L71.87,123.88z"/>
		</g>
	</g>
	<g display="inline">
		<g>
			<path fill="#EF9E29" d="M208.33,15.7c-4.24-10.21-10.78-19.11-18.51-26.96c-4.83-4.91-14.48-4.88-20.52-2.94
				c-4.98,1.59-10.23,6.3-5.38,11.23c6.67,6.77,11.83,14.23,15.49,23.04C183.51,29.97,213.13,27.27,208.33,15.7L208.33,15.7z"/>
		</g>
	</g>
	<g display="inline">
		<g>
			<path fill="#EF9E29" d="M230.87,23.88c0.09-5.24,1.16-10.26,3.48-14.97c1.28-2.59,3.03-4.89,5.02-6.97
				c0.63-0.66,1.5-1.14,2.26-1.63c1.97-1.29,0.33-0.16-0.78-0.04c2.12-0.22,13.96-2.16,10.48-6.87c-3.5-4.74-13.43-4.43-18.45-3.9
				c-9.77,1.04-18.63,4.37-24.83,12.24c-4.76,6.05-7.04,14.56-7.18,22.15C200.72,31.8,230.72,32.02,230.87,23.88L230.87,23.88z"/>
		</g>
	</g>
	<g display="inline">
		<g>
			<path fill="#EF9E29" d="M261.87,45.88c0.9-8.67,1.55-17.46,4.39-25.76c1.26-3.69,3.15-7.05,5.86-9.85
				c1.47-1.52,3.25-2.69,5.09-3.7c0.88-0.49,4.35-1.12,1.65-0.96c0.55-0.03,13.36-1.5,10.48-3.46c-4.52-3.09-13.37-2.26-18.45-1.97
				c-12.96,0.75-25.65,3.04-32.49,15.11c-5.13,9.07-5.48,20.5-6.53,30.61C231.53,49.15,261.34,50.91,261.87,45.88L261.87,45.88z"/>
		</g>
	</g>
	<g display="inline">
		<g>
			<path fill="#EF9E29" d="M338.82,69.84c-3.94-3.05-8.82-6.38-11.68-10.17c-2.92-3.87-3.17-7.19,1.34-10.12
				c5.04-3.28,5.87-8.2,0-11.34c-5.75-3.08-15.54-3.69-21.21,0c-8.32,5.41-15.04,12.52-10.75,22.85
				c2.95,7.11,10.53,12.31,16.4,16.86c5.64,4.37,13.84,4.97,20.52,2.88C337.63,79.49,344.48,74.22,338.82,69.84L338.82,69.84z"/>
		</g>
	</g>
	<g display="inline">
		<g>
			<path fill="#EF9E29" d="M330.87,85.88c-2.53-9.88-3.47-20.29-1.7-30.38c1.6-9.11,7.19-19.7,17.31-21.13
				c0.28-0.04,4.39-0.4,4.39-1.5s-4.11-1.46-4.39-1.5c-6.92-0.98-14.3-0.97-21.21,0c-12.39,1.75-21.3,7.69-25.09,19.93
				c-3.41,11.01-2.11,23.59,0.7,34.57c0.72,2.8,13.14,2.12,15,2.12C316.72,88,331.34,87.72,330.87,85.88L330.87,85.88z"/>
		</g>
	</g>
	<g display="inline">
		<g>
			<path fill="#EF9E29" d="M371.87,75.88c-0.69-11.17,0.68-25.78,10.61-33c4.92-3.58,6.02-8.6,0-12.01
				c-5.59-3.17-15.74-3.98-21.21,0c-14.89,10.83-20.51,26.93-19.39,45c0.41,6.69,9.82,8.49,15,8.49
				C361.37,84.37,372.28,82.52,371.87,75.88L371.87,75.88z"/>
		</g>
	</g>
	<g display="inline">
		<path fill="#EF9E29" d="M284.3-62.36c0,0,0.32,0.57,0.92,1.62c0.28,0.55,0.7,1.15,1.19,1.86c0.46,0.73,1.08,1.51,1.79,2.39
			c1.43,1.73,3.3,3.74,5.76,5.69c2.44,1.98,5.4,3.96,8.83,5.77c6.85,3.63,15.53,6.58,25.1,8.31c9.56,1.74,20.01,2.44,30.35,1.56
			c5.18-0.37,10.25-1.54,15.3-2.42c5.04-0.92,10.03-1.69,14.9-2.13c4.86-0.46,9.63-0.41,14.05,0.36c4.41,0.79,8.46,2.23,11.82,4.23
			l0.64,0.34l0.6,0.4c0.4,0.27,0.79,0.53,1.18,0.79c0.76,0.54,1.57,0.99,2.23,1.58c0.69,0.57,1.35,1.12,2,1.66
			c0.32,0.27,0.64,0.53,0.96,0.8c0.31,0.27,0.58,0.56,0.87,0.84c1.12,1.12,2.22,2.13,3.14,3.14c0.91,1.03,1.74,1.98,2.49,2.83
			c0.77,0.84,1.37,1.66,1.92,2.36c0.54,0.7,1,1.29,1.38,1.77c0.75,0.96,1.15,1.48,1.15,1.48s-0.4-0.51-1.16-1.47
			c-0.38-0.48-0.84-1.07-1.39-1.76c-0.55-0.69-1.15-1.51-1.93-2.34c-0.76-0.85-1.59-1.79-2.5-2.82c-0.93-1.01-2.03-2-3.15-3.12
			c-0.29-0.27-0.56-0.57-0.87-0.83c-0.32-0.26-0.64-0.52-0.96-0.79c-0.65-0.53-1.32-1.08-2.01-1.64c-0.67-0.59-1.48-1.02-2.24-1.56
			c-0.39-0.26-0.78-0.52-1.18-0.79l-0.6-0.4l-0.64-0.34c-3.36-1.98-7.4-3.39-11.78-4.14c-4.39-0.74-9.14-0.77-13.98-0.28
			c-4.85,0.47-9.82,1.26-14.85,2.21c-5.03,0.91-10.12,2.11-15.33,2.52c-10.39,0.95-20.89,0.31-30.52-1.38
			c-9.64-1.68-18.41-4.6-25.37-8.24c-3.48-1.81-6.51-3.81-9-5.81c-2.52-1.98-4.45-4.03-5.93-5.79c-0.73-0.89-1.38-1.69-1.87-2.46
			c-0.51-0.74-0.96-1.38-1.24-1.91c-0.61-1.06-0.93-1.62-0.93-1.62L284.3-62.36z"/>
	</g>
	<g display="inline">
		<path fill="#EF9E29" d="M364.1,440.87c0,0-0.16-0.36-0.46-1.04c-0.3-0.65-0.74-1.73-1.29-2.88c-0.27-0.59-0.58-1.25-0.91-1.96
			c-0.36-0.74-0.74-1.55-1.16-2.41c-0.83-1.73-1.8-3.72-2.83-5.97c-0.52-1.12-1.03-2.34-1.56-3.58c-0.25-0.65-0.5-1.31-0.76-1.98
			c-0.13-0.33-0.26-0.67-0.39-1.01c-0.12-0.36-0.23-0.71-0.35-1.08c-0.98-2.82-1.73-6.12-1.89-9.64c-0.01-0.44-0.02-0.89-0.03-1.33
			c-0.02-0.44-0.02-0.89,0.04-1.35c0.09-0.9,0.19-1.81,0.29-2.72c0.22-0.89,0.43-1.79,0.65-2.69l0.17-0.67l0.25-0.64l0.51-1.28
			l0.52-1.27c0.2-0.41,0.43-0.79,0.65-1.18c0.45-0.78,0.88-1.58,1.36-2.32c1.05-1.38,2.12-2.91,3.13-4.02
			c0.95-1.18,2.21-2.47,3.38-3.7c1.2-1.12,2.37-2.27,3.6-3.3c2.42-2.12,4.9-4,7.3-5.79c4.83-3.54,9.41-6.62,13.25-9.37
			c1.92-1.37,3.66-2.66,5.19-3.82c1.51-1.18,2.82-2.22,3.86-3.12c1.07-0.87,1.84-1.63,2.4-2.12c0.55-0.5,0.84-0.77,0.84-0.77
			s-0.25,0.3-0.73,0.87c-0.48,0.56-1.16,1.42-2.11,2.42c-0.92,1.04-2.1,2.24-3.46,3.62c-1.38,1.36-2.95,2.88-4.69,4.49
			c-3.48,3.24-7.65,6.9-11.89,10.95c-2.11,2.03-4.25,4.15-6.24,6.41c-1.03,1.11-1.95,2.29-2.91,3.45c-0.85,1.18-1.69,2.25-2.56,3.65
			c-0.94,1.37-1.5,2.55-2.22,3.76c-0.29,0.62-0.52,1.25-0.78,1.86c-0.12,0.31-0.27,0.61-0.37,0.92l-0.23,0.94l-0.24,0.92l-0.12,0.46
			l-0.05,0.47c-0.07,0.61-0.14,1.22-0.2,1.83c0.02,0.61,0.04,1.21,0.06,1.81c-0.01,0.29,0.03,0.59,0.09,0.89l0.15,0.89
			c0.44,2.35,1.23,4.63,2.33,6.81c0.13,0.27,0.25,0.54,0.38,0.81c0.15,0.27,0.29,0.54,0.44,0.8c0.29,0.53,0.57,1.05,0.85,1.56
			c0.62,1.03,1.19,2.02,1.79,2.99c1.2,1.92,2.38,3.71,3.43,5.33c0.53,0.82,1.02,1.58,1.48,2.28c0.47,0.75,0.9,1.43,1.29,2.05
			c0.81,1.26,1.3,2.14,1.71,2.79c0.38,0.63,0.59,0.97,0.59,0.97L364.1,440.87z"/>
	</g>
</g>
<g id="Layer_2">
	<circle fill="#F15F26" cx="328.89" cy="126.62" r="119.08"/>
	<circle fill="#F15F26" cx="124.26" cy="136.77" r="115.42"/>
	<g>
		<circle fill="#98DAF0" cx="330.55" cy="124.97" r="80.22"/>
	</g>
	<circle fill="#98DAF0" cx="124.26" cy="138.41" r="88.41"/>
	
		<ellipse stroke="#000000" stroke-width="10" stroke-linecap="round" stroke-linejoin="round" stroke-miterlimit="10" cx="311.51" cy="112.98" rx="28.02" ry="28.45"/>
	
		<circle stroke="#000000" stroke-width="10" stroke-linecap="round" stroke-linejoin="round" stroke-miterlimit="10" cx="153.72" cy="147.32" r="29.47"/>
	<ellipse fill="#FFFFFF" cx="298.64" cy="102.47" rx="15.16" ry="15.39"/>
	<circle fill="#FFFFFF" cx="167.75" cy="136.77" r="14.03"/>
</g>
</svg>
