<?xml version="1.0" encoding="utf-8"?>
<!-- Generator: Adobe Illustrator 16.0.0, SVG Export Plug-In . SVG Version: 6.00 Build 0)  -->
<!DOCTYPE svg PUBLIC "-//W3C//DTD SVG 1.1//EN" "http://www.w3.org/Graphics/SVG/1.1/DTD/svg11.dtd">
<svg version="1.1" xmlns="http://www.w3.org/2000/svg" xmlns:xlink="http://www.w3.org/1999/xlink" x="0px" y="0px" width="873px"
	 height="485px" viewBox="0 0 873 485" enable-background="new 0 0 873 485" xml:space="preserve">
<g id="Layer_5">
	<polyline fill="#F15E27" points="88.12,28.12 11.62,215.32 49.87,455.6 275.51,464.6 581.13,464.6 825.07,473.6 853.08,424.1 
		842.58,199.11 853.08,19.12 449.8,34.12 197.88,19.12 	"/>
</g>
<g id="Layer_4" display="none">
	<g display="inline">
		<path fill="#F15E26" d="M149.63,158.84c0,0-0.19-0.52-0.54-1.5c-0.17-0.49-0.39-1.1-0.64-1.81c-0.12-0.36-0.26-0.74-0.4-1.15
			c-0.16-0.38-0.33-0.79-0.52-1.22c-0.36-0.85-0.75-1.78-1.19-2.8c-0.47-1.01-0.99-2.1-1.54-3.27c-1.13-2.3-2.56-4.81-4.19-7.43
			c-0.8-1.31-1.76-2.61-2.67-3.97c-0.5-0.65-1-1.32-1.51-2c-0.5-0.67-1.01-1.35-1.59-2c-2.18-2.68-4.7-5.27-7.38-7.78
			c-2.72-2.49-5.69-4.81-8.76-7.01c-3.15-2.12-6.39-4.12-9.76-5.84c-3.39-1.71-7.05-2.86-10.65-3.72c-1.82-0.4-3.58-0.81-5.33-1.16
			c-0.86-0.22-1.71-0.42-2.56-0.61c-0.85-0.2-1.67-0.45-2.48-0.69c-1.65-0.42-3.2-1.04-4.76-1.58c-0.78-0.27-1.53-0.62-2.29-0.92
			c-0.76-0.3-1.52-0.6-2.26-0.92c-1.49-0.65-2.97-1.2-4.41-1.86c-1.45-0.57-2.86-1.22-4.25-1.81c-2.77-1.18-5.41-2.37-7.85-3.48
			c-1.21-0.51-2.38-1.07-3.47-1.59c-1.1-0.51-2.12-0.95-3.07-1.43c-1.89-0.95-3.44-1.62-4.53-2.25c-1.08-0.56-1.69-0.93-1.69-0.93
			l-0.46-2.96c0,0,0.48-0.51,1.42-1.34c0.94-0.84,2.35-2.07,4.26-3.27c0.95-0.63,2.03-1.26,3.23-1.94c1.2-0.6,2.52-1.25,3.96-1.86
			c0.72-0.34,1.47-0.6,2.24-0.86c0.78-0.27,1.58-0.56,2.42-0.82c1.67-0.55,3.44-0.9,5.31-1.32c1.87-0.37,3.84-0.59,5.89-0.81
			c1.02-0.05,2.07-0.12,3.13-0.14c1.06-0.04,2.14-0.05,3.23,0.01c4.38,0.1,8.98,0.82,13.51,2.33c4.52,1.56,8.89,3.99,13,6.86
			c4.1,2.91,8.04,6.05,11.89,9.2c3.81,3.21,7.41,6.63,10.61,10.28c3.19,3.67,5.95,7.56,8.36,11.43c1.12,2.01,2.28,3.91,3.2,5.9
			c0.48,0.98,0.97,1.94,1.4,2.9c0.41,0.98,0.81,1.94,1.21,2.9c0.41,0.94,0.75,1.9,1.08,2.84c0.33,0.94,0.65,1.86,0.97,2.77
			c0.52,1.86,1.07,3.62,1.47,5.34c0.83,3.44,1.31,6.62,1.64,9.42c0.13,1.4,0.25,2.71,0.37,3.92c0.03,1.23,0.06,2.36,0.09,3.38
			c0.01,0.5,0.02,0.98,0.03,1.43c-0.02,0.43-0.03,0.84-0.05,1.21c-0.03,0.75-0.06,1.39-0.08,1.91c-0.05,1.04-0.08,1.6-0.08,1.6
			L149.63,158.84z"/>
	</g>
	<g display="inline">
		<g>
			<path fill="#F15E26" d="M152.14,172.48c-23.95-21.57-61.82-18.26-91.02-11.86c-7.29,1.6-6.07,21.33,0,20
				c14.79-3.24,29.92-5.01,45.07-4.39c14.24,0.58,29.98,3.69,40.9,13.52C153.99,195.96,156.82,176.69,152.14,172.48L152.14,172.48z"
				/>
		</g>
	</g>
	<g display="inline">
		<g>
			<path fill="#F15E26" d="M175.61,185.61c0.04-15.63,1.13-31.55,8.29-45.8c7.82-15.58,22.96-24.76,39.04-30.05
				c6.13-2.02,4.89-21.77-2.66-19.29c-18.71,6.16-34.22,17.56-43.45,35.19c-9.51,18.17-11.16,39.81-11.21,59.94
				c-0.01,2.83,0.84,10,5,10C174.79,195.61,175.61,188.44,175.61,185.61L175.61,185.61z"/>
		</g>
	</g>
	<g display="inline">
		<g>
			<path fill="#F15E26" d="M174.93,102.57c-1.94-7.32-3.37-15.57-3.46-21.85c-0.08-5.87,0.36-9.39,3.46-14.97
				c7.4-13.31,27.21-13.8,40.69-12.63c6.7,0.58,7.2-19.38,0-20c-18.69-1.62-38.34,1.54-48.18,19.25c-9.94,17.89-6.1,41.56-1.14,60.3
				c0.78,2.96,3.88,7.06,6.84,3.59C176.16,112.7,176.05,106.79,174.93,102.57L174.93,102.57z"/>
		</g>
	</g>
	<g display="inline">
		<g>
			<path fill="#F15E26" d="M175.43,87.78c1.49-19.02-2.65-36.53-11.79-53.23c-1.92-3.51-5.19-3.75-7.07,0
				c-2.01,4.02-2.19,10.14,0,14.14c5.72,10.44,10.17,21.64,9.21,33.77c-0.29,3.7-0.43,10.14,3.49,12.3
				C173.07,96.84,175.24,90.29,175.43,87.78L175.43,87.78z"/>
		</g>
	</g>
	<g display="inline">
		<g>
			<path fill="#F15E26" d="M174.93,54.57c-1.39-3.77-1.28-4.58,1.77-7.96c3.69-4.09,9.67-5.36,14.91-5.49c7.07-0.17,6.93-20.17,0-20
				c-9.48,0.23-18.08,4.29-23.14,12.5c-5.59,9.07-5.8,21.23-2.18,31.05c1.02,2.76,3.74,7.22,6.84,3.59
				C175.97,64.93,176.39,58.54,174.93,54.57L174.93,54.57z"/>
		</g>
	</g>
	<g display="inline">
		<g>
			<path fill="#F15E26" d="M179.44,81.26c11.35-5.6,25.83-11.44,37.84-4.5c6.3,3.64,8.54-15.89,2.66-19.29
				c-13.72-7.93-30.1-1.94-43.16,4.5C170.76,64.94,172.69,84.59,179.44,81.26L179.44,81.26z"/>
		</g>
	</g>
	<g display="inline">
		<g>
			<path fill="#F15E26" d="M193.11,86.12c12.3-1.69,23.57-6.29,34.33-12.36c5.91-3.33,3.71-22.88-2.66-19.29
				c-9.96,5.62-20.26,10.07-31.67,11.64C185.85,67.12,186.64,87.01,193.11,86.12L193.11,86.12z"/>
		</g>
	</g>
	<g display="inline">
		<g>
			<path fill="#F15E26" d="M182.44,78.26c12.53-10.41,30.24-8.56,45.17-5.64c6.2,1.21,7.29-18.58,0-20
				c-15.7-3.06-34.67-4.57-47.83,6.36c-3.51,2.92-4.09,7.99-3.49,12.3C176.54,73.06,178.95,81.16,182.44,78.26L182.44,78.26z"/>
		</g>
	</g>
	<g display="inline">
		<g>
			<path fill="#F15E26" d="M324.63,50.98c-4.23-5.85-6.82-12.78-9.49-19.44c-1.57-3.92-5.38-3.39-7.07,0
				c-2.19,4.39-1.77,9.72,0,14.14c3.17,7.92,6.48,15.62,11.51,22.56c2.78,3.84,6.08-0.98,6.84-3.59
				C327.72,60.23,327.39,54.8,324.63,50.98L324.63,50.98z"/>
		</g>
	</g>
	<g display="inline">
		<g>
			<path fill="#F15E26" d="M330.63,38.98c-1.37-2.09,0.23,1.58-0.22,3.25c-0.01,0.04,1.46-1.64,1.92-2.01
				c3.09-2.51,6.88-3.48,10.78-3.6c7.08-0.21,6.91-20.21,0-20c-20.72,0.62-27.97,23.7-17.52,39.63c2.64,4.02,6.13-1.15,6.84-3.59
				C333.77,48.07,333.25,42.98,330.63,38.98L330.63,38.98z"/>
		</g>
	</g>
	<g display="inline">
		<g>
			<path fill="#F15E26" d="M354.93,52.76c13.01-6.88,25.76-4.78,37.84,3c5.94,3.83,8.4-15.59,2.66-19.29
				c-13.6-8.77-28.6-10.7-43.16-3C346.31,36.63,348.37,56.23,354.93,52.76L354.93,52.76z"/>
		</g>
	</g>
	<g display="inline">
		<g>
			<path fill="#F15E26" d="M398.6,90.62c20.31-4.27,40.97-6.1,61.5-9c7.27-1.02,6.46-20.91,0-20c-20.52,2.9-41.19,4.73-61.5,9
				C391.31,72.15,392.49,91.9,398.6,90.62L398.6,90.62z"/>
		</g>
	</g>
	<g display="inline">
		<g>
			<path fill="#F15E26" d="M487.63,96.05c-5.73-13.97-8.66-27.65,6.79-35.78c5.97-3.14,3.92-22.75-2.66-19.29
				c-25.69,13.53-20.36,46.9-11.21,69.21c1.6,3.89,5.36,3.42,7.07,0C489.81,105.82,489.43,100.44,487.63,96.05L487.63,96.05z"/>
		</g>
	</g>
	<g display="inline">
		<g>
			<path fill="#F15E26" d="M487.42,83.28c1.07-6.05,3.14-11.71,7.26-16.33c4.91-5.51,12.41-6.73,19.41-6.32
				c6.81,0.4,7.15-19.58,0-20c-9.44-0.55-17.83,2.23-24.46,9.05c-7.2,7.41-10.12,18.44-11.86,28.29c-0.63,3.57-0.21,10.26,3.49,12.3
				C485.2,92.42,486.99,85.7,487.42,83.28L487.42,83.28z"/>
		</g>
	</g>
	<g display="inline">
		<g>
			<path fill="#F15E26" d="M502.42,71.28c1.1-7.28,3.19-13.34,10.01-17.01c5.95-3.21,3.85-22.79-2.66-19.29
				c-11.47,6.18-15.17,18.92-16.99,30.98c-0.54,3.61-0.27,10.23,3.49,12.3C500.16,80.4,502.05,73.72,502.42,71.28L502.42,71.28z"/>
		</g>
	</g>
	<g display="inline">
		<g>
			<path fill="#F15E26" d="M534.91,54.57c-2.35-6.83,1.6-11.7,7.51-15.31c5.82-3.54,3.47-23.02-2.66-19.29
				c-15.13,9.22-19.02,28.61-13.49,44.69c0.97,2.81,3.77,7.18,6.84,3.59C536,64.88,536.3,58.6,534.91,54.57L534.91,54.57z"/>
		</g>
	</g>
	<g display="inline">
		<g>
			<path fill="#F15E26" d="M529.63,62.19c5.65-9.33,16.69-14.28,26.29-18.43c6.09-2.63,4.41-22.34-2.66-19.29
				c-12.29,5.31-23.6,11.84-30.71,23.57c-2.32,3.83-1.94,10.26,0,14.14C524.5,66.07,527.6,65.55,529.63,62.19L529.63,62.19z"/>
		</g>
	</g>
	<g display="inline">
		<g>
			<path fill="#F15E26" d="M546.62,54.75c8.78-8.36,21.91-10.65,33.47-12.13c7.25-0.93,6.52-20.84,0-20
				c-13.89,1.79-28.08,4.92-38.52,14.86C537,41.84,539.95,61.11,546.62,54.75L546.62,54.75z"/>
		</g>
	</g>
	<g display="inline">
		<g>
			<path fill="#F15E26" d="M573.92,49.76c8.41-6.74,17.92-9.99,28.67-10.14c7.04-0.1,6.96-20.1,0-20
				c-11.48,0.17-22.33,3.64-31.33,10.86c-3.54,2.84-4.08,8.05-3.49,12.3C568.02,44.62,570.39,52.59,573.92,49.76L573.92,49.76z"/>
		</g>
	</g>
	<g display="inline">
		<g>
			<path fill="#F15E26" d="M600.92,48.26c3.44-2.18,8.16-4.21,12.34-3c4.12,1.19,5.7-3.72,6.15-6.98c0.35-2.55,0.22-5.23-0.5-7.71
				c-0.38-1.31-1.4-4.14-2.99-4.6c-6.16-1.78-12.28-0.42-17.66,3c-3.72,2.36-4.02,8.45-3.49,12.3
				C595.08,43.51,597.16,50.65,600.92,48.26L600.92,48.26z"/>
		</g>
	</g>
	<g display="inline">
		<g>
			<path fill="#F15E26" d="M552.13,143.19c2.5-6.04,6.24-9.72,12.79-12.43c6.11-2.53,4.5-22.25-2.66-19.29
				c-8.1,3.35-13.87,9.5-17.21,17.57c-1.81,4.38-2.18,9.79,0,14.14C546.77,146.61,550.52,147.07,552.13,143.19L552.13,143.19z"/>
		</g>
	</g>
	<g display="inline">
		<g>
			<path fill="#F15E26" d="M561.92,136.76c1.55-0.96,2.63-1.36,4.47-1.23c0.67,0.05,0.4,0.03,1.29,0.52
				c0.58,0.4,0.58,0.39,0.02-0.03c0.5,0.62,0.45,0.51-0.14-0.32c0.74,1.32,1.79,2.93,3.54,2.93c1.69,0,2.87-1.59,3.54-2.93
				c1.99-3.98,2.23-10.19,0-14.14c-1.67-2.97-3.77-4.98-7.11-5.79c-2.83-0.69-5.83,0.22-8.25,1.72c-3.73,2.3-4.02,8.5-3.49,12.3
				C556.09,132.05,558.13,139.1,561.92,136.76L561.92,136.76z"/>
		</g>
	</g>
	<g display="inline">
		<g>
			<path fill="#F15E26" d="M567.92,130.76c10.65-4.53,21.43-8.32,33.17-7.14c6.64,0.67,7.22-19.27,0-20
				c-12.52-1.26-24.48,3.03-35.83,7.86C559.17,114.07,560.82,133.78,567.92,130.76L567.92,130.76z"/>
		</g>
	</g>
	<g display="inline">
		<g>
			<path fill="#F15E26" d="M592.09,117.62c3.8,0.08,7.26,0.99,10.67,2.64c6.8,3.29,8.69-16.37,2.66-19.29
				c-4.13-2-8.73-3.26-13.33-3.36c-4.16-0.09-5,7.24-5,10C587.09,110.52,587.92,117.53,592.09,117.62L592.09,117.62z"/>
		</g>
	</g>
	<g display="inline">
		<g>
			<path fill="#F15E26" d="M605.12,113.25c2.86-4.35,4.94-9.39,9.31-12.49c3.64-2.58,4.05-8.27,3.49-12.3
				c-0.28-2.05-2.49-9.58-6.15-6.98c-2.68,1.9-4.85,4.19-6.76,6.85c-1.02,1.42-1.94,2.92-2.89,4.39c-0.45,0.71-0.89,1.42-1.33,2.13
				c0.09-0.15-1.35,2.11-0.71,1.14c-2.63,4-3.14,9.09-1.79,13.68C598.99,112.1,602.47,117.27,605.12,113.25L605.12,113.25z"/>
		</g>
	</g>
	<g display="inline">
		<g>
			<path fill="#F15E26" d="M609.92,97.76c6.24-3.12,12.36-6.36,18-10.5c3.62-2.66,4.06-8.2,3.49-12.3
				c-0.27-1.99-2.52-9.65-6.15-6.98c-5.64,4.14-11.76,7.38-18,10.5C601.25,81.48,603.21,101.12,609.92,97.76L609.92,97.76z"/>
		</g>
	</g>
	<g display="inline">
		<g>
			<path fill="#F15E26" d="M618.91,65.07c0.81,2.82,0.64,6.45-1.04,8.93c0.18-0.25,0.38-0.48,0.59-0.7c1.02-1.15-1.01,0.7,0.27-0.25
				c1.4-1.04,3.06-1.72,4.69-2.28c1.61-0.56,2.58-3.2,2.99-4.6c0.72-2.47,0.85-5.16,0.5-7.71c-0.42-3.08-2.07-8.4-6.15-6.98
				c-3.02,1.05-5.94,2.7-7.95,5.25c-3.96,5.06-4.26,12.48-2.54,18.43c0.84,2.92,3.85,7.09,6.84,3.59
				C620.1,75.26,620.11,69.24,618.91,65.07L618.91,65.07z"/>
		</g>
	</g>
	<g display="inline">
		<g>
			<path fill="#F15E26" d="M615.92,60.26c2.42-1.12,4.93-1.14,7.67-1.14c4.17,0,5-7.16,5-10c0-2.83-0.83-10-5-10
				c-3.58,0-7.04,0.33-10.33,1.86C607.2,43.79,609.02,63.47,615.92,60.26L615.92,60.26z"/>
		</g>
	</g>
	<g display="inline">
		<g>
			<path fill="#F15E26" d="M614.59,42.62c2,0,4,0,6,0c1.69,0,2.87-1.59,3.54-2.93c1.08-2.16,1.46-4.68,1.46-7.07
				s-0.38-4.91-1.46-7.07c-0.67-1.33-1.85-2.93-3.54-2.93c-2,0-4,0-6,0c-1.69,0-2.87,1.59-3.54,2.93c-1.08,2.16-1.46,4.68-1.46,7.07
				s0.38,4.91,1.46,7.07C611.72,41.03,612.9,42.62,614.59,42.62L614.59,42.62z"/>
		</g>
	</g>
	<g display="inline">
		<g>
			<path fill="#F15E26" d="M522.1,56.62c0.07-3.12-0.27,1.92,0.12-1.2c0.16-1.29,0.4-2.57,0.61-3.86c0.46-2.79,0.7-5.61,0.77-8.44
				c0.06-2.83-0.87-10-5-10c-4.21,0-4.94,7.17-5,10c-0.07,3.12,0.27-1.92-0.12,1.2c-0.16,1.29-0.4,2.57-0.61,3.86
				c-0.46,2.79-0.7,5.61-0.77,8.44c-0.06,2.83,0.87,10,5,10C521.31,66.62,522.03,59.45,522.1,56.62L522.1,56.62z"/>
		</g>
	</g>
	<g display="inline">
		<g>
			<path fill="#F15E26" d="M497.12,78.75c2.98-3.06,5.11-6.77,7.01-10.56c2.07-4.13,2.07-10.01,0-14.14
				c-0.67-1.33-1.85-2.93-3.54-2.93c-1.69,0-2.87,1.59-3.54,2.93c-0.68,1.35-1.37,2.7-2.13,4c-0.42,0.69-0.41,0.67,0.05-0.06
				c-0.23,0.34-0.47,0.67-0.72,1c-0.66,0.89-1.41,1.71-2.18,2.5c-3.12,3.21-2.94,9.76-1.79,13.68
				C491.2,78.32,493.97,81.99,497.12,78.75L497.12,78.75z"/>
		</g>
	</g>
	<g display="inline">
		<g>
			<path fill="#F15E26" d="M474.93,163.97c-2.39-1.23-4.46-2.57-6.24-4.51c-0.95-1.04-1.24-1.59-1.62-2.29
				c-0.04-0.08-0.98-2.46-0.48-1.03c-0.29-0.84-0.48-1.71-0.67-2.57c-0.67-3.05-3.94-6.98-6.84-3.59
				c-3.12,3.65-2.74,9.35-1.79,13.68c1.89,8.63,7.15,15.56,14.99,19.59C478.9,186.67,480.92,167.06,474.93,163.97L474.93,163.97z"/>
		</g>
	</g>
	<g display="inline">
		<g>
			<path fill="#F15E26" d="M466.1,151.61c-2.31-0.06-3.69-0.6-5.65-2.05c0.85,0.63-0.58-0.69-0.6-0.71
				c-0.14-0.16-1.28-1.83-0.47-0.51c-0.34-0.56-0.62-1.16-0.89-1.75c0.83,1.84,0.02-0.16-0.08-0.53c-0.8-2.95-3.87-7.07-6.84-3.59
				c-3.02,3.53-2.93,9.48-1.79,13.68c2.12,7.81,7.6,15.21,16.32,15.45c4.16,0.12,5-7.26,5-10
				C471.1,158.69,470.28,151.73,466.1,151.61L466.1,151.61z"/>
		</g>
	</g>
	<g display="inline">
		<g>
			<path fill="#F15E26" d="M464.12,142.48c-2.66-3.73-4.33-8.11-3.7-12.71c0.49-3.63,0.3-10.21-3.49-12.3
				c-3.87-2.13-5.82,4.52-6.15,6.98c-1.7,12.52,0.95,24.97,8.3,35.29c2.76,3.87,6.09-1.01,6.84-3.59
				C467.22,151.7,466.86,146.33,464.12,142.48L464.12,142.48z"/>
		</g>
	</g>
	<g display="inline">
		<g>
			<path fill="#F15E26" d="M460.63,126.04c-0.4-0.89-0.4-0.86,0.01,0.1c-0.72-2.15,0.28,2.01-0.04-0.18
				c-0.33-2.28,0.08,2.38,0.01,0.09c-0.02-0.64-0.01-1.29-0.01-1.93c0-2.83-0.83-10-5-10c-4.17,0-5,7.17-5,10
				c0,5.58,0.59,10.96,2.96,16.07c0.62,1.34,1.88,2.93,3.54,2.93c1.69,0,2.87-1.59,3.54-2.93
				C462.75,135.96,462.6,130.28,460.63,126.04L460.63,126.04z"/>
		</g>
	</g>
	<g display="inline">
		<g>
			<path fill="#F15E26" d="M465.93,121.97c-4.81-1.71-9.18-5.41-11.29-9.43c-1.88-3.57-5.22-3.7-7.07,0
				c-2.03,4.07-2.13,10.08,0,14.14c3.32,6.31,8.86,12.13,15.71,14.57c4.07,1.45,5.73-3.94,6.15-6.98c0.35-2.55,0.22-5.23-0.5-7.71
				C468.5,125.16,467.54,122.55,465.93,121.97L465.93,121.97z"/>
		</g>
	</g>
	<g display="inline">
		<g>
			<path fill="#F15E26" d="M468.93,109.97c-8.67-3.06-15.52-8.42-21.3-15.49c-2.95-3.6-6.01,0.76-6.84,3.59
				c-1.24,4.23-1.13,10.11,1.79,13.68c6.34,7.74,14.19,14.15,23.69,17.51C473.72,131.89,475.06,112.14,468.93,109.97L468.93,109.97z
				"/>
		</g>
	</g>
	<g display="inline">
		<g>
			<path fill="#F15E26" d="M470.77,96.47c0.37-0.11,0.25-0.11-0.36,0.01c-0.52,0.07-1.04,0.01-1.55-0.06
				c0.51,0.17,0.48,0.14-0.11-0.08c-0.48-0.19-0.92-0.49-1.35-0.77c0.48,0.45,0.45,0.43-0.08-0.07c-0.44-0.41-0.83-0.88-1.22-1.33
				c-0.72-0.85-1.35-1.77-1.97-2.69c-2.69-3.97-6.11,1.1-6.84,3.59c-1.33,4.54-0.88,9.74,1.79,13.68c1.69,2.49,3.57,4.71,6.1,6.4
				c2.59,1.73,5.45,1.43,8.25,0.61c1.59-0.47,2.6-3.28,2.99-4.6c0.72-2.47,0.85-5.16,0.5-7.71
				C476.47,100.21,474.89,95.26,470.77,96.47L470.77,96.47z"/>
		</g>
	</g>
	<g display="inline">
		<g>
			<path fill="#F15E26" d="M479.43,90.47c-4.29-2.93-7.88-6.71-10.8-10.99c-2.7-3.95-6.11,1.08-6.84,3.59
				c-1.33,4.53-0.89,9.76,1.79,13.68c3.5,5.12,8.08,9.51,13.19,13.01c3.7,2.53,5.86-4.87,6.15-6.98
				C483.47,98.8,483.1,92.98,479.43,90.47L479.43,90.47z"/>
		</g>
	</g>
	<g display="inline">
		<g>
			<path fill="#F15E26" d="M488.6,69.12c-0.27,0-0.54-0.02-0.81-0.07c-1.36-0.16,0.95,0.37-0.43-0.14c-0.8-0.29-1.54-0.73-2.27-1.17
				c-0.3-0.19-0.59-0.39-0.87-0.6c-1.39-1,0.81,0.8-0.39-0.36c-0.24-0.24-0.46-0.49-0.68-0.75c-1.09-1.26,0.73,1.39-0.02,0.01
				c-0.72-1.33-1.81-2.93-3.54-2.93c-1.69,0-2.87,1.59-3.54,2.93c-2.01,4.03-2.18,10.13,0,14.14c2.44,4.49,7.18,8.7,12.54,8.93
				c1.67,0.07,2.9-1.65,3.54-2.93c1.08-2.16,1.46-4.68,1.46-7.07C493.6,76.14,492.78,69.29,488.6,69.12L488.6,69.12z"/>
		</g>
	</g>
	<g display="inline">
		<g>
			<path fill="#F15E26" d="M516.13,57.05c-0.85-1.64-1.85-3.17-2.87-4.72c-0.23-0.35-1.45-2.23-0.31-0.45
				c-0.48-0.75-0.91-1.54-1.32-2.33c-0.69-1.33-1.83-2.93-3.54-2.93c-1.69,0-2.87,1.59-3.54,2.93c-2.05,4.1-2.11,10.05,0,14.14
				c0.85,1.64,1.85,3.17,2.87,4.72c0.23,0.35,1.45,2.23,0.31,0.45c0.48,0.75,0.91,1.54,1.32,2.33c0.69,1.33,1.83,2.93,3.54,2.93
				c1.69,0,2.87-1.59,3.54-2.93C518.18,67.09,518.24,61.14,516.13,57.05L516.13,57.05z"/>
		</g>
	</g>
	<g display="inline">
		<g>
			<path fill="#F15E26" d="M690.55,452.17c3.42,8.2,9.49,13.29,18.53,13.43c4.16,0.06,5-7.22,5-10c0-2.88-0.83-9.94-5-10
				c-2.82-0.04-5.17-0.41-7.58-1.9c-0.64-0.39-1.41-1.23-2.23-2.29c0.77,0.99-0.6-1.06-0.59-1.05c-0.4-0.75-0.73-1.55-1.06-2.34
				c-1.61-3.87-5.35-3.43-7.07,0C688.38,442.38,688.73,447.8,690.55,452.17L690.55,452.17z"/>
		</g>
	</g>
	<g display="inline">
		<g>
			<path fill="#F15E26" d="M707.05,449.17c3.55,6.89,8.78,12.5,15.71,16.07c6.63,3.42,8.65-16.2,2.66-19.29
				c-5.05-2.61-8.99-6.46-11.29-10.93c-1.86-3.6-5.23-3.68-7.07,0C705,439.12,704.94,445.08,707.05,449.17L707.05,449.17z"/>
		</g>
	</g>
	<g display="inline">
		<g>
			<path fill="#F15E26" d="M718.56,447.73c4.49,5.85,10.34,10.13,16.19,14.51c3.61,2.7,5.88-5.02,6.15-6.98
				c0.57-4.13,0.11-9.61-3.49-12.3c-5.08-3.8-9.91-7.41-13.8-12.49c-2.86-3.73-6.05,0.88-6.84,3.59
				C715.5,438.39,715.72,444.03,718.56,447.73L718.56,447.73z"/>
		</g>
	</g>
	<g display="inline">
		<g>
			<path fill="#F15E26" d="M728.76,448.74c7.73,5.93,17.05,9.2,26.83,7.86c7.26-1,6.48-20.89,0-20c-9.11,1.25-16.98-1.62-24.17-7.14
				c-3.58-2.75-5.89,5.07-6.15,6.98C724.69,440.61,725.17,445.99,728.76,448.74L728.76,448.74z"/>
		</g>
	</g>
	<g display="inline">
		<g>
			<path fill="#F15E26" d="M737.58,440.1c10.5,1.5,21,3,31.5,4.5c6.45,0.92,7.27-18.96,0-20c-10.5-1.5-21-3-31.5-4.5
				C731.13,419.18,730.32,439.06,737.58,440.1L737.58,440.1z"/>
		</g>
	</g>
	<g display="inline">
		<g>
			<path fill="#F15E26" d="M761.77,429.15c1.9,5.79,3.48,11.83,6.78,17.02c2.09,3.29,5.1,3.95,7.07,0c1.91-3.81,2.38-10.39,0-14.14
				c-2.68-4.22-3.62-8.11-5.22-12.98c-0.93-2.84-3.79-7.16-6.84-3.59C760.65,418.88,760.43,425.08,761.77,429.15L761.77,429.15z"/>
		</g>
	</g>
	<g display="inline">
		<g>
			<path fill="#F15E26" d="M769.25,424.74c4.07,3.14,7.83,7.61,9.01,11.9c0.81,2.94,3.87,7.07,6.84,3.59
				c3.01-3.53,2.95-9.48,1.79-13.68c-2.4-8.73-7.92-15.64-14.99-21.09c-3.57-2.76-5.89,5.08-6.15,6.98
				C765.19,416.63,765.68,421.98,769.25,424.74L769.25,424.74z"/>
		</g>
	</g>
	<g display="inline">
		<g>
			<path fill="#F15E26" d="M775.08,423.6c5.5,0,11,0,16.5,0c7,0,7-20,0-20c-5.5,0-11,0-16.5,0
				C768.08,403.6,768.08,423.6,775.08,423.6L775.08,423.6z"/>
		</g>
	</g>
	<g display="inline">
		<g>
			<path fill="#F15E26" d="M793.25,412.74c2.3,1.12,4.76,1.86,7.33,1.86c1.69,0,2.87-1.6,3.54-2.93c1.08-2.16,1.46-4.68,1.46-7.07
				s-0.38-4.91-1.46-7.07c-0.67-1.34-1.85-2.93-3.54-2.93c-1.07,0-2.1-0.08-3.14-0.36c0.44,0.12,0.89,0.24,1.33,0.36
				c-0.99-0.29-1.93-0.69-2.86-1.14C789.13,390.15,787.22,409.8,793.25,412.74L793.25,412.74z"/>
		</g>
	</g>
	<g display="inline">
		<g>
			<path fill="#F15E26" d="M816.6,342.74c2.81-4.14,6.19-7.86,9-12c2.67-3.94,3.12-9.14,1.79-13.68c-0.73-2.49-4.15-7.55-6.84-3.59
				c-2.81,4.14-6.19,7.86-9,12c-2.67,3.94-3.12,9.14-1.79,13.68C810.49,341.65,813.91,346.7,816.6,342.74L816.6,342.74z"/>
		</g>
	</g>
	<g display="inline">
		<g>
			<path fill="#F15E26" d="M819.91,349.75c4.97-2.52,9.72-5.64,15-7.5c3.9-1.37,3.91-9.25,3.49-12.3c-0.42-3.06-2.07-8.42-6.15-6.98
				c-5.28,1.86-10.03,4.98-15,7.5C811.25,333.51,813.23,353.13,819.91,349.75L819.91,349.75z"/>
		</g>
	</g>
	<g display="inline">
		<g>
			<path fill="#F15E26" d="M823.08,354.6c0.79,0.01,1.56,0.06,2.34,0.16c0.25,0.03,1.58,0.42,0.33,0.03
				c0.38,0.12,0.75,0.29,1.11,0.47c0.36,0.17,0.68,0.4,1,0.63c-1.28-0.9-0.34-0.25-0.03,0.1c1,1.13-0.83-1.5-0.05-0.12
				c0.28,0.5,0.78,2.03-0.02-0.22c0.6,1.69,1.29,3.66,2.99,4.6c1.42,0.78,2.88,0.13,3.85-1.01c2.86-3.35,3.21-9.68,1.79-13.68
				c-1.28-3.62-2.85-6.53-5.88-8.95c-1.98-1.58-4.98-1.97-7.44-2c-4.16-0.05-5,7.21-5,10C818.08,347.48,818.91,354.55,823.08,354.6
				L823.08,354.6z"/>
		</g>
	</g>
	<g display="inline">
		<g>
			<path fill="#F15E26" d="M826.08,371.1c2.75,0.1,5.13,1.38,7.67,2.64c6.72,3.35,8.67-16.28,2.66-19.29
				c-3.24-1.62-6.65-3.23-10.33-3.36c-4.15-0.15-5,7.29-5,10C821.08,364.06,821.9,370.96,826.08,371.1L826.08,371.1z"/>
		</g>
	</g>
	<g display="inline">
		<g>
			<path fill="#F15E26" d="M822.54,377.17c1.96,3.91,4.21,7.94,8.21,10.07c3.89,2.08,5.81-4.48,6.15-6.98
				c0.35-2.55,0.22-5.23-0.5-7.71c-0.48-1.65-1.36-3.73-2.99-4.6c-0.66-0.35-1.26-0.76-1.83-1.24c0.4,0.34,0.8,0.67,1.19,1.01
				c-0.43-0.4-0.82-0.81-1.2-1.25c-0.32-0.38-1.41-2.11-0.25-0.24c-0.64-1.03-1.17-2.12-1.71-3.2c-0.67-1.33-1.85-2.93-3.54-2.93
				c-1.69,0-2.87,1.59-3.54,2.93C820.48,367.16,820.48,373.04,822.54,377.17L822.54,377.17z"/>
		</g>
	</g>
	<g display="inline">
		<g>
			<path fill="#F15E26" d="M816.58,380.6c0,5,0,10,0,15c0,2.83,0.83,10,5,10s5-7.17,5-10c0-5,0-10,0-15c0-2.83-0.83-10-5-10
				S816.58,377.77,816.58,380.6L816.58,380.6z"/>
		</g>
	</g>
	<g display="inline">
		<g>
			<path fill="#F15E26" d="M803.76,394.65c1.05,3.83,2.88,7.65,5.88,10.33c3.09,2.77,6.47,4.08,10.44,5.12
				c1.52,0.4,3.04-1.94,3.54-2.93c1.08-2.16,1.46-4.68,1.46-7.07c0-3.73-0.85-8.92-5-10c-1.94-0.51-3.95-1.5-5.65-2.66
				c-1.49-1.02,0.68,0.73-0.6-0.53c-0.42-0.42-0.78-0.89-1.14-1.36c0.99,1.3-0.07-0.26-0.21-0.54c0.9,1.84,0.05,0.01-0.08-0.45
				c-0.81-2.94-3.87-7.07-6.84-3.59C802.55,384.5,802.62,390.45,803.76,394.65L803.76,394.65z"/>
		</g>
	</g>
	<g display="inline">
		<g>
			<path fill="#F15E26" d="M815.75,397.75c2.89,1.49,5.44,3.26,8.83,3.36c1.67,0.05,2.89-1.64,3.54-2.93
				c1.08-2.16,1.46-4.68,1.46-7.07c0-2.94-0.82-9.88-5-10c-0.65-0.02-1.27-0.09-1.91-0.23c0.44,0.12,0.89,0.24,1.33,0.36
				c-2.02-0.57-3.74-1.82-5.59-2.77C811.77,375.05,809.76,394.67,815.75,397.75L815.75,397.75z"/>
		</g>
	</g>
	<g display="inline">
		<g>
			<path fill="#F15E26" d="M793.56,414.74c1.42,2.04,3.32,3.93,5.66,4.87c2.35,0.94,4.87,0.99,7.36,1c4.17,0,5-7.17,5-10
				c0-2.83-0.83-10-5-10c-0.91,0-1.82-0.01-2.74-0.05c-0.34-0.01-2.57-0.37-1.52-0.09c-0.77-0.21-1.46-0.59-2.13-1.02
				c1.1,0.71-0.2-0.22-0.41-0.44c-0.44-0.47-0.81-1.01-1.18-1.54c-2.73-3.91-6.1,1.05-6.84,3.59
				C790.45,405.55,790.85,410.85,793.56,414.74L793.56,414.74z"/>
		</g>
	</g>
	<g display="inline">
		<g>
			<path fill="#F15E26" d="M798.9,204.56c0.55,2.39-0.01-2.37,0.12,1.02c-0.15,1.42-0.16,1.58-0.03,0.48
				c-0.05,0.64-0.22,1.24-0.51,1.8c0.73-1.79-0.79,0.83,0.42-0.72c0.55-0.71,0.9-0.96,1.51-1.39c3.65-2.57,4.05-8.28,3.49-12.3
				c-0.28-2.06-2.48-9.57-6.15-6.98c-9.15,6.45-9.8,18.09-7.49,28.19c0.69,3.03,3.93,7,6.84,3.59
				C800.2,214.62,799.88,208.87,798.9,204.56L798.9,204.56z"/>
		</g>
	</g>
	<g display="inline">
		<g>
			<path fill="#F15E26" d="M801.61,218.25c2.91-2.91,5.05-4.98,9.3-6.49c1.61-0.57,2.58-3.19,2.99-4.6c0.72-2.47,0.85-5.16,0.5-7.71
				c-0.42-3.05-2.08-8.43-6.15-6.98c-4.66,1.66-8.25,5.07-11.69,8.51c-3.15,3.15-2.93,9.81-1.79,13.68
				C795.7,217.87,798.42,221.43,801.61,218.25L801.61,218.25z"/>
		</g>
	</g>
	<g display="inline">
		<g>
			<path fill="#F15E26" d="M816.6,215.25c4.96-6.02,10.81-9.27,18.48-10.63c7.29-1.29,6.28-21.12,0-20
				c-9.69,1.72-17.22,5.71-23.52,13.36c-2.93,3.56-3.03,9.47-1.79,13.68C810.6,214.5,813.65,218.83,816.6,215.25L816.6,215.25z"/>
		</g>
	</g>
	<g display="inline">
		<g>
			<path fill="#F15E26" d="M827.1,221.25c3.77-3.66,8.75-7.4,14.15-4.99c7,3.11,8.74-16.58,2.66-19.29
				c-8.54-3.8-15.79,1.11-21.85,7.01c-3.18,3.09-2.92,9.85-1.79,13.68C821.22,220.92,823.89,224.37,827.1,221.25L827.1,221.25z"/>
		</g>
	</g>
	<g display="inline">
		<g>
			<path fill="#F15E26" d="M827.75,238.75c6.96,2.45,11.29,6.95,13.51,13.4c0.97,2.81,3.77,7.18,6.84,3.59
				c2.88-3.38,3.18-9.65,1.79-13.68c-3.47-10.1-8.98-18.9-19.49-22.59C822.96,216.84,821.62,236.59,827.75,238.75L827.75,238.75z"/>
		</g>
	</g>
	<g display="inline">
		<g>
			<path fill="#F15E26" d="M831.06,266.24c5.05,6.47,12.22,10.3,20.52,8.86c4.18-0.72,5-6.57,5-10c0-2.25-0.95-10.7-5-10
				c-6.51,1.13-11.45-0.98-15.48-6.13c-2.88-3.7-6.04,0.84-6.84,3.59C828,256.87,828.19,262.58,831.06,266.24L831.06,266.24z"/>
		</g>
	</g>
	<g display="inline">
		<g>
			<path fill="#F15E26" d="M828.06,255.74c5.05,6.3,12.66,8.77,20.52,8.86c6.96,0.08,7.03-19.91,0-20
				c-5.87-0.07-11.65-1.36-15.48-6.13c-2.92-3.64-6.02,0.8-6.84,3.59C825.01,246.32,825.16,252.13,828.06,255.74L828.06,255.74z"/>
		</g>
	</g>
	<g display="inline">
		<g>
			<path fill="#F15E26" d="M833.41,235.75c3.47-1.1,7.06-1.14,10.67-1.14c4.17,0,5-7.17,5-10c0-2.83-0.83-10-5-10
				c-4.65,0-8.88,0.44-13.33,1.86c-1.6,0.51-2.59,3.24-2.99,4.6c-0.72,2.47-0.85,5.16-0.5,7.71
				C827.7,231.94,829.31,237.06,833.41,235.75L833.41,235.75z"/>
		</g>
	</g>
	<g display="inline">
		<g>
			<path fill="#F15E26" d="M840.06,243.74c1,1,2,2,3,3c1.07,1.07,2.35,1.84,3.85,1.01c1.63-0.9,2.5-2.92,2.99-4.6
				c0.72-2.47,0.85-5.16,0.5-7.71c-0.17-0.8-0.34-1.59-0.5-2.39c-0.35-1.32-0.95-2.52-1.79-3.59c-1-1-2-2-3-3
				c-1.07-1.07-2.35-1.84-3.85-1.01c-1.63,0.9-2.5,2.92-2.99,4.6c-0.72,2.47-0.85,5.16-0.5,7.71c0.17,0.8,0.34,1.59,0.5,2.39
				C838.62,241.48,839.21,242.67,840.06,243.74L840.06,243.74z"/>
		</g>
	</g>
	<g display="inline">
		<g>
			<path fill="#F15E26" d="M819.9,195.56c-2.02-5.3-4.22-10.53-5.85-15.97c-0.43-1.43-0.94-4.28-0.95-4.93
				c0.02,1.17,1.44-1.31,2.32-1.91c3.67-2.52,4.04-8.32,3.49-12.3c-0.29-2.1-2.46-9.52-6.15-6.98
				c-17.48,12.01-7.39,36.67-1.49,52.19c1.04,2.74,3.73,7.24,6.84,3.59C820.92,205.95,821.39,199.5,819.9,195.56L819.9,195.56z"/>
		</g>
	</g>
	<g display="inline">
		<g>
			<path fill="#F15E26" d="M800.11,198.75c4.43-6.37,11.58-13.42,20.15-10.99c7.74,2.2,8.77-17.55,2.66-19.29
				c-11.7-3.32-21.34,3.64-27.85,13.01c-2.71,3.89-3.11,9.18-1.79,13.68C794.01,197.69,797.38,202.67,800.11,198.75L800.11,198.75z"
				/>
		</g>
	</g>
	<g display="inline">
		<g>
			<path fill="#F15E26" d="M791.41,52.76c7.12-4.32,13.88-9.18,21-13.5c5.82-3.53,3.48-23.01-2.66-19.29
				c-7.12,4.32-13.88,9.18-21,13.5C782.93,37.01,785.27,56.49,791.41,52.76L791.41,52.76z"/>
		</g>
	</g>
	<g display="inline">
		<g>
			<path fill="#F15E26" d="M802.08,53.12c1.16,0.01,2.28,0.11,3.41,0.39c-0.44-0.12-0.89-0.24-1.33-0.36
				c0.83,0.24,1.58,0.58,2.27,1.11c-0.4-0.34-0.8-0.67-1.19-1.01c0.6,0.52,1.31,1.86,0.13-0.18c0.69,1.19-0.71-2.18-0.32-0.8
				c-0.12-0.56-0.25-1.12-0.37-1.68c-0.09-2.02-0.13-2.51-0.1-1.47c0.05,2.42,0.37,4.88,1.46,7.07c0.67,1.33,1.85,2.93,3.54,2.93
				c4.13,0,5.06-7.17,5-10c-0.09-4.31-0.78-10.09-4.3-13.14c-2.37-2.06-5.06-2.83-8.2-2.86c-1.68-0.02-2.88,1.61-3.54,2.93
				c-1.08,2.16-1.46,4.68-1.46,7.07C797.08,45.99,797.91,53.08,802.08,53.12L802.08,53.12z"/>
		</g>
	</g>
	<g display="inline">
		<g>
			<path fill="#F15E26" d="M799.25,67.76c1.42,0.74,2.71,1.67,3.95,2.69c-0.4-0.34-0.8-0.67-1.19-1.01c1.24,1.05,2.4,2.16,3.55,3.31
				c3.18,3.18,5.9-0.38,6.84-3.59c0.72-2.47,0.85-5.16,0.5-7.71c-0.26-1.92-0.85-4.53-2.3-5.98c-2.61-2.61-5.4-5.29-8.69-7.01
				C795.32,45.03,793.27,64.64,799.25,67.76L799.25,67.76z"/>
		</g>
	</g>
	<g display="inline">
		<g>
			<path fill="#F15E26" d="M800.75,90.26c3.7,1.19,7.51,1.59,10.5,3c6.86,3.24,8.71-16.43,2.66-19.29c-3.32-1.56-7.03-1.89-10.5-3
				c-4.1-1.32-5.72,3.82-6.15,6.98c-0.35,2.55-0.22,5.23,0.5,7.71C798.16,87.02,799.15,89.75,800.75,90.26L800.75,90.26z"/>
		</g>
	</g>
	<g display="inline">
		<g>
			<path fill="#F15E26" d="M801.55,99.69c1.96,3.91,4.21,7.94,8.21,10.07c3.89,2.08,5.81-4.48,6.15-6.98
				c0.35-2.55,0.22-5.23-0.5-7.71c-0.48-1.65-1.36-3.73-2.99-4.6c-0.66-0.35-1.26-0.76-1.83-1.24c0.4,0.34,0.8,0.67,1.19,1.01
				c-0.43-0.4-0.82-0.81-1.2-1.25c-0.32-0.38-1.41-2.11-0.25-0.24c-0.64-1.03-1.17-2.12-1.71-3.2c-0.67-1.33-1.85-2.93-3.54-2.93
				s-2.87,1.59-3.54,2.93C799.48,89.68,799.48,95.56,801.55,99.69L801.55,99.69z"/>
		</g>
	</g>
	<g display="inline">
		<g>
			<path fill="#F15E26" d="M801.58,103.12c0,6.03,0.74,13.9,6.67,17.14c3.88,2.12,5.81-4.51,6.15-6.98c0.35-2.55,0.22-5.23-0.5-7.71
				c-0.49-1.67-1.36-3.71-2.99-4.6c-0.38-0.21-0.72-0.43-1.07-0.69c0.4,0.34,0.8,0.67,1.19,1.01c-0.29-0.26-0.54-0.53-0.78-0.84
				c0.56,0.67,0.93,1.43,1.13,2.28c-0.27-0.89-0.19-0.46,0.22,1.3c-0.04-0.25-0.08-0.51-0.11-0.76c0.11,2,0.15,2.5,0.1,1.47
				c-0.02-0.54-0.02-1.08-0.02-1.63c0-2.39-0.38-4.91-1.46-7.07c-0.67-1.33-1.85-2.93-3.54-2.93s-2.87,1.59-3.54,2.93
				C801.97,98.21,801.58,100.73,801.58,103.12L801.58,103.12z"/>
		</g>
	</g>
	<g display="inline">
		<g>
			<path fill="#F15E26" d="M797.76,121.66c2.12,6.06,5.7,11.39,11.99,13.59c4.08,1.43,5.73-3.92,6.15-6.98
				c0.35-2.55,0.22-5.23-0.5-7.71c-0.41-1.4-1.38-4.03-2.99-4.6c-0.96-0.34-1.88-0.74-2.78-1.22c-0.42-0.23-0.82-0.5-1.22-0.78
				c-1.3-0.9,0.89,0.87-0.26-0.2c-0.35-0.32-0.66-0.68-0.96-1.04c-0.27-0.32-1.17-1.68-0.1,0.01c-0.26-0.42-0.48-0.86-0.7-1.3
				c-0.81-1.62,0.63,1.88,0.02,0.12c-0.98-2.8-3.76-7.19-6.84-3.59C796.69,111.34,796.36,117.65,797.76,121.66L797.76,121.66z"/>
		</g>
	</g>
	<g display="inline">
		<g>
			<path fill="#F15E26" d="M799.25,141.26c5.09,3.29,10.26,4.72,16.16,3c1.59-0.46,2.6-3.28,2.99-4.6c0.72-2.47,0.85-5.16,0.5-7.71
				c-0.45-3.26-2.03-8.19-6.15-6.98c-3.86,1.13-7.73-0.99-10.84-3c-3.75-2.42-5.85,4.78-6.15,6.98
				C795.23,132.83,795.55,138.87,799.25,141.26L799.25,141.26z"/>
		</g>
	</g>
	<g display="inline">
		<g>
			<path fill="#F15E26" d="M797.58,156.61c6.07,1.38,11.52-0.1,16.02-4.36c3.2-3.03,2.9-9.9,1.79-13.68
				c-0.97-3.31-3.6-6.66-6.84-3.59c-2.53,2.4-7.1,2.51-10.98,1.63c-1.55-0.35-3.02,1.9-3.54,2.93c-1.08,2.16-1.46,4.68-1.46,7.07
				C792.58,150.23,793.42,155.67,797.58,156.61L797.58,156.61z"/>
		</g>
	</g>
	<g display="inline">
		<g>
			<path fill="#F15E26" d="M801.61,177.75c12.26-10.54,27.26-17.46,42.3-22.99c6.13-2.25,4.72-22-2.66-19.29
				c-16.26,5.98-31.5,13.66-44.69,25.01C791.79,164.58,794.53,183.83,801.61,177.75L801.61,177.75z"/>
		</g>
	</g>
	<g display="inline">
		<g>
			<path fill="#F15E26" d="M807.91,180.26c13.47-7.42,28.01-14.37,43.67-14.64c7.05-0.12,6.95-20.12,0-20
				c-16.5,0.29-32.13,7.54-46.33,15.36C799.32,164.24,801.47,183.81,807.91,180.26L807.91,180.26z"/>
		</g>
	</g>
	<g display="inline">
		<g>
			<path fill="#F15E26" d="M807.91,154.76c7.14-2.97,13.34-7.38,19.5-12c3.6-2.7,4.06-8.17,3.49-12.3
				c-0.27-1.96-2.54-9.69-6.15-6.98c-6.16,4.62-12.36,9.02-19.5,12C799.15,138.01,800.77,157.73,807.91,154.76L807.91,154.76z"/>
		</g>
	</g>
	<g display="inline">
		<g>
			<path fill="#F15E26" d="M821.1,141.75c4.51-6.14,8.11-12.76,11.51-19.56c2.07-4.13,2.07-10.01,0-14.14
				c-1.82-3.64-5.25-3.64-7.07,0c-2.84,5.68-5.72,11.31-9.49,16.44c-2.78,3.79-3.08,9.27-1.79,13.68
				C815.04,140.79,818.3,145.56,821.1,141.75L821.1,141.75z"/>
		</g>
	</g>
	<g display="inline">
		<g>
			<path fill="#F15E26" d="M119.62,75.12c-6.71-1.5-12.19-5.92-16.98-10.63c-3.2-3.15-5.89,0.36-6.84,3.59
				c-1.13,3.85-1.37,10.56,1.79,13.68c6.41,6.32,13.11,11.38,22.02,13.36C125.66,96.47,126.9,76.74,119.62,75.12L119.62,75.12z"/>
		</g>
	</g>
	<g display="inline">
		<g>
			<path fill="#F15E26" d="M125.43,69.57c-0.96-2.72-2.08-5.34-3.36-7.93c-0.56-1.12-1.12-2.25-1.67-3.38
				c-0.16-0.34-1.27-3.04-0.97-2.19c-0.99-2.79-3.76-7.2-6.84-3.59c-2.86,3.35-3.21,9.68-1.79,13.68c0.96,2.72,2.08,5.34,3.36,7.93
				c0.56,1.12,1.12,2.25,1.67,3.38c0.16,0.34,1.27,3.04,0.97,2.19c0.99,2.79,3.76,7.2,6.84,3.59
				C126.5,79.9,126.85,73.57,125.43,69.57L125.43,69.57z"/>
		</g>
	</g>
	<g display="inline">
		<g>
			<path fill="#F15E26" d="M140.14,47.98c-0.35-0.35-0.68-0.73-0.99-1.12c-1.29-1.54,0.34,0.81-0.54-0.99
				c0.43,0.88,0.37,1.72,0.43,2.67c0.02,0.27-0.73,3.26-0.1,1.12c1.22-4.15,1.18-10.2-1.79-13.68c-3-3.52-5.98,0.68-6.84,3.59
				c-2.5,8.5-1.5,19,4.79,25.68c3.12,3.31,5.93-0.49,6.84-3.59C143.1,57.69,143.23,51.26,140.14,47.98L140.14,47.98z"/>
		</g>
	</g>
	<g display="inline">
		<g>
			<path fill="#F15E26" d="M149.44,45.48c-1.15-0.83-0.15,0.01-0.99-0.96c0.9,1.04-0.28-1.38,0.36,0.73
				c0.39,1.28,0.46,2.55,0.32,3.88c0.16-1.01,0.13-0.89-0.11,0.39c0.12-0.45,0.25-0.9,0.4-1.35c1.29-4.1,1.14-10.25-1.79-13.68
				c-3.03-3.55-5.94,0.72-6.84,3.59c-2.88,9.11-2.36,20.69,5.99,26.69c3.65,2.62,5.87-4.96,6.15-6.98
				C153.49,53.72,153.08,48.09,149.44,45.48L149.44,45.48z"/>
		</g>
	</g>
	<g display="inline">
		<g>
			<path fill="#F15E26" d="M156.64,38.98c0.21,0.36,0.11,0.16-0.29-0.59c0.54,1.1,0.75,2.29,0.65,3.56
				c0.07,1.35-0.16,2.61-0.71,3.79c0.39-0.74,0.43-0.82,0.14-0.23c1.22-1.62,3.2-2.48,5.02-3.26c6.1-2.6,4.44-22.31-2.66-19.29
				c-13.1,5.58-14.81,22.4-7.19,33.28c2.74,3.9,6.09-1.04,6.84-3.59C159.75,48.18,159.36,42.86,156.64,38.98L156.64,38.98z"/>
		</g>
	</g>
	<g display="inline">
		<g>
			<path fill="#F15E26" d="M119.14,52.48c-0.61-0.64-1.16-1.3-1.69-2c-0.48-0.7-0.54-0.77-0.18-0.21c-0.25-0.41-0.5-0.83-0.73-1.26
				c-0.47-0.83-0.86-1.69-1.24-2.56c0.37,0.99,0.4,1.05,0.11,0.19c-0.64-1.96,0.22,2.69,0.21,2.48c-0.13-2.83-0.75-10-5-10
				c-4.08,0-5.13,7.17-5,10c0.34,7.48,3.24,15.15,8.48,20.63c3.13,3.28,5.93-0.47,6.84-3.59C122.09,62.21,122.24,55.73,119.14,52.48
				L119.14,52.48z"/>
		</g>
	</g>
	<g display="inline">
		<g>
			<path fill="#F15E26" d="M137.44,43.98c-0.38-0.25-0.75-0.51-1.11-0.78c-0.6-0.46-0.67-0.52-0.22-0.18
				c-0.4-0.37-2.08-2.62-1.02-0.93c-0.17-0.29-0.33-0.58-0.46-0.89c0.45,1.26,0.54,1.47,0.27,0.62c0.29,1.57,0.35,1.86,0.19,0.87
				c-0.33-2.01,0.07,2.57,0.03,0.44c-0.04-2.83-0.8-10-5-10c-4.14,0-5.04,7.17-5,10c0.07,4.38,0.72,8.69,2.66,12.66
				c1.55,3.17,4.15,5.52,7.01,7.48c3.69,2.54,5.86-4.88,6.15-6.98C141.48,52.3,141.11,46.49,137.44,43.98L137.44,43.98z"/>
		</g>
	</g>
	<g display="inline">
		<g>
			<path fill="#F15E26" d="M126.94,42.48c-0.81-0.28-1.58-0.61-2.34-1c-0.43-0.22-0.83-0.5-1.23-0.77
				c-1.28-0.88,0.85,0.86-0.22-0.25c-0.21-0.23-0.41-0.48-0.6-0.73c1.14,1.47,0.27,0.36,0.04-0.13c1.24,2.61-0.08-1.38,0.53,1.83
				c-0.4-2.11,0.03,2.49-0.01,0.18c-0.05-2.83-0.79-10-5-10c-4.13,0-5.05,7.17-5,10c0.15,8.19,2.71,17.18,11.17,20.14
				c4.08,1.43,5.73-3.92,6.15-6.98c0.35-2.55,0.22-5.23-0.5-7.71C129.52,45.67,128.55,43.04,126.94,42.48L126.94,42.48z"/>
		</g>
	</g>
	<g display="inline">
		<g>
			<path fill="#F15E26" d="M113.62,58.62c-1.71-0.05-2.33-0.18-4.1-1.37c-0.55-0.42-0.52-0.39,0.07,0.08
				c-0.35-0.32-0.66-0.69-0.97-1.05c-0.2-0.24-0.38-0.49-0.56-0.75c1.16,1.61,0.32,0.45,0.09,0.01c-0.69-1.33-1.83-2.93-3.54-2.93
				c-1.69,0-2.87,1.59-3.54,2.93c-2.04,4.08-2.12,10.07,0,14.14c2.56,4.91,6.76,8.76,12.54,8.93c4.16,0.12,5-7.27,5-10
				C118.62,65.69,117.8,58.74,113.62,58.62L113.62,58.62z"/>
		</g>
	</g>
	<g display="inline">
		<g>
			<path fill="#F15E26" d="M299.78,141.47c-4.83,2.19-9.48,1.25-13.84-1.5c-3.77-2.38-5.84,4.74-6.15,6.98
				c-0.53,3.84-0.23,9.95,3.49,12.3c5.98,3.78,12.68,4.44,19.16,1.5C308.51,158,306.73,138.31,299.78,141.47L299.78,141.47z"/>
		</g>
	</g>
	<g display="inline">
		<g>
			<path fill="#F15E26" d="M298.58,128.98c-0.31,0.3-0.62,0.6-0.95,0.89c0.4-0.34,0.8-0.67,1.19-1.01
				c-0.63,0.53-1.28,1.03-2.07,1.28c0.44-0.12,0.89-0.24,1.33-0.36c-0.37,0.08-0.68,0.09-1.04,0c0.44,0.12,0.89,0.24,1.33,0.36
				c-0.28-0.11-0.51-0.25-0.74-0.44c0.4,0.34,0.8,0.67,1.19,1.01c-0.26-0.26-0.48-0.53-0.69-0.84c0.34,0.52,0.67,1.04,1.01,1.56
				c-0.18-0.29-0.34-0.58-0.5-0.89c-0.69-1.33-1.83-2.93-3.54-2.93c-1.69,0-2.87,1.59-3.54,2.93c-2.04,4.09-2.12,10.06,0,14.14
				c1.28,2.46,2.93,4.82,5.87,5.18c2.35,0.29,4.75-2.2,6.19-3.61c1.45-1.42,2.04-4.08,2.3-5.98c0.35-2.55,0.22-5.23-0.5-7.71
				c-0.49-1.67-1.36-3.7-2.99-4.6C300.92,127.14,299.67,127.92,298.58,128.98L298.58,128.98z"/>
		</g>
	</g>
	<g display="inline">
		<g>
			<path fill="#F15E26" d="M301.11,118.62c-7.07-0.19-11.81-4.24-14.46-10.57c-1.62-3.86-5.35-3.44-7.07,0
				c-2.17,4.34-1.83,9.78,0,14.14c3.83,9.12,11.28,16.15,21.54,16.43C308.02,138.8,308.18,118.8,301.11,118.62L301.11,118.62z"/>
		</g>
	</g>
	<g display="inline">
		<g>
			<path fill="#F15E26" d="M295.28,102.47c-2.9,0.93-5.64,1.04-7.84,0c-6.87-3.23-8.71,16.44-2.66,19.29
				c4.48,2.11,8.59,1.46,13.16,0c1.6-0.51,2.59-3.24,2.99-4.6c0.72-2.47,0.85-5.16,0.5-7.71
				C300.99,106.29,299.38,101.16,295.28,102.47L295.28,102.47z"/>
		</g>
	</g>
	<g display="inline">
		<g>
			<path fill="#F15E26" d="M281.61,118.62c-4.73,0.09-7.53,3.5-9.54,7.43c-2.09,4.11-2.05,10.03,0,14.14
				c0.67,1.33,1.85,2.93,3.54,2.93c1.7,0,2.86-1.6,3.54-2.93c0.26-0.52,0.54-1.02,0.84-1.51c-0.34,0.52-0.67,1.04-1.01,1.56
				c0.43-0.66,0.9-1.26,1.49-1.78c-0.4,0.34-0.8,0.67-1.19,1.01c0.57-0.46,1.17-0.77,1.87-0.99c-0.44,0.12-0.89,0.24-1.33,0.36
				c0.59-0.15,1.18-0.21,1.79-0.22c1.7-0.03,2.85-1.57,3.54-2.93c1.08-2.16,1.46-4.68,1.46-7.07s-0.38-4.91-1.46-7.07
				C284.49,120.24,283.29,118.58,281.61,118.62L281.61,118.62z"/>
		</g>
	</g>
	<g display="inline">
		<g>
			<path fill="#F15E26" d="M288.08,125.98c-0.57,0.57-1.14,1.13-1.75,1.66c0.4-0.34,0.8-0.67,1.19-1.01c-0.61,0.51-1.24,0.95-2,1.22
				c0.44-0.12,0.89-0.24,1.33-0.36c-0.25,0.07-0.49,0.1-0.75,0.12c-1.72,0.09-2.83,1.52-3.54,2.93c-1.08,2.16-1.46,4.68-1.46,7.07
				s0.38,4.91,1.46,7.07c0.63,1.26,1.88,3.02,3.54,2.93c2.96-0.16,5.06-2.4,7.02-4.36c1.44-1.44,2.03-4.06,2.3-5.98
				c0.35-2.55,0.22-5.23-0.5-7.71c-0.49-1.67-1.36-3.7-2.99-4.6C290.43,124.14,289.15,124.91,288.08,125.98L288.08,125.98z"/>
		</g>
	</g>
	<g display="inline">
		<g>
			<path fill="#F15E26" d="M306.94,102.47c-9.78-5.66-19.21-12.06-27.3-19.99c-6.55-6.42-9.55,12.85-5.05,17.27
				c8.84,8.66,19,15.82,29.69,22.01C310.57,125.4,312.81,105.87,306.94,102.47L306.94,102.47z"/>
		</g>
	</g>
	<g display="inline">
		<g>
			<path fill="#F15E26" d="M302.61,88.62c-1.85-0.06-2.79-0.44-4.48-1.52c-0.34-0.23-0.67-0.47-0.99-0.72
				c0.39,0.36,0.32,0.29-0.23-0.2c-0.79-0.7-1.53-1.46-2.27-2.2c-3.18-3.18-5.9,0.38-6.84,3.59c-1.14,3.88-1.36,10.54,1.79,13.68
				c3.69,3.69,7.52,7.18,13.02,7.36c4.15,0.14,5-7.28,5-10C307.61,95.67,306.79,88.76,302.61,88.62L302.61,88.62z"/>
		</g>
	</g>
	<g display="inline">
		<g>
			<path fill="#F15E26" d="M306.63,77.98c-1.8-1.84-3.47-3.76-4.98-5.84c-0.49-0.67-0.85-1.45-1.23-2.18
				c-0.8-1.54-0.35-0.84-0.31,0.16c-0.12-2.83-0.75-10-5-10c-4.09,0-5.12,7.17-5,10c0.41,9.97,4.56,18.09,11.48,25.13
				c3.16,3.22,5.91-0.42,6.84-3.59C309.57,87.75,309.76,81.17,306.63,77.98L306.63,77.98z"/>
		</g>
	</g>
	<g display="inline">
		<g>
			<path fill="#F15E26" d="M309.63,68.98c-2.33-3.6-3.05-6.87-4.21-11.41c-0.76-2.98-3.89-7.04-6.84-3.59
				c-3.05,3.57-2.87,9.43-1.79,13.68c1.69,6.67,4.05,12.8,7.79,18.59c2.62,4.05,6.13-1.18,6.84-3.59
				C312.78,78.05,312.23,73.01,309.63,68.98L309.63,68.98z"/>
		</g>
	</g>
	<g display="inline">
		<g>
			<path fill="#F15E26" d="M315.63,53.98c-3.96-4.03-6.94-8.41-9.49-13.44c-1.84-3.62-5.24-3.66-7.07,0
				c-2.06,4.12-2.08,10.03,0,14.14c3.07,6.05,6.75,11.71,11.51,16.56c3.16,3.22,5.91-0.41,6.84-3.59
				C318.57,63.76,318.76,57.17,315.63,53.98L315.63,53.98z"/>
		</g>
	</g>
	<g display="inline">
		<g>
			<path fill="#F15E26" d="M348.63,45.75c0.61-0.89,1.26-1.73,1.97-2.54c0.08-0.09,1.45-1.38,0.44-0.54
				c0.41-0.34,0.85-0.64,1.3-0.94c1.7-1.13,3.67-1.83,5.59-2.48c1.6-0.54,2.58-3.22,2.99-4.6c0.72-2.47,0.85-5.16,0.5-7.71
				c-0.43-3.1-2.06-8.37-6.15-6.98c-4.83,1.64-8.77,4.25-11.69,8.51c-2.69,3.92-3.12,9.16-1.79,13.68
				C342.52,44.68,345.92,49.7,348.63,45.75L348.63,45.75z"/>
		</g>
	</g>
	<g display="inline">
		<g>
			<path fill="#F15E26" d="M337.28,25.98c-0.4,0.13-0.8,0.26-1.2,0.37c0.44-0.12,0.89-0.24,1.33-0.36
				c-0.44,0.12-0.97,0.29-1.43,0.19c0.44,0.12,0.89,0.24,1.33,0.36c-0.04-0.01-0.08-0.03-0.12-0.05c0.4,0.34,0.8,0.67,1.19,1.01
				c-0.02-0.01-0.04-0.03-0.05-0.05c0.34,0.52,0.67,1.04,1.01,1.56c-0.01-0.01-0.01-0.02-0.02-0.03c0.26,0.67,0.52,1.35,0.78,2.02
				c0-0.01-0.01-0.02-0.01-0.03c0.17,0.8,0.34,1.59,0.5,2.39c0-0.01,0-0.02-0.01-0.04c0.06,0.89,0.12,1.77,0.18,2.66
				c0-0.01,0-0.03,0-0.04c-0.06,0.89-0.12,1.77-0.18,2.66c0-0.03,0.01-0.06,0.01-0.09c-0.17,0.8-0.34,1.59-0.5,2.39
				c0.01-0.03,0.02-0.07,0.03-0.1c-0.26,0.67-0.52,1.35-0.78,2.02c0.05-0.1,0.1-0.2,0.16-0.3c-0.34,0.52-0.67,1.04-1.01,1.56
				c0.72-1.06,1.73-1.94,2.63-2.84c0.34-0.52,0.67-1.04,1.01-1.56c0.67-1.4,1.09-2.87,1.29-4.41c0.35-2.55,0.22-5.23-0.5-7.71
				c-0.49-1.67-1.36-3.7-2.99-4.6c-1.5-0.83-2.78-0.06-3.85,1.01c-0.7,0.7-1.41,1.39-2.07,2.13c-0.62,0.7-1.06,1.47-1.58,2.27
				c-0.91,1.41-1.17,3.27-1.49,4.86c-0.27,1.32-0.22,4.11,0,5.43c0.37,2.14,0.9,4.32,2.33,6.04c0.78,0.94,1.65,1.41,2.86,1.49
				c0.33,0.02,0.67-0.07,0.98-0.15c0.95-0.22,1.89-0.49,2.81-0.8c0.4-0.34,0.8-0.67,1.19-1.01c0.84-1.07,1.44-2.27,1.79-3.59
				c0.72-2.47,0.85-5.16,0.5-7.71c-0.28-2.07-0.91-4.35-2.3-5.98c-0.4-0.34-0.8-0.67-1.19-1.01
				C339.05,25.5,338.16,25.5,337.28,25.98L337.28,25.98z"/>
		</g>
	</g>
	<g display="inline">
		<g>
			<path fill="#F15E26" d="M317.44,30.48c-0.57-0.36-0.51-0.27,0.17,0.28c-0.2-0.19-0.38-0.4-0.53-0.63
				c0.52,0.6,0.86,1.29,1.03,2.08c-0.26-0.68-0.46-2.29,0.07,0.65c-0.15-0.83-0.22-3.21-0.04,0.39c-0.04-0.71-0.03-1.42-0.03-2.12
				c0-2.83-0.83-10-5-10c-4.17,0-5,7.17-5,10c0,6.24,0.52,15.16,6.67,18.64c3.85,2.18,5.82-4.57,6.15-6.98
				C321.43,39.11,321.21,32.62,317.44,30.48L317.44,30.48z"/>
		</g>
	</g>
	<g display="inline">
		<g>
			<path fill="#F15E26" d="M323.13,25.49c-1.74-1.82-2.76-4.18-4.5-6c-1.04-1.09-2.37-1.82-3.85-1.01c-1.63,0.9-2.5,2.92-2.99,4.6
				c-0.72,2.47-0.85,5.16-0.5,7.71c0.27,1.96,0.87,4.48,2.3,5.98c1.74,1.82,2.76,4.18,4.5,6c1.04,1.09,2.37,1.82,3.85,1.01
				c1.63-0.9,2.5-2.92,2.99-4.6c0.72-2.47,0.85-5.16,0.5-7.71C325.16,29.5,324.56,26.98,323.13,25.49L323.13,25.49z"/>
		</g>
	</g>
	<g display="inline">
		<g>
			<path fill="#F15E26" d="M390.63,59.25c4.61-4.46,10.37-7.52,15-12c3.18-3.08,2.91-9.86,1.79-13.68c-0.96-3.27-3.62-6.7-6.84-3.59
				c-4.61,4.46-10.37,7.52-15,12c-3.18,3.08-2.91,9.86-1.79,13.68C384.74,58.94,387.41,62.36,390.63,59.25L390.63,59.25z"/>
		</g>
	</g>
	<g display="inline">
		<g>
			<path fill="#F15E26" d="M401.43,61.76c3.21-2.08,6.76-4.03,10.67-4.14c4.18-0.12,5-7.07,5-10c0-2.73-0.84-10.12-5-10
				c-4.75,0.14-9.41,2.32-13.33,4.86c-3.71,2.4-4.03,8.42-3.49,12.3C395.58,56.98,397.68,64.19,401.43,61.76L401.43,61.76z"/>
		</g>
	</g>
	<g display="inline">
		<g>
			<path fill="#F15E26" d="M407.43,72.26c2.26-1.03,5.59-1.03,7.84,0c6.93,3.17,8.73-16.51,2.66-19.29c-4.2-1.92-8.96-1.92-13.16,0
				C398.71,55.75,400.5,75.44,407.43,72.26L407.43,72.26z"/>
		</g>
	</g>
	<g display="inline">
		<g>
			<path fill="#F15E26" d="M410.77,102.26c10.17,4.2,20.95,6.06,31.5,9c7.76,2.16,8.77-17.59,2.66-19.29
				c-10.54-2.93-21.35-4.81-31.5-9C406.27,80.02,404.66,99.74,410.77,102.26L410.77,102.26z"/>
		</g>
	</g>
	<g display="inline">
		<g>
			<path fill="#F15E26" d="M445.6,188.61c0.05-3.23-0.28,1.87,0.06-1.32c0.2-1.13,0.21-1.31,0.03-0.54c0.15-0.64,0.34-1.27,0.54-1.9
				c0.31-1.01,1.77-2.92,2.89-4.1c3.09-3.27,2.96-9.71,1.79-13.68c-0.91-3.1-3.72-6.89-6.84-3.59c-6.38,6.74-8.35,16.12-8.48,25.13
				c-0.04,2.83,0.86,10,5,10C444.8,198.61,445.56,191.45,445.6,188.61L445.6,188.61z"/>
		</g>
	</g>
	<g display="inline">
		<g>
			<path fill="#F15E26" d="M458.12,164.98c-1.37-1.32-2.95-2.36-4.4-3.58c0.4,0.34,0.8,0.67,1.19,1.01
				c-0.39-0.34-0.75-0.69-1.04-1.12c0.34,0.52,0.67,1.04,1.01,1.56c-0.06-0.1-0.12-0.21-0.16-0.32c0.26,0.67,0.52,1.35,0.78,2.02
				c-0.02-0.05-0.04-0.11-0.05-0.16c0.17,0.8,0.34,1.59,0.5,2.39c-0.03-0.11-0.04-0.21-0.04-0.32c-0.18-2.52-2.38-9.06-6.15-6.98
				c-1.63,0.9-2.5,2.92-2.99,4.6c-0.75,2.57-0.69,5.07-0.5,7.71c0.19,2.71,1.38,5.85,3.41,7.74c1.28,1.19,2.71,2.15,4.05,3.26
				c-0.4-0.34-0.8-0.67-1.19-1.01c0.18,0.16,0.36,0.32,0.53,0.48c1.09,1.05,2.33,1.85,3.85,1.01c1.63-0.9,2.5-2.92,2.99-4.6
				c0.72-2.47,0.85-5.16,0.5-7.71C460.16,169.07,459.58,166.38,458.12,164.98L458.12,164.98z"/>
		</g>
	</g>
	<g display="inline">
		<g>
			<path fill="#F15E26" d="M443.43,160.97c-1.08-0.37-2.16-0.78-3.06-1.51c0.4,0.34,0.8,0.67,1.19,1.01
				c-0.2-0.19-0.37-0.38-0.53-0.61c0.34,0.52,0.67,1.04,1.01,1.56c-0.03-0.05-0.06-0.11-0.09-0.16c0.56,1.19,0.92,2.43,1.08,3.73
				c0.36,2.2,0.12,4.4-0.39,6.55c0.02-0.07,0.04-0.14,0.06-0.21c0.25-0.75,0.07-0.3-0.53,1.35c0.14-0.34,0.3-0.67,0.46-1
				c2.05-4.16,2.08-9.99,0-14.14c-0.67-1.33-1.85-2.93-3.54-2.93c-1.68,0-2.88,1.59-3.54,2.93c-2.4,4.89-2.93,10.23-1.59,15.51
				c0.92,3.62,3.38,6.03,6.8,7.2c1.57,0.54,2.72,0.31,3.85-1.01c1.39-1.63,2.01-3.91,2.3-5.98c0.35-2.55,0.22-5.23-0.5-7.71
				C446.01,164.18,445.03,161.52,443.43,160.97L443.43,160.97z"/>
		</g>
	</g>
	<g display="inline">
		<g>
			<path fill="#F15E26" d="M435.14,153.69c0.69-1.37,1.38-2.74,2.12-4.08c0.17-0.31,0.35-0.61,0.53-0.91
				c-0.57,0.85-0.65,0.97-0.22,0.34c0.32-0.46,0.68-0.88,1.06-1.29c1.43-1.51,2.03-4,2.3-5.98c0.35-2.55,0.22-5.23-0.5-7.71
				c-0.91-3.1-3.72-6.89-6.84-3.59c-2.41,2.54-3.96,5.96-5.51,9.06c-2.07,4.13-2.07,10.01,0,14.14c0.67,1.33,1.85,2.93,3.54,2.93
				C433.29,156.61,434.47,155.02,435.14,153.69L435.14,153.69z"/>
		</g>
	</g>
	<g display="inline">
		<g>
			<path fill="#F15E26" d="M438.92,152.07c-0.3-1.26-0.29-1.71-0.3-2.7c0.01,1.8,0.47-1.47,0.09-0.07
				c-0.19,0.69,1.01-1.73,0.93-1.61c2.34-3.81,1.93-10.28,0-14.14c-1.95-3.9-5.02-3.34-7.07,0c-5.21,8.5-4.46,19.33-2.28,28.62
				c0.71,3.02,3.92,7.01,6.84,3.59C440.21,162.13,439.92,156.36,438.92,152.07L438.92,152.07z"/>
		</g>
	</g>
	<g display="inline">
		<g>
			<path fill="#F15E26" d="M442.6,152.61c0.03-1.13,0-0.89-0.08,0.73c0.15-1.02,0.08-0.81-0.2,0.63c0.09-0.37,0.19-0.73,0.31-1.09
				c-0.47,1.15-0.51,1.31-0.14,0.49c0.17-0.33,0.35-0.66,0.54-0.97c-0.5,0.77-0.51,0.83-0.03,0.16c0.49-0.65,1.06-1.23,1.62-1.81
				c3.12-3.2,2.94-9.76,1.79-13.68c-0.92-3.16-3.69-6.82-6.84-3.59c-5.06,5.19-6.86,12.03-6.98,19.13c-0.05,2.83,0.86,10,5,10
				C441.8,162.61,442.55,155.45,442.6,152.61L442.6,152.61z"/>
		</g>
	</g>
	<g display="inline">
		<g>
			<path fill="#F15E26" d="M442.64,150.04c-3.3-5.2-5.02-9.13-1.01-14.29c2.86-3.68,3.06-9.37,1.79-13.68
				c-0.8-2.73-3.96-7.29-6.84-3.59c-10.11,13.01-9.69,32.02-1.01,45.7c2.09,3.29,5.1,3.94,7.07,0
				C444.54,160.37,445.02,153.8,442.64,150.04L442.64,150.04z"/>
		</g>
	</g>
	<g display="inline">
		<g>
			<path fill="#F15E26" d="M434.12,121.48c-0.25-0.36-0.73-1.49-0.36-0.47c0.53,1.48,0.3,3.31-0.1,4.82
				c-0.15,0.56-0.92,1.58,0.08,0.39c0.58-0.68,1.4-1.04,2.18-1.47c5.95-3.22,3.84-22.8-2.66-19.29
				c-11.99,6.49-11.15,23.41-4.19,33.28c2.74,3.89,6.09-1.03,6.84-3.59C437.23,130.68,436.85,125.35,434.12,121.48L434.12,121.48z"
				/>
		</g>
	</g>
	<g display="inline">
		<g>
			<path fill="#F15E26" d="M428.42,123.57c0.12,0.54,0.13,2.18,0.13,0.08c0,0.54-0.45,2.29,0.15,0.27c0.15-0.51,1.59-2.28,2.43-3.17
				c3.09-3.27,2.96-9.71,1.79-13.68c-0.91-3.1-3.72-6.89-6.84-3.59c-7.69,8.13-8.62,19.73-6.29,30.18c0.68,3.04,3.94,6.99,6.84,3.59
				C429.73,133.61,429.38,127.89,428.42,123.57L428.42,123.57z"/>
		</g>
	</g>
	<g display="inline">
		<g>
			<path fill="#F15E26" d="M419.12,117.75c4-5.18,8.91-9.23,15.3-10.99c3.91-1.07,3.88-9.49,3.49-12.3
				c-0.46-3.32-2.02-8.12-6.15-6.98c-7.21,1.98-13.2,7.19-17.69,13.01c-2.85,3.69-3.06,9.36-1.79,13.68
				C413.08,116.89,416.25,121.47,419.12,117.75L419.12,117.75z"/>
		</g>
	</g>
	<g display="inline">
		<g>
			<path fill="#F15E26" d="M422.43,147.26c4.92-1.64,9.36-3.39,13.19-7.01c3.2-3.02,2.9-9.9,1.79-13.68
				c-0.97-3.31-3.6-6.65-6.84-3.59c-2.68,2.53-7.21,3.79-10.81,4.99c-1.6,0.54-2.59,3.22-2.99,4.6c-0.72,2.47-0.85,5.16-0.5,7.71
				C416.71,143.39,418.34,148.62,422.43,147.26L422.43,147.26z"/>
		</g>
	</g>
	<g display="inline">
		<g>
			<path fill="#F15E26" d="M372.63,139.48c-3-4.5-6-9-9-13.5c-2.66-4-6.12,1.13-6.84,3.59c-1.34,4.57-0.85,9.71,1.79,13.68
				c3,4.5,6,9,9,13.5c2.66,4,6.12-1.13,6.84-3.59C375.76,148.59,375.27,143.45,372.63,139.48L372.63,139.48z"/>
		</g>
	</g>
</g>
<g id="Layer_1">
	<g>
		<path fill="#FFFFFF" d="M141.46,242.1c-2.55-0.07-4.63-2.05-4.84-4.59L122.92,68.92c-0.21-2.58,1.59-4.9,4.14-5.33l53.62-9.14
			c0.28-0.05,0.56-0.07,0.84-0.07c1.11,0,2.2,0.37,3.09,1.07c1.11,0.87,1.8,2.17,1.9,3.58l9.09,127.79l79.73-2.83
			c0.06,0,0.12,0,0.18,0c1.53,0,2.98,0.7,3.93,1.91c0.99,1.25,1.32,2.9,0.89,4.44l-14.37,51.56c-0.6,2.17-2.58,3.66-4.81,3.66
			C261.09,245.55,141.46,242.1,141.46,242.1z"/>
		<path fill="#F15E26" d="M181.52,59.38l9.44,132.61l84.55-3l-14.37,51.56l-119.53-3.45L127.9,68.52L181.52,59.38 M275.51,188.98
			L275.51,188.98 M181.52,49.38c-0.56,0-1.12,0.05-1.68,0.14l-53.62,9.14c-5.11,0.87-8.71,5.5-8.29,10.67l13.71,168.58
			c0.41,5.08,4.58,9.04,9.68,9.19l119.53,3.45c0.1,0,0.19,0,0.29,0c4.48,0,8.42-2.98,9.63-7.31l14.29-51.26
			c0.29-0.94,0.45-1.95,0.45-2.98c0-5.52-4.47-9.99-9.98-10c-0.01,0-0.01,0-0.02,0c-0.01,0-0.01,0-0.02,0c0,0,0,0,0,0
			c0,0-0.01,0-0.01,0c0,0-0.01,0-0.01,0c0,0,0,0-0.01,0c-0.12,0-0.25,0-0.37,0.01l-74.85,2.66l-8.75-122.98
			c-0.2-2.81-1.58-5.41-3.8-7.16C185.92,50.12,183.74,49.38,181.52,49.38L181.52,49.38z"/>
	</g>
	<g>
		<path fill="#FFFFFF" d="M326.14,251.65c-0.11,0-0.23,0-0.34-0.01l-39-2.67c-1.43-0.1-2.75-0.81-3.62-1.94
			c-0.87-1.14-1.22-2.59-0.94-4l38-195c0.46-2.35,2.52-4.04,4.91-4.04h63.17c2.17,0,4.1,1.4,4.76,3.47l61.5,191.56
			c0.47,1.45,0.24,3.04-0.61,4.31c-0.85,1.27-2.23,2.08-3.75,2.2l-42.67,3.44c-0.14,0.01-0.27,0.02-0.4,0.02
			c-2.21,0-4.17-1.45-4.8-3.6l-21.87-75.13l-35.56,2.46l-13.85,74.86C330.61,249.94,328.53,251.65,326.14,251.65z"/>
		<path fill="#F15E26" d="M388.3,48.98l61.5,191.56l-42.67,3.44l-23-79l-43.45,3l-14.55,78.67l-39-2.67l38-195H388.3 M388.3,38.98
			h-63.17c-4.79,0-8.9,3.39-9.82,8.09l-38,195c-0.55,2.81,0.14,5.73,1.89,8s4.39,3.69,7.25,3.88l39,2.67
			c0.23,0.02,0.46,0.02,0.69,0.02c4.78,0,8.94-3.41,9.83-8.18l13.14-71.04l27.68-1.91l20.75,71.26c1.25,4.3,5.19,7.21,9.6,7.21
			c0.27,0,0.54-0.01,0.81-0.03l42.67-3.44c3.04-0.25,5.81-1.87,7.51-4.41s2.14-5.71,1.21-8.62l-61.5-191.56
			C396.49,41.79,392.65,38.98,388.3,38.98L388.3,38.98z"/>
	</g>
	<g>
		<path fill="#FFFFFF" d="M637.69,263.18c-20.83,0-61.23-2.19-97.84-16.88c-21.31-8.55-38.16-20.17-50.1-34.55
			c-14.45-17.41-21.77-38.92-21.75-63.93c0.03-43.32,24.18-76.05,69.82-94.66c33.78-13.77,66.99-14.92,68.39-14.96
			c0.05,0,0.1,0,0.15,0c1.48,0,2.88,0.65,3.83,1.79c0.98,1.17,1.38,2.74,1.06,4.24l-10.23,48.79c-0.39,1.87-1.81,3.35-3.67,3.82
			c-0.15,0.04-15.42,3.98-29.92,12.78c-18.43,11.18-27.08,24.6-25.72,39.91c4.63,51.97,81.65,53.47,90.41,53.47
			c0.55,0,0.86-0.01,0.89-0.01c0.04,0,0.07,0,0.1,0c2.24,0,4.21,1.49,4.82,3.65l14,50c0.41,1.46,0.13,3.02-0.75,4.26
			c-0.88,1.23-2.27,2-3.79,2.08C647.27,262.98,643.73,263.18,637.69,263.18z"/>
		<path fill="#F15E26" d="M606.36,43.19l-10.23,48.79c0,0-63.13,15.98-59.39,57.98c5.01,56.29,85.48,58.03,95.4,58.03
			c0.65,0,1-0.01,1-0.01l14,50c0,0-3.48,0.2-9.44,0.2c-36.28,0-164.77-7.27-164.69-110.36C473.08,47.24,606.36,43.19,606.36,43.19
			 M606.36,33.19c-0.1,0-0.2,0-0.3,0c-1.43,0.04-35.52,1.23-70.12,15.33c-47.68,19.43-72.9,53.76-72.94,99.28
			c-0.02,26.21,7.69,48.8,22.9,67.13c12.47,15.02,30,27.14,52.08,36c37.39,15,78.52,17.24,99.7,17.24c6.18,0,9.85-0.2,10.01-0.21
			c3.02-0.17,5.81-1.7,7.57-4.17s2.31-5.59,1.5-8.51l-14-50c-1.21-4.33-5.15-7.3-9.63-7.3c-0.07,0-0.15,0-0.22,0
			c-0.04,0-0.31,0-0.78,0c-4.11,0-25.67-0.36-46.32-7.37c-11.15-3.79-20.08-8.85-26.52-15.05c-7.53-7.24-11.65-15.91-12.6-26.49
			c-2.94-32.97,51.35-47.26,51.9-47.4c3.69-0.94,6.54-3.91,7.32-7.64l10.23-48.79c0.63-3-0.15-6.12-2.12-8.47
			C612.13,34.5,609.32,33.19,606.36,33.19L606.36,33.19z"/>
	</g>
	<g>
		<path fill="#FFFFFF" d="M724.13,266.98c-1.36,0-2.65-0.55-3.59-1.52c-0.94-0.97-1.45-2.29-1.4-3.64l2.49-74.17h-15.99l-2.5,74.51
			c-0.09,2.69-2.3,4.83-5,4.83h-54c-1.35,0-2.64-0.55-3.58-1.51s-1.45-2.28-1.41-3.63l6-213c0.04-1.39,0.65-2.7,1.7-3.61
			c0.92-0.81,2.09-1.25,3.3-1.25c0.17,0,0.33,0.01,0.5,0.02l56.76,5.7c2.64,0.26,4.61,2.54,4.5,5.19l-3.14,74.79l17.38-0.62
			l2.35-73.9c0.08-2.5,1.99-4.55,4.48-4.81l60.67-6.33c0.17-0.02,0.35-0.03,0.52-0.03c1.28,0,2.51,0.49,3.44,1.38
			c1.06,1.01,1.63,2.43,1.55,3.89l-11.33,213c-0.14,2.65-2.33,4.73-4.99,4.73H724.13z"/>
		<path fill="#F15E26" d="M794.13,48.98L794.13,48.98 M794.13,48.98l-11.33,213h-58.67l2.67-79.34h-26l-2.67,79.34h-54l6-213
			l56.76,5.7l-3.37,80.19l27.45-0.99l2.49-78.57L794.13,48.98 M794.13,38.98c-0.08,0-0.15,0-0.22,0c-0.32,0.01-0.64,0.03-0.95,0.07
			l-60.53,6.32c-4.97,0.52-8.8,4.63-8.96,9.63l-2.2,69.23l-7.31,0.26l2.92-69.39c0.22-5.29-3.72-9.84-8.99-10.37l-56.76-5.7
			c-0.33-0.03-0.67-0.05-1-0.05c-2.42,0-4.77,0.88-6.6,2.49c-2.08,1.83-3.31,4.45-3.39,7.23l-6,213c-0.08,2.7,0.94,5.32,2.83,7.25
			s4.47,3.03,7.17,3.03h54c5.39,0,9.81-4.27,9.99-9.66l2.34-69.68h5.99l-2.32,69c-0.09,2.71,0.92,5.34,2.81,7.29
			c1.88,1.95,4.48,3.05,7.19,3.05h58.67c5.32,0,9.7-4.16,9.99-9.47l11.32-212.76c0.02-0.26,0.03-0.51,0.03-0.78
			c0-5.49-4.42-9.94-9.89-10C794.21,38.98,794.17,38.98,794.13,38.98L794.13,38.98z"/>
	</g>
	
		<polygon fill="#FFFFFF" stroke="#F15E26" stroke-width="10" stroke-linecap="round" stroke-linejoin="round" stroke-miterlimit="10" points="
		43.13,229.88 104.13,217.98 132.26,366.56 154.13,267.56 211.13,267.56 171.13,432.48 90.13,432.48 	"/>
	
		<polygon fill="#FFFFFF" stroke="#F15E26" stroke-width="10" stroke-linecap="round" stroke-linejoin="round" stroke-miterlimit="10" points="
		235.79,269.52 353.13,274.23 343.13,317.96 269.13,317.96 265.5,336.2 309.9,336.2 300.13,369.73 260.13,369.73 256.12,387.2 
		342.13,390.98 331.13,437.23 197.88,437.68 	"/>
	
		<path fill="#FFFFFF" stroke="#F15E26" stroke-width="10" stroke-linecap="round" stroke-linejoin="round" stroke-miterlimit="10" d="
		M470.13,268.12c0,0-99.32-10.39-111,79.86c-11,85,49.48,111.71,101.96,89.69c57-23.91,36.61-101.48,36.61-101.48l-60.57,3.92
		l-1,33.79l31-0.17c0,0-12.76,29.39-36.61,29.24c-21.5-0.14-26.39-37.64-26.39-54c0-32.66,54.89-40,54.89-40L470.13,268.12z"/>
	<g>
		<path fill="#FFFFFF" d="M352.47,149.13c-1.44,0-2.81-0.62-3.76-1.71s-1.39-2.52-1.2-3.95l8-60.32c0.32-2.45,2.38-4.29,4.85-4.34
			c0.04,0,0.07,0,0.11,0c2.42,0,4.5,1.74,4.92,4.13l10.67,60.32c0.26,1.46-0.14,2.95-1.09,4.08s-2.35,1.79-3.83,1.79H352.47z"/>
		<path fill="#F15E26" d="M360.47,83.82l10.67,60.32h-18.67L360.47,83.82 M360.47,73.82c-0.07,0-0.15,0-0.22,0
			c-4.93,0.11-9.05,3.79-9.7,8.68l-8,60.32c-0.38,2.86,0.49,5.74,2.39,7.9s4.64,3.41,7.52,3.41h18.67c2.96,0,5.76-1.31,7.66-3.57
			s2.7-5.26,2.19-8.17l-10.67-60.32C369.47,77.29,365.31,73.82,360.47,73.82L360.47,73.82z"/>
	</g>
	<g>
		<path fill="#FFFFFF" d="M701.11,443.06c-1.78,0-3.49-0.96-4.39-2.6l-18.64-34.08c-1.14-2.09-0.65-4.69,1.17-6.23l38.18-32.12
			c-4.57-5.52-13.26-16.32-21.72-28.42c-10.88-15.56-24.9-37.71-21.14-50.39c4.92-16.59,29.95-34.93,74.39-54.49
			c32.31-14.22,63.71-24.09,64.02-24.19c0.49-0.15,0.99-0.23,1.49-0.23c0.85,0,1.7,0.22,2.45,0.64c1.2,0.68,2.07,1.82,2.4,3.16
			l10.61,42.97c0.49,2-0.29,4.09-1.97,5.28l-58.45,41.35c5.68,3.64,14.34,9.46,23.05,16.34c20.78,16.43,30.67,29.88,30.23,41.15
			c-0.61,15.77-20.73,33.78-61.51,55.08c-28.93,15.12-58.1,26.33-58.39,26.44C702.31,442.95,701.71,443.06,701.11,443.06z"/>
		<path fill="#F15E26" d="M814.47,215.32l10.61,42.97l-64.61,45.7c0,0,58.22,34.31,57.33,57.02
			c-1.28,32.85-116.69,77.05-116.69,77.05l-18.64-34.08l42-35.33c0,0-50.73-59.05-45.11-78
			C690.17,254.19,814.47,215.32,814.47,215.32 M814.47,205.32c-1,0-2.01,0.15-2.99,0.46c-1.29,0.4-31.98,10.05-64.54,24.39
			c-19.35,8.52-35.32,16.94-47.45,25.02c-16.8,11.19-26.52,21.86-29.72,32.63c-3.38,11.39,3.36,28.25,21.84,54.68
			c6.88,9.84,13.92,18.84,18.82,24.9l-34.41,28.94c-3.64,3.07-4.62,8.27-2.34,12.45l18.64,34.08c1.8,3.29,5.21,5.2,8.78,5.2
			c1.19,0,2.4-0.21,3.57-0.66c1.2-0.46,29.73-11.43,58.92-26.68c17.41-9.09,31.42-17.84,41.65-25.99
			c14.75-11.75,22.12-22.65,22.53-33.33c0.51-12.97-10-27.78-32.12-45.26c-6.11-4.83-12.2-9.14-17.28-12.57l52.47-37.11
			c3.36-2.38,4.92-6.57,3.93-10.56l-10.61-42.97c-0.66-2.68-2.4-4.96-4.8-6.32C817.86,205.75,816.17,205.32,814.47,205.32
			L814.47,205.32z"/>
	</g>
	
		<polygon fill="#FFFFFF" stroke="#F15E26" stroke-width="10" stroke-linecap="round" stroke-linejoin="round" stroke-miterlimit="10" points="
		506.13,445.03 558.44,276.98 623.13,287.78 656.13,432.48 608.13,445.03 603.13,392.74 572.13,392.74 558.44,445.03 	"/>
</g>
<g id="Layer_3" display="none">
	<g display="inline">
		<path fill="#3282C4" d="M416,383c0,0-0.14-0.49-0.41-1.4c-0.12-0.46-0.28-1.02-0.46-1.68c-0.17-0.67-0.32-1.44-0.52-2.32
			c-0.36-1.75-0.75-3.88-1.04-6.34c-0.32-2.46-0.54-5.25-0.67-8.28c-0.06-1.52-0.1-3.09-0.14-4.71c0-1.61,0-3.27,0-4.98
			c0-3.39,0.08-6.91,0.04-10.39c-0.05-3.48-0.23-6.92-0.7-10.13c-0.51-3.21-1.32-6.15-2.5-8.84c-1.2-2.69-2.8-5.16-4.71-7.52
			c-0.45-0.6-0.97-1.17-1.5-1.74c-0.5-0.57-1.04-1.14-1.6-1.69l-0.81-0.83l-0.88-0.8l-0.86-0.8l-0.21-0.2l-0.05-0.05
			c-0.24-0.21,0.3,0.26,0.23,0.21l-0.03-0.03l-0.14-0.11l-0.54-0.43c-0.63-0.5-1.25-0.99-1.86-1.48c-0.56-0.44-1.16-0.94-1.7-1.34
			c-1.1-0.87-2.12-1.62-3.01-2.28c-0.91-0.64-1.69-1.19-2.59-1.71c-0.89-0.53-2.05-1.05-3.49-1.67c-1.45-0.62-3.11-1.35-4.58-2.22
			c-1.49-0.86-2.8-1.82-3.91-2.8c-2.21-1.97-3.66-3.96-4.72-5.65c-1.03-1.73-1.68-3.16-2.07-4.19c-0.39-1.03-0.54-1.62-0.54-1.62
			s0.62,0,1.7,0.08c1.02,0.09,2.52,0.22,4.42,0.39c1.8,0.18,3.91,0.37,6.03,0.4c1.06,0,2.12-0.04,3.18-0.12
			c1.08-0.09,2.17-0.21,3.6-0.27c1.44-0.05,3.28-0.03,5.43,0.33c2.13,0.36,4.41,1.04,6.47,1.96c2.09,0.9,3.98,2.02,5.74,3.21
			c0.9,0.61,1.69,1.23,2.55,1.9c0.42,0.35,0.84,0.7,1.27,1.06c0.43,0.36,0.71,0.62,1.06,0.95l0.5,0.47l0.13,0.12l0.33,0.29
			l0.07,0.07l0.28,0.28l1.14,1.14l1.13,1.15l1.1,1.24c0.74,0.82,1.48,1.66,2.17,2.58c0.71,0.89,1.41,1.8,2.06,2.78
			c2.66,3.83,4.91,8.26,6.31,12.95c1.37,4.7,1.91,9.54,1.78,14.02c-0.13,4.48-0.79,8.63-1.61,12.44c-0.83,3.81-1.81,7.31-2.79,10.56
			c-0.49,1.62-0.96,3.19-1.42,4.71c-0.47,1.51-0.94,2.96-1.35,4.36c-0.88,2.79-1.61,5.35-2.28,7.64c-0.64,2.29-1.21,4.32-1.63,5.99
			C416.5,381.05,416,383,416,383z"/>
	</g>
	<g display="inline">
		<path fill="#3282C4" d="M451.02,505.17c0,0-0.95-0.66-2.72-1.81c-1.78-1.16-4.41-2.8-7.76-4.89c-3.36-2.08-7.44-4.61-12.08-7.68
			c-4.63-3.09-9.8-6.72-15.19-11.36c-2.7-2.32-5.39-4.95-8.05-8.01c-2.65-3.05-5.17-6.64-7.19-11.1c-0.46-1.15-0.95-2.3-1.3-3.56
			l-0.28-0.94l-0.21-0.84l-0.18-0.72l-0.09-0.36c-0.03-0.12-0.06-0.22-0.09-0.42c-0.56-2.98-0.71-5.35-0.71-7.92
			c0.06-5.03,1.03-9.87,2.38-14.45c1.32-4.61,3.14-8.97,5.15-13.19c1.99-4.24,4.24-8.31,6.64-12.28c2.41-3.95,4.86-7.86,7.46-11.61
			c2.54-3.67,5.09-7.35,7.64-11.03l0.23-0.33l0.36-0.51l0.5-0.68l0.99-1.36l1.99-2.72c1.32-1.81,2.65-3.62,3.96-5.42
			c2.61-3.56,5.22-7.11,7.8-10.63c1.26-1.76,2.51-3.51,3.75-5.25c1.25-1.73,2.48-3.46,3.67-5.18c2.39-3.45,4.66-6.89,6.83-10.28
			c1.11-1.69,2.1-3.4,3.14-5.08c0.49-0.85,0.97-1.7,1.46-2.54c0.5-0.83,0.98-1.67,1.43-2.51c1.91-3.33,3.5-6.69,5.05-9.97
			c1.5-3.29,2.81-6.55,3.92-9.75c0.6-1.59,1.04-3.19,1.55-4.76c0.4-1.58,0.86-3.13,1.21-4.67c1.45-6.14,2.13-11.97,2.3-17.21
			c0.17-5.25-0.11-9.92-0.58-13.76c-0.18-1.94-0.47-3.65-0.71-5.16c-0.12-0.76-0.23-1.46-0.33-2.1c-0.13-0.64-0.24-1.22-0.34-1.73
			c-0.4-2.1-0.61-3.22-0.61-3.22s0.59,0.98,1.7,2.81c0.27,0.46,0.58,0.98,0.91,1.55c0.31,0.58,0.63,1.23,0.98,1.92
			c0.35,0.7,0.73,1.45,1.13,2.26c0.4,0.81,0.74,1.7,1.14,2.63c1.63,3.72,3.22,8.45,4.39,14.1c1.17,5.64,1.82,12.24,1.5,19.45
			c-0.29,7.22-1.72,14.98-4.05,22.88c-2.4,7.87-5.72,15.87-9.79,23.66c-1.98,3.94-4.22,7.77-6.51,11.61
			c-1.15,1.92-2.32,3.83-3.52,5.73c-1.21,1.89-2.45,3.77-3.7,5.64c-2.5,3.75-5.02,7.48-7.64,11.14c-2.55,3.59-5.12,7.2-7.68,10.81
			c-5.34,7.56-10.48,14.54-15.15,21.59c-1.15,1.76-2.27,3.52-3.34,5.27c-1.09,1.74-2.13,3.48-3.1,5.22
			c-1.94,3.48-3.64,6.95-4.99,10.33c-1.38,3.38-2.24,6.69-2.71,9.75c-0.2,1.48-0.22,3.13-0.23,4.07c-0.01,0.05,0.01,0.18,0.03,0.31
			l0.05,0.37l0.1,0.73l0.05,0.37l0.02,0.18l0.01,0.09c0.01,0.06-0.03-0.15-0.01-0.04l0.08,0.49c0.07,0.64,0.25,1.33,0.39,2.01
			c0.39,1.37,0.91,2.79,1.57,4.2c0.68,1.41,1.44,2.81,2.29,4.2c1.67,2.78,3.63,5.41,5.62,7.93c4,5.03,8.16,9.51,11.86,13.51
			c3.72,4,7.02,7.51,9.67,10.48c2.67,2.96,4.67,5.4,5.98,7.1c0.66,0.85,1.14,1.52,1.45,1.97
			C450.85,504.93,451.02,505.17,451.02,505.17z"/>
	</g>
	<g display="inline">
		<path fill="#3282C4" d="M487.02,428.17c0,0-0.46-0.44-1.32-1.26c-0.85-0.83-2.07-2.07-3.54-3.7c-1.48-1.63-3.22-3.64-5.1-6.07
			c-1.88-2.43-3.9-5.28-5.88-8.65c-1.01-1.68-1.92-3.53-2.85-5.5c-0.89-2.01-1.71-4.15-2.39-6.51c-1.35-4.67-2.02-10.26-1.22-16.02
			c0.4-2.87,1.15-5.72,2.15-8.47c1.02-2.73,2.31-5.32,3.75-7.78c2.93-4.85,6.43-9.14,10.15-12.92c1.71-1.69,3.41-3.38,5.11-5.07
			c0.45-0.43,0.82-0.83,1.2-1.22l1.15-1.17c0.77-0.77,1.53-1.55,2.28-2.37c3.07-3.19,5.86-6.39,8.41-9.56
			c2.58-3.16,4.78-6.34,6.68-9.5c0.47-0.8,0.94-1.58,1.4-2.35c0.4-0.8,0.77-1.59,1.2-2.37c0.21-0.39,0.41-0.78,0.61-1.16
			c0.17-0.4,0.34-0.79,0.51-1.18c0.34-0.78,0.66-1.55,1.02-2.31c0.58-1.54,1.16-3.05,1.65-4.52c0.44-1.48,0.92-2.9,1.27-4.27
			c0.34-1.37,0.63-2.68,0.97-3.9c0.23-1.23,0.43-2.37,0.65-3.42c0.1-0.53,0.2-1.03,0.3-1.49c0.07-0.47,0.14-0.92,0.2-1.33
			c0.12-0.83,0.24-1.54,0.34-2.13c0.21-1.18,0.33-1.81,0.33-1.81s0.3,0.56,0.82,1.63c0.26,0.54,0.58,1.2,0.93,2
			c0.18,0.4,0.37,0.83,0.57,1.29c0.16,0.47,0.34,0.97,0.52,1.49c0.38,1.06,0.74,2.25,1.16,3.56c0.33,1.32,0.61,2.77,0.95,4.34
			c0.2,0.79,0.24,1.6,0.35,2.45c0.09,0.85,0.18,1.73,0.28,2.63c0.13,0.91,0.06,1.83,0.09,2.8c0,0.96,0.02,1.95,0,2.96
			c-0.29,4-0.82,8.46-2.23,12.92c-1.36,4.46-3.22,9.09-5.72,13.43c-2.46,4.37-5.35,8.64-8.59,12.56c-0.78,1.01-1.64,1.98-2.49,2.96
			l-1.29,1.47c-0.44,0.49-0.88,0.98-1.28,1.4l-2.49,2.62l-2.58,2.6c-3.06,3.09-5.8,6.24-8.06,9.36c-1.08,1.57-2.09,3.12-2.9,4.67
			c-0.81,1.55-1.46,3.1-1.99,4.66c-1,3.13-1.46,6.44-1.36,9.93c0.06,3.48,0.58,7.05,1.23,10.43c0.63,3.39,1.38,6.59,2.04,9.46
			c0.66,2.88,1.27,5.43,1.72,7.56C486.64,425.62,487.02,428.17,487.02,428.17z"/>
	</g>
	<g display="inline">
		<path fill="#3282C4" d="M539.02,409.17c0,0-1.67-1.36-4.22-3.94c-1.29-1.28-2.78-2.89-4.43-4.79c-1.64-1.9-3.41-4.12-5.21-6.66
			c-0.9-1.28-1.83-2.6-2.7-4.06c-0.9-1.43-1.8-2.95-2.64-4.57c-1.74-3.21-3.31-6.81-4.61-10.79c-1.31-3.97-2.18-8.44-2.41-13.25
			c-0.02-1.22-0.01-2.45,0.01-3.68c0.1-1.26,0.26-2.54,0.42-3.81l0.13-0.96l0.23-0.97c0.15-0.65,0.31-1.29,0.48-1.93l0.46-1.72
			l0.43-1.41c0.02-0.09,0.09-0.28,0.16-0.46l0.2-0.53l0.41-1.06c0.29-0.76,0.55-1.27,0.83-1.88c0.53-1.2,1.17-2.28,1.8-3.36
			c1.26-2.15,2.7-4.04,4.16-5.82c2.94-3.53,6.13-6.41,9.29-8.9c3.17-2.49,6.34-4.57,9.39-6.38c3.06-1.8,6-3.33,8.76-4.63
			c5.51-2.6,10.23-4.38,13.62-5.6c3.37-1.22,5.43-1.85,5.43-1.85s-0.23,0.48-0.71,1.36c-0.48,0.87-1.22,2.12-2.24,3.65
			c-1.01,1.53-2.31,3.31-3.84,5.29c-1.53,1.97-3.31,4.12-5.26,6.39s-4.08,4.65-6.27,7.1c-2.19,2.46-4.48,4.99-6.67,7.57
			c-2.19,2.58-4.3,5.23-6.08,7.84c-0.88,1.3-1.7,2.61-2.37,3.87c-0.32,0.63-0.65,1.26-0.91,1.87c-0.12,0.29-0.31,0.66-0.35,0.83
			l-0.28,0.7l-0.45,1.4l-0.03,0.09l-0.06,0.2l-0.01,0.03l-0.03,0.12l-0.06,0.23l-0.12,0.46c-0.08,0.31-0.17,0.61-0.27,0.92
			l-0.15,0.46l-0.08,0.5c-0.1,0.67-0.24,1.33-0.37,2c-0.05,0.72-0.1,1.43-0.19,2.15c-0.14,2.93-0.09,6.08,0.28,9.29
			c0.36,3.21,0.84,6.45,1.45,9.59c0.55,3.14,1.22,6.19,1.77,9.05c1.17,5.73,2.14,10.72,2.66,14.31
			C538.91,407.01,539.02,409.17,539.02,409.17z"/>
	</g>
	<g display="inline">
		<path fill="#3282C4" d="M584.02,383.17c0,0-1.36-0.13-3.44-0.64c-1.05-0.27-2.27-0.52-3.64-1.17c-1.35-0.61-2.95-1.36-4.5-2.36
			c-0.77-0.5-1.54-1.05-2.34-1.65c-0.8-0.59-1.61-1.23-2.35-1.99c-0.76-0.74-1.54-1.53-2.3-2.37c-0.76-0.84-1.41-1.83-2.11-2.8
			c-0.34-0.5-0.69-0.99-1.02-1.51c-0.31-0.53-0.59-1.1-0.89-1.66c-0.54-1.15-1.16-2.27-1.59-3.53c-0.42-1.26-0.82-2.54-1.17-3.85
			c-0.31-1.32-0.45-2.71-0.64-4.08l-0.11-1.03c-0.02-0.34-0.01-0.7-0.01-1.04c-0.01-0.7,0.02-1.39,0.04-2.09
			c0.03-0.69,0.04-1.39,0.12-2.07c0.12-0.68,0.22-1.36,0.36-2.03c0.41-2.71,1.44-5.21,2.47-7.51c0.61-1.11,1.23-2.17,1.88-3.18
			l0.48-0.75c0.17-0.24,0.37-0.46,0.55-0.68c0.37-0.44,0.73-0.88,1.1-1.3c0.37-0.42,0.72-0.83,1.1-1.22
			c0.36-0.4,0.72-0.77,1.13-1.09c0.79-0.67,1.56-1.29,2.32-1.84c1.46-1.17,3.07-1.88,4.41-2.56c1.34-0.67,2.63-1.06,3.71-1.34
			c2.14-0.58,3.46-0.67,3.46-0.67s-0.13,1.4-0.55,3.45c-0.2,1.03-0.5,2.19-0.7,3.55c-0.11,0.67-0.27,1.33-0.41,2.04
			c-0.06,0.36-0.17,0.69-0.24,1.05c-0.05,0.36-0.1,0.73-0.16,1.11c-0.11,0.75-0.24,1.49-0.39,2.23c-0.18,0.73-0.17,1.52-0.3,2.27
			c-0.07,0.76-0.29,1.48-0.28,2.24c-0.03,0.75-0.1,1.49-0.2,2.21c0.02,1.47-0.15,2.87-0.05,4.27c0.01,0.35-0.01,0.69-0.03,1.04
			l0.09,1.04c0.1,0.69-0.03,1.38,0.14,2.09c0.1,0.7,0.13,1.4,0.2,2.12c0.15,0.71,0.25,1.44,0.32,2.18c0,0.37,0.14,0.74,0.21,1.11
			c0.07,0.38,0.14,0.75,0.21,1.13c0.07,0.38,0.09,0.77,0.18,1.15c0.11,0.38,0.19,0.77,0.28,1.15c0.19,0.77,0.29,1.56,0.48,2.35
			c0.22,0.77,0.41,1.56,0.58,2.35c0.09,0.39,0.16,0.79,0.26,1.18c0.11,0.38,0.23,0.76,0.32,1.15c0.2,0.77,0.39,1.53,0.55,2.3
			c0.13,0.8,0.38,1.43,0.53,2.15c0.15,0.71,0.34,1.36,0.47,2.04c0.23,1.33,0.67,2.58,0.88,3.62
			C583.91,381.81,584.02,383.17,584.02,383.17z"/>
	</g>
	<g display="inline">
		<g>
			<path fill="#EF9E29" d="M33.48,348.63c12.88,16.26,31.86,19.31,51.27,21.55c8.75,1.01,17.52,2.16,25.57,5.94
				c9.03,4.24,14.55,11.85,18.15,20.94c1.56,3.93,5.38,3.38,7.07,0c2.2-4.4,1.75-9.71,0-14.14c-3.9-9.85-10.02-18.44-19.04-24.16
				c-7.82-4.96-17.47-6.7-26.5-7.93c-18.93-2.58-38.61-3.24-51.47-19.47c-2.9-3.67-6.03,0.82-6.84,3.59
				C30.43,339.23,30.59,345,33.48,348.63L33.48,348.63z"/>
		</g>
	</g>
	<g display="inline">
		<g>
			<path fill="#EF9E29" d="M76.52,348.37c-3.17-3.67-5.96-7.55-8.22-11.84c-0.7-1.34-1.68-3.66-1.85-4.59
				c0.14,0.78-0.22,2.08-0.48,2.68c0.39-0.93,1.55-1.49,2.35-1.97c5.84-3.49,3.53-22.99-2.66-19.29c-9.9,5.92-10.27,18.38-7.9,28.49
				c2.06,8.79,7.9,17.05,13.7,23.79c3.01,3.49,5.98-0.66,6.84-3.59C79.53,357.91,79.51,351.83,76.52,348.37L76.52,348.37z"/>
		</g>
	</g>
	<g display="inline">
		<g>
			<path fill="#EF9E29" d="M65.32,352.95c-2.1-6.09-4.9-11.91-7-18c-1,4.9-1.99,9.79-2.99,14.69c1.76-1.36,3.92-1.26,6-2
				c6.13-2.19,4.77-21.93-2.66-19.29c-2.15,0.77-4.07,0.51-6,2c-4.02,3.11-4.55,10.17-2.99,14.69c2.1,6.09,4.9,11.91,7,18
				c0.97,2.81,3.77,7.18,6.84,3.59C66.4,363.26,66.71,356.98,65.32,352.95L65.32,352.95z"/>
		</g>
	</g>
	<g display="inline">
		<g>
			<path fill="#EF9E29" d="M44.18,360.66c5.28,32.81,40.6,48.86,70.82,50.34c6.84,0.33,7.12-19.65,0-20
				c-13.07-0.64-25.86-4.21-37.51-10.13c-10.04-5.11-21.8-13.91-23.67-25.53c-0.39-2.44-2.24-9.13-6.15-6.98
				C43.93,350.41,43.6,357.07,44.18,360.66L44.18,360.66z"/>
		</g>
	</g>
	<g display="inline">
		<g>
			<path fill="#EF9E29" d="M63.18,358.34c-1.63,17.47,6.02,31.05,20.4,40.53c11.97,7.89,26.48,12.29,40.42,15.13
				c6.15,1.25,7.29-18.52,0-20c-11.36-2.31-22.5-6.01-32.75-11.45c-5.17-2.75-9.99-6.08-13.95-10.42c-1.69-1.86-2.94-3.84-3.99-6.11
				c0.34,0.74-0.68-2.98-0.4-1.36c-0.12-0.69-0.06-1.47-0.1-1c0.34-3.68,0.4-10.16-3.49-12.3
				C65.52,349.26,63.41,355.84,63.18,358.34L63.18,358.34z"/>
		</g>
	</g>
	<g display="inline">
		<g>
			<path fill="#EF9E29" d="M59.46,378.07c3.46,7.01,0.33,15.17-0.76,22.49c-1.35,9.1-0.57,18.31,2.91,26.85
				c5.51,13.5,17.82,21.45,31.05,26.23c7.41,2.68,8.79-17.07,2.66-19.29c-10.61-3.84-23-9.85-26.67-21.46
				c-2.03-6.41,1.03-14.14,1.9-20.59c1.31-9.72,0.34-19.53-4.02-28.38c-1.8-3.66-5.26-3.62-7.07,0
				C57.39,368.08,57.42,373.92,59.46,378.07L59.46,378.07z"/>
		</g>
	</g>
	<g display="inline">
		<g>
			<path fill="#EF9E29" d="M77.46,390.93c-5.01,12.87-8.08,26.89-3.53,40.39c3.96,11.74,13.33,19.84,22.73,27.32
				c3.54,2.81,5.9-5.13,6.15-6.98c0.58-4.23,0.06-9.48-3.49-12.3c-6.12-4.87-12.67-10.19-16.31-17.27c-1.39-2.71-1.38-3.78-1.32-6.5
				c0.06-2.51,1.62-7.39,2.84-10.52c1.73-4.45,2.21-9.72,0-14.14C82.85,387.56,79,386.98,77.46,390.93L77.46,390.93z"/>
		</g>
	</g>
	<g display="inline">
		<g>
			<path fill="#EF9E29" d="M66.18,384.34c-3.25,23.36,1.89,47.07,17.3,65.29c2.99,3.53,5.99-0.7,6.84-3.59
				c1.22-4.17,1.17-10.18-1.79-13.68c-10.33-12.21-14.91-26.83-12.7-42.71c0.5-3.62,0.29-10.22-3.49-12.3
				C68.45,375.23,66.52,381.88,66.18,384.34L66.18,384.34z"/>
		</g>
	</g>
	<g display="inline">
		<g>
			<path fill="#EF9E29" d="M66.18,425.34c-1.96,18.71-0.32,38.19,9.07,54.85c8.84,15.7,23.84,26.16,40.42,32.45
				c7.32,2.78,8.78-16.96,2.66-19.29c-13.5-5.12-26.79-12.91-34.81-25.31c-7.3-11.3-9.07-24.33-7.7-37.39
				c0.38-3.67,0.37-10.18-3.49-12.3C68.5,416.25,66.44,422.85,66.18,425.34L66.18,425.34z"/>
		</g>
	</g>
	<g display="inline">
		<g>
			<path fill="#EF9E29" d="M87.18,435.34c-4.34,27.51,7.9,55.94,28.3,74.29c6.9,6.21,9.73-13.06,5.05-17.27
				c-14.02-12.62-26.81-32-23.7-51.71c0.57-3.6,0.25-10.24-3.49-12.3C89.43,426.21,87.56,432.9,87.18,435.34L87.18,435.34z"/>
		</g>
	</g>
	<g display="inline">
		<g>
			<path fill="#EF9E29" d="M77.18,440.34c-4.31,30.35,8.01,58.2,31.49,77.3c3.51,2.86,5.9-5.17,6.15-6.98
				c0.59-4.27,0.04-9.43-3.49-12.3c-15.83-12.88-27.48-31.73-24.51-52.7c0.51-3.62,0.29-10.22-3.49-12.3
				C79.45,431.22,77.53,437.89,77.18,440.34L77.18,440.34z"/>
		</g>
	</g>
	<g display="inline">
		<g>
			<path fill="#EF9E29" d="M82.68,440.95c-7.55,23.89,2.9,50.04,14.76,70.63c11.6,20.14,26.7,39.81,45.23,54.06
				c3.58,2.75,5.89-5.07,6.15-6.98c0.57-4.18,0.09-9.55-3.49-12.3c-15.61-12-28.51-28.79-38.75-45.45
				c-5.48-8.92-10.34-18.38-13.57-28.36c-1.5-4.63-2.31-8.44-2.77-13.26c0.15,1.57,0.16-4.9,0-2.98c0.23-2.79,0.24-2.62,1.07-5.26
				c1.3-4.1,1.14-10.25-1.79-13.68C86.49,433.81,83.59,438.09,82.68,440.95L82.68,440.95z"/>
		</g>
	</g>
	<g display="inline">
		<g>
			<path fill="#EF9E29" d="M116,547c-0.22,6.46-10.75,12.29-15.33,15.36c-3.68,2.46-4.03,8.36-3.49,12.3
				c0.29,2.15,2.43,9.47,6.15,6.98c5.37-3.59,10.69-7.36,14.95-12.27c5.42-6.25,7.44-14.28,7.72-22.37c0.1-2.83-0.9-10-5-10
				C116.76,537,116.1,544.17,116,547L116,547z"/>
		</g>
	</g>
	<g display="inline">
		<g>
			<path fill="#EF9E29" d="M122.48,551.37c-11.54,10.71-12.72,27.74-7.01,41.71c1.59,3.89,5.36,3.41,7.07,0
				c2.18-4.37,1.8-9.75,0-14.14c-1.68-4.1,2.18-7.69,4.99-10.29C132.15,564.35,129.25,545.07,122.48,551.37L122.48,551.37z"/>
		</g>
	</g>
	<g display="inline">
		<g>
			<path fill="#EF9E29" d="M128.48,550.37c-11.12,15.83-14.8,42.66,4.19,54.28c6.12,3.74,8.47-15.73,2.66-19.29
				c-8.19-5.01-7.06-10.25-1.81-17.72c2.72-3.87,3.11-9.2,1.79-13.68C134.57,551.4,131.22,546.47,128.48,550.37L128.48,550.37z"/>
		</g>
	</g>
	<g display="inline">
		<g>
			<path fill="#EF9E29" d="M124.18,564.34c-1.01,9.38,0.63,18.15,6.32,25.8c4.65,6.26,12.26,10.31,19.18,13.5
				c6.91,3.19,8.72-16.49,2.66-19.29c-4.37-2.02-8.57-4.28-12.45-7.15c-1.73-1.28-6.32-5.07-6.06-7.55
				c0.4-3.67,0.36-10.18-3.49-12.3C126.5,555.25,124.45,561.85,124.18,564.34L124.18,564.34z"/>
		</g>
	</g>
	<g display="inline">
		<g>
			<path fill="#EF9E29" d="M132.46,568.07c3.56,5.53,7.74,9.92,12.61,14.3c4.76,4.29,8.26,8.28,9.61,14.68
				c0.65,3.06,3.95,6.97,6.84,3.59c3.13-3.67,2.71-9.34,1.79-13.68c-1.49-7.05-4.75-13.31-9.71-18.53
				c-4.64-4.88-10.38-8.74-14.08-14.49c-2.1-3.27-5.09-3.96-7.07,0C130.57,557.73,130.07,564.34,132.46,568.07L132.46,568.07z"/>
		</g>
	</g>
	<g display="inline">
		<g>
			<path fill="#EF9E29" d="M151.46,574.07c5.56,13.13,13.61,27.48,27.21,33.57c6.98,3.13,8.74-16.56,2.66-19.29
				c-11.71-5.25-18.01-17.14-22.79-28.43c-1.63-3.85-5.35-3.45-7.07,0C149.3,564.26,149.62,569.72,151.46,574.07L151.46,574.07z"/>
		</g>
	</g>
	<g display="inline">
		<g>
			<path fill="#EF9E29" d="M163.68,576.05c4.34,16.27,20.33,23.66,34.99,28.6c7.52,2.53,8.79-17.22,2.66-19.29
				c-9.55-3.22-26.05-8.29-29.01-19.4c-0.79-2.96-3.88-7.06-6.84-3.59C162.45,565.91,162.56,571.83,163.68,576.05L163.68,576.05z"/>
		</g>
	</g>
	<g display="inline">
		<g>
			<path fill="#EF9E29" d="M199.68,585.05c2.02,7.1-1.17,12.47-5.21,18.32c-2.7,3.91-3.12,9.17-1.79,13.68
				c0.74,2.52,4.13,7.52,6.84,3.59c9.68-14.04,13.57-28.91,8.79-45.68c-0.83-2.92-3.85-7.09-6.84-3.59
				C198.49,574.87,198.49,580.87,199.68,585.05L199.68,585.05z"/>
		</g>
	</g>
	<g display="inline">
		<g>
			<path fill="#EF9E29" d="M202.68,570.95c-4.74,18.81-8.43,37.31,1.78,55.12c1.98,3.45,5.16,3.81,7.07,0
				c1.98-3.96,2.25-10.22,0-14.14c-2.27-3.95-4.32-8.19-3.98-12.87c0.43-6.12,2.28-12.09,3.77-18.01
				c1.07-4.25,1.26-10.11-1.79-13.68C206.58,563.92,203.43,567.97,202.68,570.95L202.68,570.95z"/>
		</g>
	</g>
	<g display="inline">
		<g>
			<path fill="#EF9E29" d="M190.46,590.93c-2.75,4.62-5.25,9.38-8,14c-2.3,3.86-1.95,10.24,0,14.14c1.93,3.86,5.05,3.39,7.07,0
				c2.75-4.62,5.25-9.38,8-14c2.3-3.86,1.95-10.24,0-14.14C195.6,587.07,192.48,587.54,190.46,590.93L190.46,590.93z"/>
		</g>
	</g>
	<g display="inline">
		<g>
			<path fill="#EF9E29" d="M116,542c-3.03-0.8-6.56-2.79-8.48-4.63c-3.22-3.1-5.88,0.31-6.84,3.59c-1.12,3.81-1.39,10.61,1.79,13.68
				c3.95,3.81,8.26,5.98,13.52,7.37c1.52,0.4,3.04-1.94,3.54-2.93c1.08-2.16,1.46-4.68,1.46-7.07C121,548.26,120.14,543.09,116,542
				L116,542z"/>
		</g>
	</g>
	<g display="inline">
		<g>
			<path fill="#EF9E29" d="M108,546c-1.66-0.04-3.16-0.31-4.71-0.88c-1.74-0.65-3.81-1.84-4.77-2.75c-3.24-3.07-5.87,0.28-6.84,3.59
				c-1.11,3.79-1.4,10.64,1.79,13.68c3.95,3.75,9,6.22,14.52,6.37c4.16,0.11,5-7.26,5-10C113,553.08,112.18,546.11,108,546L108,546z
				"/>
		</g>
	</g>
	<g display="inline">
		<g>
			<path fill="#EF9E29" d="M111.54,532.93c-4.06-6.54-9.25-11.74-15.21-16.57c-3.52-2.85-5.9,5.16-6.15,6.98
				c-0.59,4.27-0.04,9.44,3.49,12.3c3.97,3.22,8.08,7.05,10.79,11.43c2.06,3.32,5.11,3.92,7.07,0
				C113.46,543.22,113.89,536.72,111.54,532.93L111.54,532.93z"/>
		</g>
	</g>
	<g display="inline">
		<g>
			<path fill="#EF9E29" d="M94.67,521.36c-4.62,1.91-9.28,4.84-12.19,9.01c-2.72,3.88-3.11,9.19-1.79,13.68
				c0.75,2.55,4.11,7.49,6.84,3.59c2.42-3.46,5.65-5.27,9.81-6.99c1.62-0.67,2.55-3.11,2.99-4.6c0.72-2.47,0.85-5.16,0.5-7.71
				C100.43,525.48,98.69,519.69,94.67,521.36L94.67,521.36z"/>
		</g>
	</g>
	<g display="inline">
		<g>
			<path fill="#EF9E29" d="M103.52,536.37c-2.87-2.87-5.83-5.71-9.19-8.01c-3.7-2.53-5.86,4.87-6.15,6.98
				c-0.55,3.97-0.18,9.79,3.49,12.3c0.61,0.42,1.21,0.85,1.79,1.3c0.3,0.23,0.59,0.47,0.88,0.71c-0.96-0.79,0.44,0.41,0.51,0.48
				c1.25,1.12,2.44,2.31,3.62,3.5c3.18,3.18,5.9-0.38,6.84-3.59c0.72-2.47,0.85-5.16,0.5-7.71
				C105.56,540.42,104.97,537.81,103.52,536.37L103.52,536.37z"/>
		</g>
	</g>
	<g display="inline">
		<g>
			<path fill="#EF9E29" d="M107.33,512.36c-6.43-2.22-12.6-5.08-19.33-6.36c-4.03-0.76-5,7.8-5,10c0,3.49,0.82,9.21,5,10
				c5.78,1.1,11.13,3.74,16.67,5.64C112.16,534.22,113.46,514.47,107.33,512.36L107.33,512.36z"/>
		</g>
	</g>
	<g display="inline">
		<g>
			<path fill="#EF9E29" d="M98.52,503.37c-4.23-4.17-8.89-8.25-14.19-11.01c-6.61-3.43-8.64,16.18-2.66,19.29
				c4.43,2.3,8.27,5.5,11.81,8.99c3.2,3.15,5.89-0.36,6.84-3.59C101.45,513.19,101.69,506.49,98.52,503.37L98.52,503.37z"/>
		</g>
	</g>
	<g display="inline">
		<g>
			<path fill="#EF9E29" d="M83.33,476.36c-6.96-2.13-12.99-6-19-10c-3.72-2.48-5.85,4.83-6.15,6.98c-0.54,3.93-0.19,9.85,3.49,12.3
				c6.01,4,12.04,7.87,19,10c4.11,1.26,5.71-3.77,6.15-6.98C87.22,485.75,87.24,477.55,83.33,476.36L83.33,476.36z"/>
		</g>
	</g>
	<g display="inline">
		<g>
			<path fill="#EF9E29" d="M83.52,466.37c-4.08-4.18-7.49-8.77-9.21-14.41c-0.88-2.89-3.83-7.12-6.84-3.59
				c-2.95,3.46-3.05,9.56-1.79,13.68c2.49,8.19,6.81,15.47,12.79,21.59c3.16,3.23,5.91-0.42,6.84-3.59
				C86.46,476.13,86.65,469.56,83.52,466.37L83.52,466.37z"/>
		</g>
	</g>
	<g display="inline">
		<g>
			<path fill="#EF9E29" d="M115.82,356.34c-1.59-10.73-6.13-20.15-12.3-28.98c-2.73-3.91-6.1,1.04-6.84,3.59
				c-1.32,4.49-0.92,9.8,1.79,13.68c3.56,5.1,6.78,10.8,7.7,17.02c0.36,2.45,2.26,9.12,6.15,6.98
				C116.1,366.57,116.36,359.95,115.82,356.34L115.82,356.34z"/>
		</g>
	</g>
	<g display="inline">
		<g>
			<path fill="#EF9E29" d="M99.52,362.63c3.65-4.56,7.15-8.94,12.81-10.99c3.9-1.41,3.92-9.22,3.49-12.3
				c-0.42-3.03-2.08-8.46-6.15-6.98c-6.47,2.35-11.02,7.79-15.19,13.01c-2.9,3.62-3.04,9.42-1.79,13.68
				C93.5,361.84,96.6,366.28,99.52,362.63L99.52,362.63z"/>
		</g>
	</g>
	<g display="inline">
		<g>
			<path fill="#EF9E29" d="M113.52,363.63c4.97-5.07,9.03-10.93,14-16c3.13-3.19,2.94-9.77,1.79-13.68
				c-0.93-3.17-3.68-6.81-6.84-3.59c-4.97,5.07-9.03,10.93-14,16c-3.13,3.19-2.94,9.77-1.79,13.68
				C107.61,363.22,110.36,366.86,113.52,363.63L113.52,363.63z"/>
		</g>
	</g>
	<g display="inline">
		<g>
			<path fill="#EF9E29" d="M103.52,350.37c-1.58-1.6-3.11-3.24-4.52-5c-0.59-0.73-0.74-0.97-1.19-1.77
				c-1.16-2.05,0.2,1.75,0.01,3.06c0.53-3.61,0.28-10.23-3.49-12.3c-3.88-2.14-5.79,4.53-6.15,6.98
				c-1.54,10.59,3.1,19.01,10.3,26.29c3.17,3.21,5.91-0.4,6.84-3.59C106.46,360.15,106.66,353.54,103.52,350.37L103.52,350.37z"/>
		</g>
	</g>
	<g display="inline">
		<g>
			<path fill="#EF9E29" d="M225,201c-0.31-6.84-0.32-14.47,3.09-20.64c2.93-5.3,8.83-8.57,13.48-9.55
				c2.27-0.48,11.36-3.03,5.38-6.04c-5.75-2.89-14.38-2.89-20.52-1.58c-9.6,2.04-20.07,4.97-26.23,13.22
				c-5.19,6.94-5.57,16.31-5.2,24.59C195.31,207.75,225.28,207.11,225,201L225,201z"/>
		</g>
	</g>
	<g display="inline">
		<g>
			<path fill="#EF9E29" d="M223.46,192.6c7.5-18.64-3.09-35.07-16.51-47.64c-4.55-4.26-15.1-3.43-20.52-2.16
				c-4.34,1.02-10.05,3.86-5.38,8.23c10.19,9.54,19.21,24.14,13.49,38.36c-2.2,5.46,6.9,7.01,10.48,7.4
				C209.03,197.24,221.39,197.74,223.46,192.6L223.46,192.6z"/>
		</g>
	</g>
	<g display="inline">
		<g>
			<path fill="#EF9E29" d="M212.95,190.56C187.69,170,152.64,172.41,122,171.21c-5.02-0.2-15,2.14-15,8.79c0,6.92,9.98,8.6,15,8.79
				c5.83,0.23,11.66,0.31,17.49,0.46c3.39,0.08,6.77,0.21,10.15,0.37c1.47,0.07,2.94,0.16,4.41,0.26c1.82,0.13,1.96,0.14,0.43,0.03
				c0.98,0.09,1.96,0.18,2.94,0.29c2.91,0.29,5.81,0.71,8.7,1.18c1.42,0.23,2.83,0.52,4.24,0.81c1.67,0.39,1.86,0.41,0.56,0.09
				c0.9,0.23,1.8,0.48,2.7,0.75c5.42,1.56,9.54,3.25,13.43,6.42c5.65,4.6,13.68,5.51,20.52,3.15
				C212.04,201.06,218.59,195.15,212.95,190.56L212.95,190.56z"/>
		</g>
	</g>
	<g display="inline">
		<g>
			<path fill="#EF9E29" d="M144.43,196.25c-16.46,1.11-33.98,2.33-44.43,16.75c-0.52,0.72,4.78,1.49,4.39,1.44
				c3.51,0.47,7.07,0.59,10.61,0.59c3.05,0,12.83,0.97,15-2.03c7.55-10.43,18.05-12.47,29.57-13.25c1.09-0.07,11.24-1.42,5.38-2.78
				C158.37,195.45,151.11,195.8,144.43,196.25L144.43,196.25z"/>
		</g>
	</g>
	<g display="inline">
		<g>
			<path fill="#EF9E29" d="M149.95,197.25c-4.62-1.79-9.52-2.86-14-5c-2.6-1.24-6.16-1.42-8.96-1.59
				c-3.84-0.24-7.74-0.17-11.56,0.35c-2.11,0.29-11.04,2.05-5.38,4.75c4.48,2.14,9.38,3.21,14,5c6.19,2.4,14.07,2.12,20.52,1.25
				C146.28,201.76,155.98,199.58,149.95,197.25L149.95,197.25z"/>
		</g>
	</g>
	<g display="inline">
		<g>
			<path fill="#EF9E29" d="M177,194c0-7.67,0-15.33,0-23c0-6.49-30-6.49-30,0c0,7.67,0,15.33,0,23C147,200.49,177,200.49,177,194
				L177,194z"/>
		</g>
	</g>
	<g display="inline">
		<g>
			<path fill="#EF9E29" d="M203,187c-1.13-9.52-3.38-18.49-7.54-27.16c-0.82-1.71-5.47-2.36-6.89-2.6
				c-3.8-0.65-7.72-0.74-11.56-0.44c-2.42,0.19-12.61,0.91-10.48,5.35c3.73,7.79,5.45,16.32,6.46,24.84
				C173.84,194.11,203.64,192.42,203,187L203,187z"/>
		</g>
	</g>
	<g display="inline">
		<g>
			<path fill="#EF9E29" d="M197.39,228.63c13.86,7.79,30.39,12.57,40.65,25.39c6.23,7.78,35.03,3.35,25.9-8.04
				c-11.44-14.28-29.92-19.94-45.35-28.61c-6.03-3.39-15.17-3.21-21.21,0C191.8,220.34,192.03,225.62,197.39,228.63L197.39,228.63z"
				/>
		</g>
	</g>
	<g display="inline">
		<g>
			<path fill="#EF9E29" d="M198.54,246.23c7.82,16.15,27.91,19.71,44.05,20.36c15.22,0.61,30.6-2.22,45.4-5.5
				c4.25-0.94,13.61-3.95,10.48-10.31c-2.87-5.83-12.91-7.09-18.45-5.86c-4.92,1.09-9.86,2.11-14.83,2.97
				c-2.98,0.52-5.97,0.94-8.97,1.32c-1.55,0.19-3.11,0.35-4.67,0.49c-1.72,0.14-1.57,0.13,0.45-0.03c-1.18,0.08-2.36,0.12-3.54,0.16
				c-1.56,0.06-3.13,0.05-4.69,0.03c-0.82-0.01-5.99-0.39-1.74-0.02c-1.48-0.13-2.94-0.34-4.4-0.58c-0.71-0.12-1.42-0.26-2.12-0.41
				c3.58,0.73,0.22-0.03-0.46-0.24c-0.64-0.21-1.28-0.44-1.91-0.68c1.5,0.68,1.61,0.71,0.33,0.1c-0.48-0.23-3.76-2.43-1.68-0.86
				c-1-0.75-1.87-1.65-2.72-2.57c-0.74-0.87-0.8-0.96-0.19-0.26c-0.55-0.8-0.97-1.68-1.4-2.56
				C222.66,231.84,193.09,234.99,198.54,246.23L198.54,246.23z"/>
		</g>
	</g>
	<g display="inline">
		<g>
			<path fill="#EF9E29" d="M283,248c-0.38,1.58,0.42-1.09,0.44-1.13c0.28-0.8,0.65-1.57,1.01-2.34c0.37-0.77,2.76-4.33,1.72-3.02
				c1.08-1.37,2.35-2.58,3.64-3.75c0.67-0.6,1.38-1.15,2.09-1.69c-2.16,1.66,1.05-0.62,1.49-0.89c1.64-0.99,3.37-1.83,5.12-2.62
				c-2.94,1.34,0.12,0,0.64-0.2c1.27-0.48,2.56-0.88,3.85-1.28c0.99-0.3,1.99-0.56,2.99-0.82c-3.63,0.94-0.18,0.05,0.5-0.09
				c2.43-0.49,4.9-0.83,7.36-1.11c0.81-0.09,4.52-0.34,0.29-0.06c1.07-0.07,2.14-0.1,3.22-0.13c2.13-0.06,4.27-0.02,6.4,0.07
				c3.7,0.15-3.44-0.32,0.22,0c1.04,0.09,2.07,0.22,3.1,0.35c1.02,0.13,2.03,0.29,3.04,0.46c0.8,0.13,5.31,1.12,1.32,0.18
				c1.87,0.44,3.71,1,5.53,1.61c0.88,0.29,1.73,0.63,2.59,0.97c-3.33-1.31,0.33,0.23,0.99,0.56c0.79,0.4,5.01,3.22,2.57,1.42
				c1.44,1.06,2.73,2.32,3.92,3.65c4.5,5.07,14.74,4.81,20.52,2.95c5.27-1.69,9.9-6.16,5.38-11.26
				c-6.63-7.48-16.87-11.74-26.37-14.12c-13.38-3.36-27-3.91-40.7-2.53c-21.35,2.15-47.41,11.72-52.89,34.81
				c-1.5,6.3,11.54,8.23,15,8.23C273.96,256.23,281.45,254.52,283,248L283,248z"/>
		</g>
	</g>
	<g display="inline">
		<g>
			<path fill="#EF9E29" d="M419.46,139.82c-4.24-10.21-10.78-19.11-18.51-26.96c-4.83-4.91-14.48-4.88-20.52-2.94
				c-4.98,1.59-10.23,6.3-5.38,11.23c6.67,6.77,11.83,14.23,15.49,23.04C394.65,154.09,424.26,151.39,419.46,139.82L419.46,139.82z"
				/>
		</g>
	</g>
	<g display="inline">
		<g>
			<path fill="#EF9E29" d="M442,148c0.09-5.24,1.16-10.26,3.48-14.97c1.28-2.59,3.03-4.89,5.02-6.97c0.63-0.66,1.5-1.14,2.26-1.63
				c1.97-1.29,0.33-0.16-0.78-0.04c2.12-0.22,13.96-2.16,10.48-6.87c-3.5-4.74-13.43-4.43-18.45-3.9
				c-9.77,1.04-18.63,4.37-24.83,12.24c-4.76,6.05-7.04,14.56-7.18,22.15C411.86,155.92,441.85,156.13,442,148L442,148z"/>
		</g>
	</g>
	<g display="inline">
		<g>
			<path fill="#EF9E29" d="M473,170c0.9-8.67,1.55-17.46,4.39-25.76c1.26-3.69,3.15-7.05,5.86-9.85c1.47-1.52,3.25-2.69,5.09-3.7
				c0.88-0.49,4.35-1.12,1.65-0.96c0.55-0.03,13.36-1.5,10.48-3.46c-4.52-3.09-13.37-2.26-18.45-1.97
				c-12.96,0.75-25.65,3.04-32.49,15.11c-5.13,9.07-5.48,20.5-6.53,30.61C442.66,173.27,472.48,175.03,473,170L473,170z"/>
		</g>
	</g>
	<g display="inline">
		<g>
			<path fill="#EF9E29" d="M549.95,193.95c-3.94-3.05-8.82-6.38-11.68-10.17c-2.92-3.87-3.17-7.19,1.34-10.12
				c5.04-3.28,5.87-8.2,0-11.34c-5.75-3.08-15.54-3.69-21.21,0c-8.32,5.41-15.04,12.52-10.75,22.85
				c2.95,7.11,10.53,12.31,16.4,16.86c5.64,4.37,13.84,4.97,20.52,2.88C548.76,203.61,555.61,198.34,549.95,193.95L549.95,193.95z"
				/>
		</g>
	</g>
	<g display="inline">
		<g>
			<path fill="#EF9E29" d="M542,210c-2.53-9.88-3.47-20.29-1.7-30.38c1.6-9.11,7.19-19.7,17.31-21.13c0.28-0.04,4.39-0.4,4.39-1.5
				s-4.11-1.46-4.39-1.5c-6.92-0.98-14.3-0.97-21.21,0c-12.39,1.75-21.3,7.69-25.09,19.93c-3.41,11.01-2.11,23.59,0.7,34.57
				c0.72,2.8,13.14,2.12,15,2.12C527.86,212.12,542.47,211.83,542,210L542,210z"/>
		</g>
	</g>
	<g display="inline">
		<g>
			<path fill="#EF9E29" d="M583,200c-0.69-11.17,0.68-25.78,10.61-33c4.92-3.58,6.02-8.6,0-12.01c-5.59-3.17-15.74-3.98-21.21,0
				c-14.89,10.83-20.51,26.93-19.39,45c0.41,6.69,9.82,8.49,15,8.49C572.5,208.49,583.41,206.63,583,200L583,200z"/>
		</g>
	</g>
	<g display="inline">
		<path fill="#EF9E29" d="M495.43,61.75c0,0,0.32,0.57,0.92,1.62c0.28,0.55,0.7,1.15,1.19,1.86c0.46,0.73,1.08,1.51,1.79,2.39
			c1.43,1.73,3.3,3.74,5.76,5.69c2.44,1.98,5.4,3.96,8.83,5.77c6.85,3.63,15.53,6.58,25.1,8.31c9.56,1.74,20.01,2.44,30.35,1.56
			c5.18-0.37,10.25-1.54,15.3-2.42c5.04-0.92,10.03-1.69,14.9-2.13c4.86-0.46,9.63-0.41,14.05,0.36c4.41,0.79,8.46,2.23,11.82,4.23
			l0.64,0.34l0.6,0.4c0.4,0.27,0.79,0.53,1.18,0.79c0.76,0.54,1.57,0.99,2.23,1.58c0.69,0.57,1.35,1.12,2,1.66
			c0.32,0.27,0.64,0.53,0.96,0.8c0.31,0.27,0.58,0.56,0.87,0.84c1.12,1.12,2.22,2.13,3.14,3.14c0.91,1.03,1.74,1.98,2.49,2.83
			c0.77,0.84,1.37,1.66,1.92,2.36c0.54,0.7,1,1.29,1.38,1.77C643.6,106.49,644,107,644,107s-0.4-0.51-1.16-1.47
			c-0.38-0.48-0.84-1.07-1.39-1.76c-0.55-0.69-1.15-1.51-1.93-2.34c-0.76-0.85-1.59-1.79-2.5-2.82c-0.93-1.01-2.03-2-3.15-3.12
			c-0.29-0.27-0.56-0.57-0.87-0.83c-0.32-0.26-0.64-0.52-0.96-0.79c-0.65-0.53-1.32-1.08-2.01-1.64c-0.67-0.59-1.48-1.02-2.24-1.56
			c-0.39-0.26-0.78-0.52-1.18-0.79l-0.6-0.4l-0.64-0.34c-3.36-1.98-7.4-3.39-11.78-4.14c-4.39-0.74-9.14-0.77-13.98-0.28
			c-4.85,0.47-9.82,1.26-14.85,2.21c-5.03,0.91-10.12,2.11-15.33,2.52c-10.39,0.95-20.89,0.31-30.52-1.38
			c-9.64-1.68-18.41-4.6-25.37-8.24c-3.48-1.81-6.51-3.81-9-5.81c-2.52-1.98-4.45-4.03-5.93-5.79c-0.73-0.89-1.38-1.69-1.87-2.46
			c-0.51-0.74-0.96-1.38-1.24-1.91c-0.61-1.06-0.93-1.62-0.93-1.62L495.43,61.75z"/>
	</g>
	<g display="inline">
		<path fill="#EF9E29" d="M575.23,564.99c0,0-0.16-0.36-0.46-1.04c-0.3-0.65-0.74-1.73-1.29-2.88c-0.27-0.59-0.58-1.25-0.91-1.96
			c-0.36-0.74-0.74-1.55-1.16-2.41c-0.83-1.73-1.8-3.72-2.83-5.97c-0.52-1.12-1.03-2.34-1.56-3.58c-0.25-0.65-0.5-1.31-0.76-1.98
			c-0.13-0.33-0.26-0.67-0.39-1.01c-0.12-0.36-0.23-0.71-0.35-1.08c-0.98-2.82-1.73-6.12-1.89-9.64c-0.01-0.44-0.02-0.89-0.03-1.33
			c-0.02-0.44-0.02-0.89,0.04-1.35c0.09-0.9,0.19-1.81,0.29-2.72c0.22-0.89,0.43-1.79,0.65-2.69l0.17-0.67l0.25-0.64l0.51-1.28
			l0.52-1.27c0.2-0.41,0.43-0.79,0.65-1.18c0.45-0.78,0.88-1.58,1.36-2.32c1.05-1.38,2.12-2.91,3.13-4.02
			c0.95-1.18,2.21-2.47,3.38-3.7c1.2-1.12,2.37-2.27,3.6-3.3c2.42-2.12,4.9-4,7.3-5.79c4.83-3.54,9.41-6.62,13.25-9.37
			c1.92-1.37,3.66-2.66,5.19-3.82c1.51-1.18,2.82-2.22,3.86-3.12c1.07-0.87,1.84-1.63,2.4-2.12c0.55-0.5,0.84-0.77,0.84-0.77
			s-0.25,0.3-0.73,0.87c-0.48,0.56-1.16,1.42-2.11,2.42c-0.92,1.04-2.1,2.24-3.46,3.62c-1.38,1.36-2.95,2.88-4.69,4.49
			c-3.48,3.24-7.65,6.9-11.89,10.95c-2.11,2.03-4.25,4.15-6.24,6.41c-1.03,1.11-1.95,2.29-2.91,3.45c-0.85,1.18-1.69,2.25-2.56,3.65
			c-0.94,1.37-1.5,2.55-2.22,3.76c-0.29,0.62-0.52,1.25-0.78,1.86c-0.12,0.31-0.27,0.61-0.37,0.92l-0.23,0.94l-0.24,0.92l-0.12,0.46
			l-0.05,0.47c-0.07,0.61-0.14,1.22-0.2,1.83c0.02,0.61,0.04,1.21,0.06,1.81c-0.01,0.29,0.03,0.59,0.09,0.89l0.15,0.89
			c0.44,2.35,1.23,4.63,2.33,6.81c0.13,0.27,0.25,0.54,0.38,0.81c0.15,0.27,0.29,0.54,0.44,0.8c0.29,0.53,0.57,1.05,0.85,1.56
			c0.62,1.03,1.19,2.02,1.79,2.99c1.2,1.92,2.38,3.71,3.43,5.33c0.53,0.82,1.02,1.58,1.48,2.28c0.47,0.75,0.9,1.43,1.29,2.05
			c0.81,1.26,1.3,2.14,1.71,2.79c0.38,0.63,0.59,0.97,0.59,0.97L575.23,564.99z"/>
	</g>
</g>
<g id="Layer_2">
	<circle fill="#FBB040" cx="541.68" cy="249.08" r="115.42"/>
	<circle fill="#FBB040" cx="335.39" cy="260.89" r="115.42"/>
	<g>
		<circle fill="#00AEEF" cx="541.68" cy="249.08" r="80.22"/>
	</g>
	<circle fill="#00AEEF" cx="335.39" cy="262.52" r="88.41"/>
	
		<circle stroke="#000000" stroke-width="10" stroke-linecap="round" stroke-linejoin="round" stroke-miterlimit="10" cx="512.62" cy="233.33" r="18.01"/>
	
		<circle stroke="#000000" stroke-width="10" stroke-linecap="round" stroke-linejoin="round" stroke-miterlimit="10" cx="368.95" cy="269.55" r="20.47"/>
	<circle fill="#FFFFFF" cx="504.36" cy="225.06" r="9.74"/>
	<circle fill="#FFFFFF" cx="380.87" cy="260.89" r="9.74"/>
</g>
</svg>
